# Blender 5.1.2
# www.blender.org
mtllib destiny_lord_bow_stage9_refined_A.mtl
o DL_Bow_Crown_Plate
v 33.799999 4.930000 3.100000
v 33.799999 5.030000 3.200000
v 33.700001 5.030000 3.100000
v 33.799999 4.959289 3.170711
v 33.742264 4.972265 3.157735
v 33.729290 5.030000 3.170711
v 33.729290 4.959289 3.100000
v 33.799999 5.670000 3.200000
v 33.799999 5.770000 3.100000
v 33.700001 5.670000 3.100000
v 33.799999 5.740711 3.170711
v 33.742264 5.727735 3.157735
v 33.729290 5.740711 3.100000
v 33.729290 5.670000 3.170711
v 33.799999 4.930000 -3.100000
v 33.700001 5.030000 -3.100000
v 33.799999 5.030000 -3.200000
v 33.729290 4.959289 -3.100000
v 33.742264 4.972265 -3.157735
v 33.729290 5.030000 -3.170711
v 33.799999 4.959289 -3.170711
v 33.799999 5.770000 -3.100000
v 33.799999 5.670000 -3.200000
v 33.700001 5.670000 -3.100000
v 33.799999 5.740711 -3.170711
v 33.742264 5.727735 -3.157735
v 33.729290 5.670000 -3.170711
v 33.729290 5.740711 -3.100000
v 45.200001 4.930000 3.100000
v 45.299999 5.030000 3.100000
v 45.200001 5.030000 3.200000
v 45.270710 4.959289 3.100000
v 45.257736 4.972265 3.157735
v 45.270710 5.030000 3.170711
v 45.200001 4.959289 3.170711
v 45.200001 5.770000 3.100000
v 45.200001 5.670000 3.200000
v 45.299999 5.670000 3.100000
v 45.200001 5.740711 3.170711
v 45.257736 5.727735 3.157735
v 45.270710 5.670000 3.170711
v 45.270710 5.740711 3.100000
v 45.200001 4.930000 -3.100000
v 45.200001 5.030000 -3.200000
v 45.299999 5.030000 -3.100000
v 45.200001 4.959289 -3.170711
v 45.257736 4.972265 -3.157735
v 45.270710 5.030000 -3.170711
v 45.270710 4.959289 -3.100000
v 45.200001 5.770000 -3.100000
v 45.299999 5.670000 -3.100000
v 45.200001 5.670000 -3.200000
v 45.270710 5.740711 -3.100000
v 45.257736 5.727735 -3.157735
v 45.270710 5.670000 -3.170711
v 45.200001 5.740711 -3.170711
vn -0.3251 -0.8881 0.3251
vn -0.3251 -0.3251 0.8881
vn -0.8881 -0.3251 0.3251
vn -0.3251 0.3251 0.8881
vn -0.3251 0.8881 0.3251
vn -0.8881 0.3251 0.3251
vn -0.3251 -0.8881 -0.3251
vn -0.8881 -0.3251 -0.3251
vn -0.3251 -0.3251 -0.8881
vn -0.3251 0.8881 -0.3251
vn -0.3251 0.3251 -0.8881
vn -0.8881 0.3251 -0.3251
vn 0.3251 -0.8881 0.3251
vn 0.8881 -0.3251 0.3251
vn 0.3251 -0.3251 0.8881
vn 0.3251 0.8881 0.3251
vn 0.3251 0.3251 0.8881
vn 0.8881 0.3251 0.3251
vn 0.3251 -0.8881 -0.3251
vn 0.3251 -0.3251 -0.8881
vn 0.8881 -0.3251 -0.3251
vn 0.3251 0.8881 -0.3251
vn 0.8881 0.3251 -0.3251
vn 0.3251 0.3251 -0.8881
vn -0.3827 -0.9239 -0.0000
vn -0.9239 -0.3827 -0.0000
vn -0.3827 -0.0000 0.9239
vn -0.9239 -0.0000 0.3827
vn -0.3827 0.9239 -0.0000
vn -0.9239 0.3827 -0.0000
vn -0.3827 -0.0000 -0.9239
vn -0.9239 -0.0000 -0.3827
vn -0.0000 -0.9239 -0.3827
vn -0.0000 -0.3827 -0.9239
vn -0.0000 0.9239 -0.3827
vn -0.0000 0.3827 -0.9239
vn 0.9239 -0.0000 -0.3827
vn 0.3827 -0.0000 -0.9239
vn 0.3827 -0.9239 -0.0000
vn 0.9239 -0.3827 -0.0000
vn 0.3827 0.9239 -0.0000
vn 0.9239 0.3827 -0.0000
vn 0.3827 -0.0000 0.9239
vn 0.9239 -0.0000 0.3827
vn -0.0000 -0.9239 0.3827
vn -0.0000 -0.3827 0.9239
vn -0.0000 0.9239 0.3827
vn -0.0000 0.3827 0.9239
vn -0.0000 -1.0000 -0.0000
vn -1.0000 -0.0000 -0.0000
vn -0.0000 -0.0000 1.0000
vn -0.0000 1.0000 -0.0000
vn -0.0000 -0.0000 -1.0000
vn 1.0000 -0.0000 -0.0000
vt 0.127155 0.746094
vt 0.127155 0.750000
vt 0.125911 0.750000
vt 0.125000 0.746094
vt 0.404762 0.997845
vt 0.404762 1.000000
vt 0.387579 1.000000
vt 0.375000 0.997845
vt 0.404762 0.003906
vt 0.375000 0.003906
vt 0.375000 0.001651
vt 0.404762 0.000000
vt 0.595238 0.997845
vt 0.625000 0.997845
vt 0.625000 0.999089
vt 0.595238 1.000000
vt 0.872845 0.746094
vt 0.875000 0.746094
vt 0.875000 0.748349
vt 0.872845 0.750000
vt 0.595238 0.003906
vt 0.595238 0.000000
vt 0.612421 0.000000
vt 0.625000 0.003906
vt 0.127155 0.503906
vt 0.125000 0.503906
vt 0.125000 0.501651
vt 0.127155 0.500000
vt 0.404762 0.246094
vt 0.404762 0.250000
vt 0.381289 0.250455
vt 0.375000 0.246094
vt 0.404762 0.252155
vt 0.375000 0.252155
vt 0.872845 0.503906
vt 0.872845 0.500000
vt 0.874089 0.500000
vt 0.875000 0.503906
vt 0.595238 0.252155
vt 0.595238 0.250000
vt 0.618711 0.249175
vt 0.625000 0.252155
vt 0.595238 0.246094
vt 0.625000 0.246094
vt 0.372845 0.746094
vt 0.375000 0.746094
vt 0.379193 0.749753
vt 0.373922 0.751078
vt 0.404762 0.746094
vt 0.404762 0.750000
vt 0.404762 0.752155
vt 0.627155 0.746094
vt 0.626078 0.751078
vt 0.621111 0.749450
vt 0.625000 0.746094
vt 0.595238 0.752155
vt 0.595238 0.750000
vt 0.595238 0.746094
vt 0.372845 0.503906
vt 0.373922 0.498922
vt 0.378889 0.500550
vt 0.375000 0.503906
vt 0.404762 0.497845
vt 0.404762 0.500000
vt 0.404762 0.503906
vt 0.627155 0.503906
vt 0.625000 0.503906
vt 0.620807 0.500247
vt 0.626078 0.498922
vt 0.595238 0.503906
vt 0.595238 0.500000
vt 0.595238 0.497845
s 0
usemtl DL2_Hull_Silver
f 1/1/1 4/2/1 5/3/1 7/4/1
f 2/5/2 6/6/2 5/7/2 4/8/2
f 3/9/3 7/10/3 5/11/3 6/12/3
f 8/13/4 11/14/4 12/15/4 14/16/4
f 9/17/5 13/18/5 12/19/5 11/20/5
f 10/21/6 14/22/6 12/23/6 13/24/6
f 15/25/7 18/26/7 19/27/7 21/28/7
f 16/29/8 20/30/8 19/31/8 18/32/8
f 17/33/9 21/34/9 19/31/9 20/30/9
f 22/35/10 25/36/10 26/37/10 28/38/10
f 23/39/11 27/40/11 26/41/11 25/42/11
f 24/43/12 28/44/12 26/41/12 27/40/12
f 29/45/13 32/46/13 33/47/13 35/48/13
f 30/49/14 34/50/14 33/47/14 32/46/14
f 31/51/15 35/48/15 33/47/15 34/50/15
f 36/52/16 39/53/16 40/54/16 42/55/16
f 37/56/17 41/57/17 40/54/17 39/53/17
f 38/58/18 42/55/18 40/54/18 41/57/18
f 43/59/19 46/60/19 47/61/19 49/62/19
f 44/63/20 48/64/20 47/61/20 46/60/20
f 45/65/21 49/62/21 47/61/21 48/64/21
f 50/66/22 53/67/22 54/68/22 56/69/22
f 51/70/23 55/71/23 54/68/23 53/67/23
f 52/72/24 56/69/24 54/68/24 55/71/24
f 15/25/25 1/1/25 7/4/25 18/26/25
f 18/32/26 7/10/26 3/9/26 16/29/26
f 2/5/27 8/13/27 14/16/27 6/6/27
f 6/12/28 14/22/28 10/21/28 3/9/28
f 9/17/29 22/35/29 28/38/29 13/18/29
f 13/24/30 28/44/30 24/43/30 10/21/30
f 23/39/31 17/33/31 20/30/31 27/40/31
f 27/40/32 20/30/32 16/29/32 24/43/32
f 43/59/33 15/25/33 21/28/33 46/60/33
f 46/60/34 21/34/34 17/33/34 44/63/34
f 22/35/35 50/66/35 56/69/35 25/36/35
f 25/42/36 56/69/36 52/72/36 23/39/36
f 51/70/37 45/65/37 48/64/37 55/71/37
f 55/71/38 48/64/38 44/63/38 52/72/38
f 29/45/39 43/59/39 49/62/39 32/46/39
f 32/46/40 49/62/40 45/65/40 30/49/40
f 50/66/41 36/52/41 42/55/41 53/67/41
f 53/67/42 42/55/42 38/58/42 51/70/42
f 37/56/43 31/51/43 34/50/43 41/57/43
f 41/57/44 34/50/44 30/49/44 38/58/44
f 1/1/45 29/45/45 35/48/45 4/2/45
f 4/8/46 35/48/46 31/51/46 2/5/46
f 36/52/47 9/17/47 11/20/47 39/53/47
f 39/53/48 11/14/48 8/13/48 37/56/48
f 15/25/49 43/59/49 29/45/49 1/1/49
f 3/9/50 10/21/50 24/43/50 16/29/50
f 31/51/51 37/56/51 8/13/51 2/5/51
f 50/66/52 22/35/52 9/17/52 36/52/52
f 17/33/53 23/39/53 52/72/53 44/63/53
f 45/65/54 51/70/54 38/58/54 30/49/54
o DL_Center_Ridge_Fwd
v 7.660000 4.920000 1.640000
v 7.660000 4.980000 1.700000
v 7.600000 4.980000 1.640000
v 7.660000 4.937573 1.682427
v 7.625359 4.945359 1.674641
v 7.617573 4.980000 1.682427
v 7.617573 4.937573 1.640000
v 7.660000 5.420000 1.700000
v 7.660000 5.480000 1.640000
v 7.600000 5.420000 1.640000
v 7.660000 5.462426 1.682427
v 7.625359 5.454641 1.674641
v 7.617573 5.462426 1.640000
v 7.617573 5.420000 1.682427
v 7.660000 4.920000 -1.640000
v 7.600000 4.980000 -1.640000
v 7.660000 4.980000 -1.700000
v 7.617573 4.937573 -1.640000
v 7.625359 4.945359 -1.674641
v 7.617573 4.980000 -1.682427
v 7.660000 4.937573 -1.682427
v 7.660000 5.480000 -1.640000
v 7.660000 5.420000 -1.700000
v 7.600000 5.420000 -1.640000
v 7.660000 5.462426 -1.682427
v 7.625359 5.454641 -1.674641
v 7.617573 5.420000 -1.682427
v 7.617573 5.462426 -1.640000
v 18.340000 4.920000 1.640000
v 18.400000 4.980000 1.640000
v 18.340000 4.980000 1.700000
v 18.382427 4.937573 1.640000
v 18.374641 4.945359 1.674641
v 18.382427 4.980000 1.682427
v 18.340000 4.937573 1.682427
v 18.340000 5.480000 1.640000
v 18.340000 5.420000 1.700000
v 18.400000 5.420000 1.640000
v 18.340000 5.462426 1.682427
v 18.374641 5.454641 1.674641
v 18.382427 5.420000 1.682427
v 18.382427 5.462426 1.640000
v 18.340000 4.920000 -1.640000
v 18.340000 4.980000 -1.700000
v 18.400000 4.980000 -1.640000
v 18.340000 4.937573 -1.682427
v 18.374641 4.945359 -1.674641
v 18.382427 4.980000 -1.682427
v 18.382427 4.937573 -1.640000
v 18.340000 5.480000 -1.640000
v 18.400000 5.420000 -1.640000
v 18.340000 5.420000 -1.700000
v 18.382427 5.462426 -1.640000
v 18.374641 5.454641 -1.674641
v 18.382427 5.420000 -1.682427
v 18.340000 5.462426 -1.682427
vn -0.3251 -0.8881 0.3251
vn -0.3251 -0.3251 0.8881
vn -0.8881 -0.3251 0.3251
vn -0.3251 0.3251 0.8881
vn -0.3251 0.8881 0.3251
vn -0.8881 0.3251 0.3251
vn -0.3251 -0.8881 -0.3251
vn -0.8881 -0.3251 -0.3251
vn -0.3251 -0.3251 -0.8881
vn -0.3251 0.8881 -0.3251
vn -0.3251 0.3251 -0.8881
vn -0.8881 0.3251 -0.3251
vn 0.3251 -0.8881 0.3251
vn 0.8881 -0.3251 0.3251
vn 0.3251 -0.3251 0.8881
vn 0.3251 0.8881 0.3251
vn 0.3251 0.3251 0.8881
vn 0.8881 0.3251 0.3251
vn 0.3251 -0.8881 -0.3251
vn 0.3251 -0.3251 -0.8881
vn 0.8881 -0.3251 -0.3251
vn 0.3251 0.8881 -0.3251
vn 0.8881 0.3251 -0.3251
vn 0.3251 0.3251 -0.8881
vn -0.3827 -0.9239 -0.0000
vn -0.9239 -0.3827 -0.0000
vn -0.3827 -0.0000 0.9239
vn -0.9239 -0.0000 0.3827
vn -0.3827 0.9239 -0.0000
vn -0.9239 0.3827 -0.0000
vn -0.3827 -0.0000 -0.9239
vn -0.9239 -0.0000 -0.3827
vn -0.0000 -0.9239 -0.3827
vn -0.0000 -0.3827 -0.9239
vn -0.0000 0.9239 -0.3827
vn -0.0000 0.3827 -0.9239
vn 0.9239 -0.0000 -0.3827
vn 0.3827 -0.0000 -0.9239
vn 0.3827 -0.9239 -0.0000
vn 0.9239 -0.3827 -0.0000
vn 0.3827 0.9239 -0.0000
vn 0.9239 0.3827 -0.0000
vn 0.3827 -0.0000 0.9239
vn 0.9239 -0.0000 0.3827
vn -0.0000 -0.9239 0.3827
vn -0.0000 -0.3827 0.9239
vn -0.0000 0.9239 0.3827
vn -0.0000 0.3827 0.9239
vn -0.0000 -1.0000 -0.0000
vn -1.0000 -0.0000 -0.0000
vn -0.0000 -0.0000 1.0000
vn -0.0000 1.0000 -0.0000
vn -0.0000 -0.0000 -1.0000
vn 1.0000 -0.0000 -0.0000
vt 0.126389 0.745588
vt 0.126389 0.750000
vt 0.125587 0.750000
vt 0.125000 0.745588
vt 0.401786 0.998611
vt 0.401786 1.000000
vt 0.386321 1.000000
vt 0.375000 0.998611
vt 0.401786 0.004412
vt 0.375000 0.004412
vt 0.375000 0.001865
vt 0.401786 0.000000
vt 0.598214 0.998611
vt 0.625000 0.998611
vt 0.625000 0.999413
vt 0.598214 1.000000
vt 0.873611 0.745588
vt 0.875000 0.745588
vt 0.875000 0.748135
vt 0.873611 0.750000
vt 0.598214 0.004412
vt 0.598214 0.000000
vt 0.613679 0.000000
vt 0.625000 0.004412
vt 0.126389 0.504412
vt 0.125000 0.504412
vt 0.125000 0.501865
vt 0.126389 0.500000
vt 0.401786 0.245588
vt 0.401786 0.250000
vt 0.380660 0.250293
vt 0.375000 0.245588
vt 0.401786 0.251389
vt 0.375000 0.251389
vt 0.873611 0.504412
vt 0.873611 0.500000
vt 0.874413 0.500000
vt 0.875000 0.504412
vt 0.598214 0.251389
vt 0.598214 0.250000
vt 0.619339 0.249068
vt 0.625000 0.251389
vt 0.598214 0.245588
vt 0.625000 0.245588
vt 0.373611 0.745588
vt 0.375000 0.745588
vt 0.378774 0.749574
vt 0.374306 0.750695
vt 0.401786 0.745588
vt 0.401786 0.750000
vt 0.401786 0.751389
vt 0.626389 0.745588
vt 0.625694 0.750694
vt 0.621422 0.749379
vt 0.625000 0.745588
vt 0.598214 0.751389
vt 0.598214 0.750000
vt 0.598214 0.745588
vt 0.373611 0.504412
vt 0.374306 0.499306
vt 0.378578 0.500622
vt 0.375000 0.504412
vt 0.401786 0.498611
vt 0.401786 0.500000
vt 0.401786 0.504412
vt 0.626389 0.504412
vt 0.625000 0.504412
vt 0.621226 0.500426
vt 0.625694 0.499306
vt 0.598214 0.504412
vt 0.598214 0.500000
vt 0.598214 0.498611
s 0
usemtl DL2_Armor_Indigo
f 57/73/55 60/74/55 61/75/55 63/76/55
f 58/77/56 62/78/56 61/79/56 60/80/56
f 59/81/57 63/82/57 61/83/57 62/84/57
f 64/85/58 67/86/58 68/87/58 70/88/58
f 65/89/59 69/90/59 68/91/59 67/92/59
f 66/93/60 70/94/60 68/95/60 69/96/60
f 71/97/61 74/98/61 75/99/61 77/100/61
f 72/101/62 76/102/62 75/103/62 74/104/62
f 73/105/63 77/106/63 75/103/63 76/102/63
f 78/107/64 81/108/64 82/109/64 84/110/64
f 79/111/65 83/112/65 82/113/65 81/114/65
f 80/115/66 84/116/66 82/113/66 83/112/66
f 85/117/67 88/118/67 89/119/67 91/120/67
f 86/121/68 90/122/68 89/119/68 88/118/68
f 87/123/69 91/120/69 89/119/69 90/122/69
f 92/124/70 95/125/70 96/126/70 98/127/70
f 93/128/71 97/129/71 96/126/71 95/125/71
f 94/130/72 98/127/72 96/126/72 97/129/72
f 99/131/73 102/132/73 103/133/73 105/134/73
f 100/135/74 104/136/74 103/133/74 102/132/74
f 101/137/75 105/134/75 103/133/75 104/136/75
f 106/138/76 109/139/76 110/140/76 112/141/76
f 107/142/77 111/143/77 110/140/77 109/139/77
f 108/144/78 112/141/78 110/140/78 111/143/78
f 71/97/79 57/73/79 63/76/79 74/98/79
f 74/104/80 63/82/80 59/81/80 72/101/80
f 58/77/81 64/85/81 70/88/81 62/78/81
f 62/84/82 70/94/82 66/93/82 59/81/82
f 65/89/83 78/107/83 84/110/83 69/90/83
f 69/96/84 84/116/84 80/115/84 66/93/84
f 79/111/85 73/105/85 76/102/85 83/112/85
f 83/112/86 76/102/86 72/101/86 80/115/86
f 99/131/87 71/97/87 77/100/87 102/132/87
f 102/132/88 77/106/88 73/105/88 100/135/88
f 78/107/89 106/138/89 112/141/89 81/108/89
f 81/114/90 112/141/90 108/144/90 79/111/90
f 107/142/91 101/137/91 104/136/91 111/143/91
f 111/143/92 104/136/92 100/135/92 108/144/92
f 85/117/93 99/131/93 105/134/93 88/118/93
f 88/118/94 105/134/94 101/137/94 86/121/94
f 106/138/95 92/124/95 98/127/95 109/139/95
f 109/139/96 98/127/96 94/130/96 107/142/96
f 93/128/97 87/123/97 90/122/97 97/129/97
f 97/129/98 90/122/98 86/121/98 94/130/98
f 57/73/99 85/117/99 91/120/99 60/74/99
f 60/80/100 91/120/100 87/123/100 58/77/100
f 92/124/101 65/89/101 67/92/101 95/125/101
f 95/125/102 67/86/102 64/85/102 93/128/102
f 71/97/103 99/131/103 85/117/103 57/73/103
f 59/81/104 66/93/104 80/115/104 72/101/104
f 87/123/105 93/128/105 64/85/105 58/77/105
f 106/138/106 78/107/106 65/89/106 92/124/106
f 73/105/107 79/111/107 108/144/107 100/135/107
f 101/137/108 107/142/108 94/130/108 86/121/108
o DL_Bow_Crown_SideBrace_-1
v 35.330002 5.420000 3.700000
v 35.330002 5.450000 3.730000
v 35.299999 5.450000 3.700000
v 35.330002 5.428787 3.721213
v 35.312679 5.432679 3.717320
v 35.308788 5.450000 3.721213
v 35.308788 5.428787 3.700000
v 35.330002 5.710000 3.730000
v 35.330002 5.740000 3.700000
v 35.299999 5.710000 3.700000
v 35.330002 5.731213 3.721213
v 35.312679 5.727321 3.717320
v 35.308788 5.731213 3.700000
v 35.308788 5.710000 3.721213
v 35.330002 5.420000 3.400000
v 35.299999 5.450000 3.400000
v 35.330002 5.450000 3.370000
v 35.308788 5.428787 3.400000
v 35.312679 5.432679 3.382679
v 35.308788 5.450000 3.378787
v 35.330002 5.428787 3.378787
v 35.330002 5.740000 3.400000
v 35.330002 5.710000 3.370000
v 35.299999 5.710000 3.400000
v 35.330002 5.731213 3.378787
v 35.312679 5.727321 3.382679
v 35.308788 5.710000 3.378787
v 35.308788 5.731213 3.400000
v 43.669998 5.420000 3.700000
v 43.700001 5.450000 3.700000
v 43.669998 5.450000 3.730000
v 43.691212 5.428787 3.700000
v 43.687321 5.432679 3.717320
v 43.691212 5.450000 3.721213
v 43.669998 5.428787 3.721213
v 43.669998 5.740000 3.700000
v 43.669998 5.710000 3.730000
v 43.700001 5.710000 3.700000
v 43.669998 5.731213 3.721213
v 43.687321 5.727321 3.717320
v 43.691212 5.710000 3.721213
v 43.691212 5.731213 3.700000
v 43.669998 5.420000 3.400000
v 43.669998 5.450000 3.370000
v 43.700001 5.450000 3.400000
v 43.669998 5.428787 3.378787
v 43.687321 5.432679 3.382679
v 43.691212 5.450000 3.378787
v 43.691212 5.428787 3.400000
v 43.669998 5.740000 3.400000
v 43.700001 5.710000 3.400000
v 43.669998 5.710000 3.370000
v 43.691212 5.731213 3.400000
v 43.687321 5.727321 3.382679
v 43.691212 5.710000 3.378787
v 43.669998 5.731213 3.378787
vn -0.3251 -0.8881 0.3251
vn -0.3251 -0.3251 0.8881
vn -0.8881 -0.3251 0.3250
vn -0.3251 0.3251 0.8881
vn -0.3251 0.8881 0.3251
vn -0.8881 0.3251 0.3251
vn -0.3251 -0.8881 -0.3251
vn -0.8881 -0.3251 -0.3251
vn -0.3251 -0.3251 -0.8881
vn -0.3251 0.8881 -0.3251
vn -0.3251 0.3251 -0.8881
vn -0.8881 0.3251 -0.3251
vn 0.3251 -0.8881 0.3251
vn 0.8881 -0.3251 0.3251
vn 0.3251 -0.3251 0.8881
vn 0.3251 0.8881 0.3251
vn 0.3251 0.3251 0.8881
vn 0.8881 0.3251 0.3250
vn 0.3251 -0.8881 -0.3251
vn 0.3251 -0.3251 -0.8881
vn 0.8881 -0.3251 -0.3251
vn 0.3251 0.8881 -0.3251
vn 0.8881 0.3251 -0.3251
vn 0.3251 0.3251 -0.8881
vn -0.3827 -0.9239 -0.0000
vn -0.9239 -0.3827 -0.0000
vn -0.3827 -0.0000 0.9239
vn -0.9239 -0.0000 0.3827
vn -0.3827 0.9239 -0.0000
vn -0.9239 0.3827 -0.0000
vn -0.3827 -0.0000 -0.9239
vn -0.9239 -0.0000 -0.3827
vn -0.0000 -0.9239 -0.3827
vn -0.0000 -0.3827 -0.9239
vn -0.0000 0.9239 -0.3827
vn -0.0000 0.3827 -0.9239
vn 0.9239 -0.0000 -0.3827
vn 0.3827 -0.0000 -0.9239
vn 0.3827 -0.9239 -0.0000
vn 0.9239 -0.3827 -0.0000
vn 0.3827 0.9239 -0.0000
vn 0.9239 0.3827 -0.0000
vn 0.3827 -0.0000 0.9239
vn 0.9239 -0.0000 0.3827
vn -0.0000 -0.9239 0.3827
vn -0.0000 -0.3827 0.9239
vn -0.0000 0.9239 0.3827
vn -0.0000 0.3827 0.9239
vn -0.0000 -1.0000 -0.0000
vn -1.0000 -0.0000 -0.0000
vn -0.0000 -0.0000 1.0000
vn -0.0000 1.0000 -0.0000
vn -0.0000 -0.0000 -1.0000
vn 1.0000 -0.0000 -0.0000
vt 0.125893 0.729167
vt 0.125893 0.750000
vt 0.125377 0.750000
vt 0.125000 0.729167
vt 0.398438 0.999107
vt 0.398438 1.000000
vt 0.384906 1.000000
vt 0.375000 0.999107
vt 0.398438 0.020833
vt 0.375000 0.020833
vt 0.375000 0.008805
vt 0.398438 0.000000
vt 0.601562 0.999107
vt 0.625000 0.999107
vt 0.625000 0.999623
vt 0.601562 1.000000
vt 0.874107 0.729167
vt 0.875000 0.729167
vt 0.875000 0.741195
vt 0.874107 0.750000
vt 0.601562 0.020833
vt 0.601562 0.000000
vt 0.615094 0.000000
vt 0.625000 0.020833
vt 0.125893 0.520833
vt 0.125000 0.520833
vt 0.125000 0.508805
vt 0.125893 0.500000
vt 0.398438 0.229167
vt 0.398438 0.250000
vt 0.379953 0.250189
vt 0.375000 0.229167
vt 0.398438 0.250893
vt 0.375000 0.250893
vt 0.874107 0.520833
vt 0.874107 0.500000
vt 0.874623 0.500000
vt 0.875000 0.520833
vt 0.601562 0.250893
vt 0.601562 0.250000
vt 0.620047 0.245597
vt 0.625000 0.250893
vt 0.601562 0.229167
vt 0.625000 0.229167
vt 0.374107 0.729167
vt 0.375000 0.729167
vt 0.378302 0.747191
vt 0.374554 0.750446
vt 0.398438 0.729167
vt 0.398438 0.750000
vt 0.398438 0.750893
vt 0.625893 0.729167
vt 0.625446 0.750446
vt 0.621824 0.747065
vt 0.625000 0.729167
vt 0.601562 0.750893
vt 0.601562 0.750000
vt 0.601562 0.729167
vt 0.374107 0.520833
vt 0.374554 0.499554
vt 0.378176 0.502935
vt 0.375000 0.520833
vt 0.398438 0.499107
vt 0.398438 0.500000
vt 0.398438 0.520833
vt 0.625893 0.520833
vt 0.625000 0.520833
vt 0.621698 0.502809
vt 0.625446 0.499554
vt 0.601562 0.520833
vt 0.601562 0.500000
vt 0.601562 0.499107
s 0
usemtl DL2_Armor_Indigo
f 113/145/109 116/146/109 117/147/109 119/148/109
f 114/149/110 118/150/110 117/151/110 116/152/110
f 115/153/111 119/154/111 117/155/111 118/156/111
f 120/157/112 123/158/112 124/159/112 126/160/112
f 121/161/113 125/162/113 124/163/113 123/164/113
f 122/165/114 126/166/114 124/167/114 125/168/114
f 127/169/115 130/170/115 131/171/115 133/172/115
f 128/173/116 132/174/116 131/175/116 130/176/116
f 129/177/117 133/178/117 131/175/117 132/174/117
f 134/179/118 137/180/118 138/181/118 140/182/118
f 135/183/119 139/184/119 138/185/119 137/186/119
f 136/187/120 140/188/120 138/185/120 139/184/120
f 141/189/121 144/190/121 145/191/121 147/192/121
f 142/193/122 146/194/122 145/191/122 144/190/122
f 143/195/123 147/192/123 145/191/123 146/194/123
f 148/196/124 151/197/124 152/198/124 154/199/124
f 149/200/125 153/201/125 152/198/125 151/197/125
f 150/202/126 154/199/126 152/198/126 153/201/126
f 155/203/127 158/204/127 159/205/127 161/206/127
f 156/207/128 160/208/128 159/205/128 158/204/128
f 157/209/129 161/206/129 159/205/129 160/208/129
f 162/210/130 165/211/130 166/212/130 168/213/130
f 163/214/131 167/215/131 166/212/131 165/211/131
f 164/216/132 168/213/132 166/212/132 167/215/132
f 127/169/133 113/145/133 119/148/133 130/170/133
f 130/176/134 119/154/134 115/153/134 128/173/134
f 114/149/135 120/157/135 126/160/135 118/150/135
f 118/156/136 126/166/136 122/165/136 115/153/136
f 121/161/137 134/179/137 140/182/137 125/162/137
f 125/168/138 140/188/138 136/187/138 122/165/138
f 135/183/139 129/177/139 132/174/139 139/184/139
f 139/184/140 132/174/140 128/173/140 136/187/140
f 155/203/141 127/169/141 133/172/141 158/204/141
f 158/204/142 133/178/142 129/177/142 156/207/142
f 134/179/143 162/210/143 168/213/143 137/180/143
f 137/186/144 168/213/144 164/216/144 135/183/144
f 163/214/145 157/209/145 160/208/145 167/215/145
f 167/215/146 160/208/146 156/207/146 164/216/146
f 141/189/147 155/203/147 161/206/147 144/190/147
f 144/190/148 161/206/148 157/209/148 142/193/148
f 162/210/149 148/196/149 154/199/149 165/211/149
f 165/211/150 154/199/150 150/202/150 163/214/150
f 149/200/151 143/195/151 146/194/151 153/201/151
f 153/201/152 146/194/152 142/193/152 150/202/152
f 113/145/153 141/189/153 147/192/153 116/146/153
f 116/152/154 147/192/154 143/195/154 114/149/154
f 148/196/155 121/161/155 123/164/155 151/197/155
f 151/197/156 123/158/156 120/157/156 149/200/156
f 127/169/157 155/203/157 141/189/157 113/145/157
f 115/153/158 122/165/158 136/187/158 128/173/158
f 143/195/159 149/200/159 120/157/159 114/149/159
f 162/210/160 134/179/160 121/161/160 148/196/160
f 129/177/161 135/183/161 164/216/161 156/207/161
f 157/209/162 163/214/162 150/202/162 142/193/162
o DL_Bow_Crown_SideBrace_1
v 35.330002 5.420000 -3.400000
v 35.330002 5.450000 -3.370000
v 35.299999 5.450000 -3.400000
v 35.330002 5.428787 -3.378787
v 35.312679 5.432679 -3.382679
v 35.308788 5.450000 -3.378787
v 35.308788 5.428787 -3.400000
v 35.330002 5.710000 -3.370000
v 35.330002 5.740000 -3.400000
v 35.299999 5.710000 -3.400000
v 35.330002 5.731213 -3.378787
v 35.312679 5.727321 -3.382679
v 35.308788 5.731213 -3.400000
v 35.308788 5.710000 -3.378787
v 35.330002 5.420000 -3.700000
v 35.299999 5.450000 -3.700000
v 35.330002 5.450000 -3.730000
v 35.308788 5.428787 -3.700000
v 35.312679 5.432679 -3.717320
v 35.308788 5.450000 -3.721213
v 35.330002 5.428787 -3.721213
v 35.330002 5.740000 -3.700000
v 35.330002 5.710000 -3.730000
v 35.299999 5.710000 -3.700000
v 35.330002 5.731213 -3.721213
v 35.312679 5.727321 -3.717320
v 35.308788 5.710000 -3.721213
v 35.308788 5.731213 -3.700000
v 43.669998 5.420000 -3.400000
v 43.700001 5.450000 -3.400000
v 43.669998 5.450000 -3.370000
v 43.691212 5.428787 -3.400000
v 43.687321 5.432679 -3.382679
v 43.691212 5.450000 -3.378787
v 43.669998 5.428787 -3.378787
v 43.669998 5.740000 -3.400000
v 43.669998 5.710000 -3.370000
v 43.700001 5.710000 -3.400000
v 43.669998 5.731213 -3.378787
v 43.687321 5.727321 -3.382679
v 43.691212 5.710000 -3.378787
v 43.691212 5.731213 -3.400000
v 43.669998 5.420000 -3.700000
v 43.669998 5.450000 -3.730000
v 43.700001 5.450000 -3.700000
v 43.669998 5.428787 -3.721213
v 43.687321 5.432679 -3.717320
v 43.691212 5.450000 -3.721213
v 43.691212 5.428787 -3.700000
v 43.669998 5.740000 -3.700000
v 43.700001 5.710000 -3.700000
v 43.669998 5.710000 -3.730000
v 43.691212 5.731213 -3.700000
v 43.687321 5.727321 -3.717320
v 43.691212 5.710000 -3.721213
v 43.669998 5.731213 -3.721213
vn -0.3251 -0.8881 0.3251
vn -0.3251 -0.3251 0.8881
vn -0.8881 -0.3251 0.3250
vn -0.3251 0.3251 0.8881
vn -0.3251 0.8881 0.3251
vn -0.8881 0.3251 0.3251
vn -0.3251 -0.8881 -0.3251
vn -0.8881 -0.3251 -0.3251
vn -0.3251 -0.3251 -0.8881
vn -0.3251 0.8881 -0.3251
vn -0.3251 0.3251 -0.8881
vn -0.8881 0.3251 -0.3251
vn 0.3251 -0.8881 0.3251
vn 0.8881 -0.3251 0.3251
vn 0.3251 -0.3251 0.8881
vn 0.3251 0.8881 0.3251
vn 0.3251 0.3251 0.8881
vn 0.8881 0.3251 0.3250
vn 0.3251 -0.8881 -0.3251
vn 0.3251 -0.3251 -0.8881
vn 0.8881 -0.3251 -0.3251
vn 0.3251 0.8881 -0.3251
vn 0.8881 0.3251 -0.3251
vn 0.3251 0.3251 -0.8881
vn -0.3827 -0.9239 -0.0000
vn -0.9239 -0.3827 -0.0000
vn -0.3827 -0.0000 0.9239
vn -0.9239 -0.0000 0.3827
vn -0.3827 0.9239 -0.0000
vn -0.9239 0.3827 -0.0000
vn -0.3827 -0.0000 -0.9239
vn -0.9239 -0.0000 -0.3827
vn -0.0000 -0.9239 -0.3827
vn -0.0000 -0.3827 -0.9239
vn -0.0000 0.9239 -0.3827
vn -0.0000 0.3827 -0.9239
vn 0.9239 -0.0000 -0.3827
vn 0.3827 -0.0000 -0.9239
vn 0.3827 -0.9239 -0.0000
vn 0.9239 -0.3827 -0.0000
vn 0.3827 0.9239 -0.0000
vn 0.9239 0.3827 -0.0000
vn 0.3827 -0.0000 0.9239
vn 0.9239 -0.0000 0.3827
vn -0.0000 -0.9239 0.3827
vn -0.0000 -0.3827 0.9239
vn -0.0000 0.9239 0.3827
vn -0.0000 0.3827 0.9239
vn -0.0000 -1.0000 -0.0000
vn -1.0000 -0.0000 -0.0000
vn -0.0000 -0.0000 1.0000
vn -0.0000 1.0000 -0.0000
vn -0.0000 -0.0000 -1.0000
vn 1.0000 -0.0000 -0.0000
vt 0.125893 0.729167
vt 0.125893 0.750000
vt 0.125377 0.750000
vt 0.125000 0.729167
vt 0.398438 0.999107
vt 0.398438 1.000000
vt 0.384906 1.000000
vt 0.375000 0.999107
vt 0.398438 0.020833
vt 0.375000 0.020833
vt 0.375000 0.008805
vt 0.398438 0.000000
vt 0.601562 0.999107
vt 0.625000 0.999107
vt 0.625000 0.999623
vt 0.601562 1.000000
vt 0.874107 0.729167
vt 0.875000 0.729167
vt 0.875000 0.741195
vt 0.874107 0.750000
vt 0.601562 0.020833
vt 0.601562 0.000000
vt 0.615094 0.000000
vt 0.625000 0.020833
vt 0.125893 0.520833
vt 0.125000 0.520833
vt 0.125000 0.508805
vt 0.125893 0.500000
vt 0.398438 0.229167
vt 0.398438 0.250000
vt 0.379953 0.250189
vt 0.375000 0.229167
vt 0.398438 0.250893
vt 0.375000 0.250893
vt 0.874107 0.520833
vt 0.874107 0.500000
vt 0.874623 0.500000
vt 0.875000 0.520833
vt 0.601562 0.250893
vt 0.601562 0.250000
vt 0.620047 0.245597
vt 0.625000 0.250893
vt 0.601562 0.229167
vt 0.625000 0.229167
vt 0.374107 0.729167
vt 0.375000 0.729167
vt 0.378302 0.747191
vt 0.374554 0.750446
vt 0.398438 0.729167
vt 0.398438 0.750000
vt 0.398438 0.750893
vt 0.625893 0.729167
vt 0.625446 0.750446
vt 0.621824 0.747065
vt 0.625000 0.729167
vt 0.601562 0.750893
vt 0.601562 0.750000
vt 0.601562 0.729167
vt 0.374107 0.520833
vt 0.374554 0.499554
vt 0.378176 0.502935
vt 0.375000 0.520833
vt 0.398438 0.499107
vt 0.398438 0.500000
vt 0.398438 0.520833
vt 0.625893 0.520833
vt 0.625000 0.520833
vt 0.621698 0.502809
vt 0.625446 0.499554
vt 0.601562 0.520833
vt 0.601562 0.500000
vt 0.601562 0.499107
s 0
usemtl DL2_Armor_Indigo
f 169/217/163 172/218/163 173/219/163 175/220/163
f 170/221/164 174/222/164 173/223/164 172/224/164
f 171/225/165 175/226/165 173/227/165 174/228/165
f 176/229/166 179/230/166 180/231/166 182/232/166
f 177/233/167 181/234/167 180/235/167 179/236/167
f 178/237/168 182/238/168 180/239/168 181/240/168
f 183/241/169 186/242/169 187/243/169 189/244/169
f 184/245/170 188/246/170 187/247/170 186/248/170
f 185/249/171 189/250/171 187/247/171 188/246/171
f 190/251/172 193/252/172 194/253/172 196/254/172
f 191/255/173 195/256/173 194/257/173 193/258/173
f 192/259/174 196/260/174 194/257/174 195/256/174
f 197/261/175 200/262/175 201/263/175 203/264/175
f 198/265/176 202/266/176 201/263/176 200/262/176
f 199/267/177 203/264/177 201/263/177 202/266/177
f 204/268/178 207/269/178 208/270/178 210/271/178
f 205/272/179 209/273/179 208/270/179 207/269/179
f 206/274/180 210/271/180 208/270/180 209/273/180
f 211/275/181 214/276/181 215/277/181 217/278/181
f 212/279/182 216/280/182 215/277/182 214/276/182
f 213/281/183 217/278/183 215/277/183 216/280/183
f 218/282/184 221/283/184 222/284/184 224/285/184
f 219/286/185 223/287/185 222/284/185 221/283/185
f 220/288/186 224/285/186 222/284/186 223/287/186
f 183/241/187 169/217/187 175/220/187 186/242/187
f 186/248/188 175/226/188 171/225/188 184/245/188
f 170/221/189 176/229/189 182/232/189 174/222/189
f 174/228/190 182/238/190 178/237/190 171/225/190
f 177/233/191 190/251/191 196/254/191 181/234/191
f 181/240/192 196/260/192 192/259/192 178/237/192
f 191/255/193 185/249/193 188/246/193 195/256/193
f 195/256/194 188/246/194 184/245/194 192/259/194
f 211/275/195 183/241/195 189/244/195 214/276/195
f 214/276/196 189/250/196 185/249/196 212/279/196
f 190/251/197 218/282/197 224/285/197 193/252/197
f 193/258/198 224/285/198 220/288/198 191/255/198
f 219/286/199 213/281/199 216/280/199 223/287/199
f 223/287/200 216/280/200 212/279/200 220/288/200
f 197/261/201 211/275/201 217/278/201 200/262/201
f 200/262/202 217/278/202 213/281/202 198/265/202
f 218/282/203 204/268/203 210/271/203 221/283/203
f 221/283/204 210/271/204 206/274/204 219/286/204
f 205/272/205 199/267/205 202/266/205 209/273/205
f 209/273/206 202/266/206 198/265/206 206/274/206
f 169/217/207 197/261/207 203/264/207 172/218/207
f 172/224/208 203/264/208 199/267/208 170/221/208
f 204/268/209 177/233/209 179/236/209 207/269/209
f 207/269/210 179/230/210 176/229/210 205/272/210
f 183/241/211 211/275/211 197/261/211 169/217/211
f 171/225/212 178/237/212 192/259/212 184/245/212
f 199/267/213 205/272/213 176/229/213 170/221/213
f 218/282/214 190/251/214 177/233/214 204/268/214
f 185/249/215 191/255/215 220/288/215 212/279/215
f 213/281/216 219/286/216 206/274/216 198/265/216
o DL_Bow_Crown_BlueChannel_-1_0
v 16.249662 5.805000 2.679493
v 16.251451 5.815000 2.689332
v 16.239822 5.815000 2.681284
v 16.250927 5.807929 2.686450
v 16.245014 5.809227 2.686207
v 16.243971 5.815000 2.687716
v 16.242704 5.807929 2.680759
v 16.251451 5.865000 2.689332
v 16.249662 5.875000 2.679493
v 16.239822 5.865000 2.681284
v 16.250927 5.872071 2.686450
v 16.245014 5.870774 2.686207
v 16.242704 5.872071 2.680759
v 16.243971 5.865000 2.687716
v 16.228178 5.805000 2.561432
v 16.218340 5.815000 2.563223
v 16.226387 5.815000 2.551594
v 16.221222 5.807929 2.562698
v 16.221464 5.809227 2.556786
v 16.219955 5.815000 2.555741
v 16.226912 5.807929 2.554476
v 16.228178 5.875000 2.561432
v 16.226387 5.865000 2.551594
v 16.218340 5.865000 2.563223
v 16.226912 5.872071 2.554476
v 16.221464 5.870774 2.556786
v 16.219955 5.865000 2.555741
v 16.221222 5.872071 2.562698
v 19.771822 5.805000 2.038568
v 19.781660 5.815000 2.036777
v 19.773613 5.815000 2.048406
v 19.778778 5.807929 2.037302
v 19.778536 5.809227 2.043214
v 19.780045 5.815000 2.044259
v 19.773088 5.807929 2.045524
v 19.771822 5.875000 2.038568
v 19.773613 5.865000 2.048406
v 19.781660 5.865000 2.036777
v 19.773088 5.872071 2.045524
v 19.778536 5.870774 2.043214
v 19.780045 5.865000 2.044259
v 19.778778 5.872071 2.037302
v 19.750338 5.805000 1.920506
v 19.748549 5.815000 1.910668
v 19.760178 5.815000 1.918716
v 19.749073 5.807929 1.913550
v 19.754986 5.809227 1.913792
v 19.756029 5.815000 1.912284
v 19.757296 5.807929 1.919240
v 19.750338 5.875000 1.920506
v 19.760178 5.865000 1.918716
v 19.748549 5.865000 1.910668
v 19.757296 5.872071 1.919240
v 19.754986 5.870774 1.913792
v 19.756029 5.865000 1.912284
v 19.749073 5.872071 1.913550
vn -0.2616 -0.8881 0.3780
vn -0.1608 -0.3250 0.9319
vn -0.8155 -0.3250 0.4788
vn -0.1608 0.3250 0.9319
vn -0.2616 0.8881 0.3780
vn -0.8155 0.3250 0.4788
vn -0.3780 -0.8881 -0.2616
vn -0.9319 -0.3250 -0.1608
vn -0.4788 -0.3250 -0.8155
vn -0.3780 0.8881 -0.2616
vn -0.4788 0.3250 -0.8155
vn -0.9319 0.3250 -0.1608
vn 0.3780 -0.8881 0.2616
vn 0.9319 -0.3250 0.1608
vn 0.4788 -0.3250 0.8155
vn 0.3780 0.8881 0.2616
vn 0.4788 0.3250 0.8155
vn 0.9319 0.3250 0.1608
vn 0.2616 -0.8881 -0.3780
vn 0.1608 -0.3250 -0.9319
vn 0.8155 -0.3250 -0.4788
vn 0.2616 0.8881 -0.3780
vn 0.8155 0.3250 -0.4788
vn 0.1608 0.3250 -0.9319
vn -0.3765 -0.9239 0.0685
vn -0.9090 -0.3827 0.1654
vn -0.2111 -0.0000 0.9775
vn -0.8404 -0.0000 0.5419
vn -0.3765 0.9239 0.0685
vn -0.9090 0.3827 0.1654
vn -0.5419 -0.0000 -0.8404
vn -0.9775 -0.0000 -0.2111
vn -0.0685 -0.9239 -0.3765
vn -0.1654 -0.3827 -0.9090
vn -0.0685 0.9239 -0.3765
vn -0.1654 0.3827 -0.9090
vn 0.8404 -0.0000 -0.5419
vn 0.2111 -0.0000 -0.9775
vn 0.3765 -0.9239 -0.0685
vn 0.9090 -0.3827 -0.1654
vn 0.3765 0.9239 -0.0685
vn 0.9090 0.3827 -0.1654
vn 0.5419 -0.0000 0.8404
vn 0.9775 -0.0000 0.2111
vn 0.0685 -0.9239 0.3765
vn 0.1654 -0.3827 0.9090
vn 0.0685 0.9239 0.3765
vn 0.1654 0.3827 0.9090
vn -0.0000 -1.0000 -0.0000
vn -0.9838 -0.0000 0.1790
vn 0.1790 -0.0000 0.9838
vn -0.0000 1.0000 -0.0000
vn -0.1790 -0.0000 -0.9838
vn 0.9838 -0.0000 -0.1790
vt 0.125694 0.732143
vt 0.125694 0.750000
vt 0.125293 0.750000
vt 0.125000 0.732143
vt 0.410714 0.999306
vt 0.410714 1.000000
vt 0.390095 1.000000
vt 0.375000 0.999306
vt 0.410714 0.017857
vt 0.375000 0.017857
vt 0.375000 0.007547
vt 0.410714 0.000000
vt 0.589286 0.999306
vt 0.625000 0.999306
vt 0.625000 0.999707
vt 0.589286 1.000000
vt 0.874306 0.732143
vt 0.875000 0.732143
vt 0.875000 0.742453
vt 0.874306 0.750000
vt 0.589286 0.017857
vt 0.589286 0.000000
vt 0.609905 0.000000
vt 0.625000 0.017857
vt 0.125694 0.517857
vt 0.125000 0.517857
vt 0.125000 0.507547
vt 0.125694 0.500000
vt 0.410714 0.232143
vt 0.410714 0.250000
vt 0.382547 0.250147
vt 0.375000 0.232143
vt 0.410714 0.250694
vt 0.375000 0.250694
vt 0.874306 0.517857
vt 0.874306 0.500000
vt 0.874707 0.500000
vt 0.875000 0.517857
vt 0.589286 0.250694
vt 0.589286 0.250000
vt 0.617453 0.246226
vt 0.625000 0.250694
vt 0.589286 0.232143
vt 0.625000 0.232143
vt 0.374306 0.732143
vt 0.375000 0.732143
vt 0.380032 0.747582
vt 0.374653 0.750347
vt 0.410714 0.732143
vt 0.410714 0.750000
vt 0.410714 0.750695
vt 0.625694 0.732143
vt 0.625347 0.750347
vt 0.620066 0.747484
vt 0.625000 0.732143
vt 0.589286 0.750695
vt 0.589286 0.750000
vt 0.589286 0.732143
vt 0.374306 0.517857
vt 0.374653 0.499653
vt 0.379934 0.502516
vt 0.375000 0.517857
vt 0.410714 0.499306
vt 0.410714 0.500000
vt 0.410714 0.517857
vt 0.625694 0.517857
vt 0.625000 0.517857
vt 0.619968 0.502418
vt 0.625347 0.499653
vt 0.589286 0.517857
vt 0.589286 0.500000
vt 0.589286 0.499306
s 0
usemtl DL2_IceBlue
f 225/289/217 228/290/217 229/291/217 231/292/217
f 226/293/218 230/294/218 229/295/218 228/296/218
f 227/297/219 231/298/219 229/299/219 230/300/219
f 232/301/220 235/302/220 236/303/220 238/304/220
f 233/305/221 237/306/221 236/307/221 235/308/221
f 234/309/222 238/310/222 236/311/222 237/312/222
f 239/313/223 242/314/223 243/315/223 245/316/223
f 240/317/224 244/318/224 243/319/224 242/320/224
f 241/321/225 245/322/225 243/319/225 244/318/225
f 246/323/226 249/324/226 250/325/226 252/326/226
f 247/327/227 251/328/227 250/329/227 249/330/227
f 248/331/228 252/332/228 250/329/228 251/328/228
f 253/333/229 256/334/229 257/335/229 259/336/229
f 254/337/230 258/338/230 257/335/230 256/334/230
f 255/339/231 259/336/231 257/335/231 258/338/231
f 260/340/232 263/341/232 264/342/232 266/343/232
f 261/344/233 265/345/233 264/342/233 263/341/233
f 262/346/234 266/343/234 264/342/234 265/345/234
f 267/347/235 270/348/235 271/349/235 273/350/235
f 268/351/236 272/352/236 271/349/236 270/348/236
f 269/353/237 273/350/237 271/349/237 272/352/237
f 274/354/238 277/355/238 278/356/238 280/357/238
f 275/358/239 279/359/239 278/356/239 277/355/239
f 276/360/240 280/357/240 278/356/240 279/359/240
f 239/313/241 225/289/241 231/292/241 242/314/241
f 242/320/242 231/298/242 227/297/242 240/317/242
f 226/293/243 232/301/243 238/304/243 230/294/243
f 230/300/244 238/310/244 234/309/244 227/297/244
f 233/305/245 246/323/245 252/326/245 237/306/245
f 237/312/246 252/332/246 248/331/246 234/309/246
f 247/327/247 241/321/247 244/318/247 251/328/247
f 251/328/248 244/318/248 240/317/248 248/331/248
f 267/347/249 239/313/249 245/316/249 270/348/249
f 270/348/250 245/322/250 241/321/250 268/351/250
f 246/323/251 274/354/251 280/357/251 249/324/251
f 249/330/252 280/357/252 276/360/252 247/327/252
f 275/358/253 269/353/253 272/352/253 279/359/253
f 279/359/254 272/352/254 268/351/254 276/360/254
f 253/333/255 267/347/255 273/350/255 256/334/255
f 256/334/256 273/350/256 269/353/256 254/337/256
f 274/354/257 260/340/257 266/343/257 277/355/257
f 277/355/258 266/343/258 262/346/258 275/358/258
f 261/344/259 255/339/259 258/338/259 265/345/259
f 265/345/260 258/338/260 254/337/260 262/346/260
f 225/289/261 253/333/261 259/336/261 228/290/261
f 228/296/262 259/336/262 255/339/262 226/293/262
f 260/340/263 233/305/263 235/308/263 263/341/263
f 263/341/264 235/302/264 232/301/264 261/344/264
f 239/313/265 267/347/265 253/333/265 225/289/265
f 227/297/266 234/309/266 248/331/266 240/317/266
f 255/339/267 261/344/267 232/301/267 226/293/267
f 274/354/268 246/323/268 233/305/268 260/340/268
f 241/321/269 247/327/269 276/360/269 268/351/269
f 269/353/270 275/358/270 262/346/270 254/337/270
o DL_Bow_Crown_BlueChannel_-1_1
v 23.249662 5.805000 2.999493
v 23.251451 5.815000 3.009332
v 23.239822 5.815000 3.001284
v 23.250927 5.807929 3.006450
v 23.245014 5.809227 3.006207
v 23.243971 5.815000 3.007716
v 23.242704 5.807929 3.000759
v 23.251451 5.865000 3.009332
v 23.249662 5.875000 2.999493
v 23.239822 5.865000 3.001284
v 23.250927 5.872071 3.006450
v 23.245014 5.870774 3.006207
v 23.242704 5.872071 3.000759
v 23.243971 5.865000 3.007716
v 23.228178 5.805000 2.881432
v 23.218340 5.815000 2.883223
v 23.226387 5.815000 2.871594
v 23.221222 5.807929 2.882698
v 23.221464 5.809227 2.876786
v 23.219955 5.815000 2.875741
v 23.226912 5.807929 2.874475
v 23.228178 5.875000 2.881432
v 23.226387 5.865000 2.871594
v 23.218340 5.865000 2.883223
v 23.226912 5.872071 2.874475
v 23.221464 5.870774 2.876786
v 23.219955 5.865000 2.875741
v 23.221222 5.872071 2.882698
v 26.771822 5.805000 2.358567
v 26.781660 5.815000 2.356777
v 26.773613 5.815000 2.368406
v 26.778778 5.807929 2.357302
v 26.778536 5.809227 2.363214
v 26.780045 5.815000 2.364259
v 26.773088 5.807929 2.365524
v 26.771822 5.875000 2.358567
v 26.773613 5.865000 2.368406
v 26.781660 5.865000 2.356777
v 26.773088 5.872071 2.365524
v 26.778536 5.870774 2.363214
v 26.780045 5.865000 2.364259
v 26.778778 5.872071 2.357302
v 26.750338 5.805000 2.240506
v 26.748549 5.815000 2.230668
v 26.760178 5.815000 2.238716
v 26.749073 5.807929 2.233550
v 26.754986 5.809227 2.233792
v 26.756029 5.815000 2.232284
v 26.757296 5.807929 2.239240
v 26.750338 5.875000 2.240506
v 26.760178 5.865000 2.238716
v 26.748549 5.865000 2.230668
v 26.757296 5.872071 2.239240
v 26.754986 5.870774 2.233792
v 26.756029 5.865000 2.232284
v 26.749073 5.872071 2.233550
vn -0.2616 -0.8881 0.3780
vn -0.1608 -0.3250 0.9319
vn -0.8155 -0.3250 0.4788
vn -0.1608 0.3250 0.9319
vn -0.2616 0.8881 0.3780
vn -0.8155 0.3250 0.4788
vn -0.3780 -0.8881 -0.2616
vn -0.9319 -0.3250 -0.1608
vn -0.4788 -0.3250 -0.8155
vn -0.3780 0.8881 -0.2616
vn -0.4788 0.3250 -0.8155
vn -0.9319 0.3250 -0.1608
vn 0.3780 -0.8881 0.2616
vn 0.9319 -0.3250 0.1608
vn 0.4788 -0.3250 0.8155
vn 0.3780 0.8881 0.2616
vn 0.4788 0.3250 0.8155
vn 0.9319 0.3250 0.1608
vn 0.2616 -0.8881 -0.3780
vn 0.1608 -0.3250 -0.9319
vn 0.8155 -0.3250 -0.4788
vn 0.2616 0.8881 -0.3780
vn 0.8155 0.3250 -0.4788
vn 0.1608 0.3250 -0.9319
vn -0.3765 -0.9239 0.0685
vn -0.9090 -0.3827 0.1654
vn -0.2111 -0.0000 0.9775
vn -0.8404 -0.0000 0.5419
vn -0.3765 0.9239 0.0685
vn -0.9090 0.3827 0.1654
vn -0.5419 -0.0000 -0.8404
vn -0.9775 -0.0000 -0.2111
vn -0.0685 -0.9239 -0.3765
vn -0.1654 -0.3827 -0.9090
vn -0.0685 0.9239 -0.3765
vn -0.1654 0.3827 -0.9090
vn 0.8404 -0.0000 -0.5419
vn 0.2111 -0.0000 -0.9775
vn 0.3765 -0.9239 -0.0685
vn 0.9090 -0.3827 -0.1654
vn 0.3765 0.9239 -0.0685
vn 0.9090 0.3827 -0.1654
vn 0.5419 -0.0000 0.8404
vn 0.9775 -0.0000 0.2111
vn 0.0685 -0.9239 0.3765
vn 0.1654 -0.3827 0.9090
vn 0.0685 0.9239 0.3765
vn 0.1654 0.3827 0.9090
vn -0.0000 -1.0000 -0.0000
vn -0.9838 -0.0000 0.1790
vn 0.1790 -0.0000 0.9838
vn -0.0000 1.0000 -0.0000
vn -0.1790 -0.0000 -0.9838
vn 0.9838 -0.0000 -0.1790
vt 0.125694 0.732143
vt 0.125694 0.750000
vt 0.125293 0.750000
vt 0.125000 0.732143
vt 0.410714 0.999306
vt 0.410714 1.000000
vt 0.390095 1.000000
vt 0.375000 0.999306
vt 0.410714 0.017857
vt 0.375000 0.017857
vt 0.375000 0.007547
vt 0.410714 0.000000
vt 0.589286 0.999306
vt 0.625000 0.999306
vt 0.625000 0.999707
vt 0.589286 1.000000
vt 0.874306 0.732143
vt 0.875000 0.732143
vt 0.875000 0.742453
vt 0.874306 0.750000
vt 0.589286 0.017857
vt 0.589286 0.000000
vt 0.609905 0.000000
vt 0.625000 0.017857
vt 0.125694 0.517857
vt 0.125000 0.517857
vt 0.125000 0.507547
vt 0.125694 0.500000
vt 0.410714 0.232143
vt 0.410714 0.250000
vt 0.382547 0.250147
vt 0.375000 0.232143
vt 0.410714 0.250694
vt 0.375000 0.250694
vt 0.874306 0.517857
vt 0.874306 0.500000
vt 0.874707 0.500000
vt 0.875000 0.517857
vt 0.589286 0.250694
vt 0.589286 0.250000
vt 0.617453 0.246226
vt 0.625000 0.250694
vt 0.589286 0.232143
vt 0.625000 0.232143
vt 0.374306 0.732143
vt 0.375000 0.732143
vt 0.380032 0.747582
vt 0.374653 0.750347
vt 0.410714 0.732143
vt 0.410714 0.750000
vt 0.410714 0.750695
vt 0.625694 0.732143
vt 0.625347 0.750347
vt 0.620066 0.747484
vt 0.625000 0.732143
vt 0.589286 0.750695
vt 0.589286 0.750000
vt 0.589286 0.732143
vt 0.374306 0.517857
vt 0.374653 0.499653
vt 0.379934 0.502516
vt 0.375000 0.517857
vt 0.410714 0.499306
vt 0.410714 0.500000
vt 0.410714 0.517857
vt 0.625694 0.517857
vt 0.625000 0.517857
vt 0.619968 0.502418
vt 0.625347 0.499653
vt 0.589286 0.517857
vt 0.589286 0.500000
vt 0.589286 0.499306
s 0
usemtl DL2_IceBlue
f 281/361/271 284/362/271 285/363/271 287/364/271
f 282/365/272 286/366/272 285/367/272 284/368/272
f 283/369/273 287/370/273 285/371/273 286/372/273
f 288/373/274 291/374/274 292/375/274 294/376/274
f 289/377/275 293/378/275 292/379/275 291/380/275
f 290/381/276 294/382/276 292/383/276 293/384/276
f 295/385/277 298/386/277 299/387/277 301/388/277
f 296/389/278 300/390/278 299/391/278 298/392/278
f 297/393/279 301/394/279 299/391/279 300/390/279
f 302/395/280 305/396/280 306/397/280 308/398/280
f 303/399/281 307/400/281 306/401/281 305/402/281
f 304/403/282 308/404/282 306/401/282 307/400/282
f 309/405/283 312/406/283 313/407/283 315/408/283
f 310/409/284 314/410/284 313/407/284 312/406/284
f 311/411/285 315/408/285 313/407/285 314/410/285
f 316/412/286 319/413/286 320/414/286 322/415/286
f 317/416/287 321/417/287 320/414/287 319/413/287
f 318/418/288 322/415/288 320/414/288 321/417/288
f 323/419/289 326/420/289 327/421/289 329/422/289
f 324/423/290 328/424/290 327/421/290 326/420/290
f 325/425/291 329/422/291 327/421/291 328/424/291
f 330/426/292 333/427/292 334/428/292 336/429/292
f 331/430/293 335/431/293 334/428/293 333/427/293
f 332/432/294 336/429/294 334/428/294 335/431/294
f 295/385/295 281/361/295 287/364/295 298/386/295
f 298/392/296 287/370/296 283/369/296 296/389/296
f 282/365/297 288/373/297 294/376/297 286/366/297
f 286/372/298 294/382/298 290/381/298 283/369/298
f 289/377/299 302/395/299 308/398/299 293/378/299
f 293/384/300 308/404/300 304/403/300 290/381/300
f 303/399/301 297/393/301 300/390/301 307/400/301
f 307/400/302 300/390/302 296/389/302 304/403/302
f 323/419/303 295/385/303 301/388/303 326/420/303
f 326/420/304 301/394/304 297/393/304 324/423/304
f 302/395/305 330/426/305 336/429/305 305/396/305
f 305/402/306 336/429/306 332/432/306 303/399/306
f 331/430/307 325/425/307 328/424/307 335/431/307
f 335/431/308 328/424/308 324/423/308 332/432/308
f 309/405/309 323/419/309 329/422/309 312/406/309
f 312/406/310 329/422/310 325/425/310 310/409/310
f 330/426/311 316/412/311 322/415/311 333/427/311
f 333/427/312 322/415/312 318/418/312 331/430/312
f 317/416/313 311/411/313 314/410/313 321/417/313
f 321/417/314 314/410/314 310/409/314 318/418/314
f 281/361/315 309/405/315 315/408/315 284/362/315
f 284/368/316 315/408/316 311/411/316 282/365/316
f 316/412/317 289/377/317 291/380/317 319/413/317
f 319/413/318 291/374/318 288/373/318 317/416/318
f 295/385/319 323/419/319 309/405/319 281/361/319
f 283/369/320 290/381/320 304/403/320 296/389/320
f 311/411/321 317/416/321 288/373/321 282/365/321
f 330/426/322 302/395/322 289/377/322 316/412/322
f 297/393/323 303/399/323 332/432/323 324/423/323
f 325/425/324 331/430/324 318/418/324 310/409/324
o DL_Bow_Crown_BlueChannel_1_0
v 16.228178 5.805000 -2.561432
v 16.226387 5.815000 -2.551594
v 16.218340 5.815000 -2.563223
v 16.226912 5.807929 -2.554476
v 16.221464 5.809227 -2.556786
v 16.219955 5.815000 -2.555741
v 16.221222 5.807929 -2.562698
v 16.226387 5.865000 -2.551594
v 16.228178 5.875000 -2.561432
v 16.218340 5.865000 -2.563223
v 16.226912 5.872071 -2.554476
v 16.221464 5.870774 -2.556786
v 16.221222 5.872071 -2.562698
v 16.219955 5.865000 -2.555741
v 16.249662 5.805000 -2.679493
v 16.239822 5.815000 -2.681284
v 16.251451 5.815000 -2.689332
v 16.242704 5.807929 -2.680759
v 16.245014 5.809227 -2.686207
v 16.243971 5.815000 -2.687716
v 16.250927 5.807929 -2.686450
v 16.249662 5.875000 -2.679493
v 16.251451 5.865000 -2.689332
v 16.239822 5.865000 -2.681284
v 16.250927 5.872071 -2.686450
v 16.245014 5.870774 -2.686207
v 16.243971 5.865000 -2.687716
v 16.242704 5.872071 -2.680759
v 19.750338 5.805000 -1.920506
v 19.760178 5.815000 -1.918716
v 19.748549 5.815000 -1.910668
v 19.757296 5.807929 -1.919240
v 19.754986 5.809227 -1.913792
v 19.756029 5.815000 -1.912284
v 19.749073 5.807929 -1.913550
v 19.750338 5.875000 -1.920506
v 19.748549 5.865000 -1.910668
v 19.760178 5.865000 -1.918716
v 19.749073 5.872071 -1.913550
v 19.754986 5.870774 -1.913792
v 19.756029 5.865000 -1.912284
v 19.757296 5.872071 -1.919240
v 19.771822 5.805000 -2.038568
v 19.773613 5.815000 -2.048406
v 19.781660 5.815000 -2.036777
v 19.773088 5.807929 -2.045524
v 19.778536 5.809227 -2.043214
v 19.780045 5.815000 -2.044259
v 19.778778 5.807929 -2.037302
v 19.771822 5.875000 -2.038568
v 19.781660 5.865000 -2.036777
v 19.773613 5.865000 -2.048406
v 19.778778 5.872071 -2.037302
v 19.778536 5.870774 -2.043214
v 19.780045 5.865000 -2.044259
v 19.773088 5.872071 -2.045524
vn -0.3780 -0.8881 0.2616
vn -0.4788 -0.3250 0.8155
vn -0.9319 -0.3250 0.1608
vn -0.4788 0.3250 0.8155
vn -0.3780 0.8881 0.2616
vn -0.9319 0.3250 0.1608
vn -0.2616 -0.8881 -0.3780
vn -0.8155 -0.3250 -0.4788
vn -0.1608 -0.3250 -0.9319
vn -0.2616 0.8881 -0.3780
vn -0.1608 0.3250 -0.9319
vn -0.8155 0.3250 -0.4788
vn 0.2616 -0.8881 0.3780
vn 0.8155 -0.3250 0.4788
vn 0.1608 -0.3250 0.9319
vn 0.2616 0.8881 0.3780
vn 0.1608 0.3250 0.9319
vn 0.8155 0.3250 0.4788
vn 0.3780 -0.8881 -0.2616
vn 0.4788 -0.3250 -0.8155
vn 0.9319 -0.3250 -0.1608
vn 0.3780 0.8881 -0.2616
vn 0.9319 0.3250 -0.1608
vn 0.4788 0.3250 -0.8155
vn -0.3765 -0.9239 -0.0685
vn -0.9090 -0.3827 -0.1654
vn -0.5419 -0.0000 0.8404
vn -0.9775 -0.0000 0.2111
vn -0.3765 0.9239 -0.0685
vn -0.9090 0.3827 -0.1654
vn -0.2111 -0.0000 -0.9775
vn -0.8404 -0.0000 -0.5419
vn 0.0685 -0.9239 -0.3765
vn 0.1654 -0.3827 -0.9090
vn 0.0685 0.9239 -0.3765
vn 0.1654 0.3827 -0.9090
vn 0.9775 -0.0000 -0.2111
vn 0.5419 -0.0000 -0.8404
vn 0.3765 -0.9239 0.0685
vn 0.9090 -0.3827 0.1654
vn 0.3765 0.9239 0.0685
vn 0.9090 0.3827 0.1654
vn 0.2111 -0.0000 0.9775
vn 0.8404 -0.0000 0.5419
vn -0.0685 -0.9239 0.3765
vn -0.1654 -0.3827 0.9090
vn -0.0685 0.9239 0.3765
vn -0.1654 0.3827 0.9090
vn -0.0000 -1.0000 -0.0000
vn -0.9838 -0.0000 -0.1790
vn -0.1790 -0.0000 0.9838
vn -0.0000 1.0000 -0.0000
vn 0.1790 -0.0000 -0.9838
vn 0.9838 -0.0000 0.1790
vt 0.125694 0.732143
vt 0.125694 0.750000
vt 0.125293 0.750000
vt 0.125000 0.732143
vt 0.410714 0.999306
vt 0.410714 1.000000
vt 0.390095 1.000000
vt 0.375000 0.999306
vt 0.410714 0.017857
vt 0.375000 0.017857
vt 0.375000 0.007547
vt 0.410714 0.000000
vt 0.589286 0.999306
vt 0.625000 0.999306
vt 0.625000 0.999707
vt 0.589286 1.000000
vt 0.874306 0.732143
vt 0.875000 0.732143
vt 0.875000 0.742453
vt 0.874306 0.750000
vt 0.589286 0.017857
vt 0.589286 0.000000
vt 0.609905 0.000000
vt 0.625000 0.017857
vt 0.125694 0.517857
vt 0.125000 0.517857
vt 0.125000 0.507547
vt 0.125694 0.500000
vt 0.410714 0.232143
vt 0.410714 0.250000
vt 0.382547 0.250147
vt 0.375000 0.232143
vt 0.410714 0.250694
vt 0.375000 0.250694
vt 0.874306 0.517857
vt 0.874306 0.500000
vt 0.874707 0.500000
vt 0.875000 0.517857
vt 0.589286 0.250694
vt 0.589286 0.250000
vt 0.617453 0.246226
vt 0.625000 0.250694
vt 0.589286 0.232143
vt 0.625000 0.232143
vt 0.374306 0.732143
vt 0.375000 0.732143
vt 0.380032 0.747582
vt 0.374653 0.750347
vt 0.410714 0.732143
vt 0.410714 0.750000
vt 0.410714 0.750695
vt 0.625694 0.732143
vt 0.625347 0.750347
vt 0.620066 0.747484
vt 0.625000 0.732143
vt 0.589286 0.750695
vt 0.589286 0.750000
vt 0.589286 0.732143
vt 0.374306 0.517857
vt 0.374653 0.499653
vt 0.379934 0.502516
vt 0.375000 0.517857
vt 0.410714 0.499306
vt 0.410714 0.500000
vt 0.410714 0.517857
vt 0.625694 0.517857
vt 0.625000 0.517857
vt 0.619968 0.502418
vt 0.625347 0.499653
vt 0.589286 0.517857
vt 0.589286 0.500000
vt 0.589286 0.499306
s 0
usemtl DL2_IceBlue
f 337/433/325 340/434/325 341/435/325 343/436/325
f 338/437/326 342/438/326 341/439/326 340/440/326
f 339/441/327 343/442/327 341/443/327 342/444/327
f 344/445/328 347/446/328 348/447/328 350/448/328
f 345/449/329 349/450/329 348/451/329 347/452/329
f 346/453/330 350/454/330 348/455/330 349/456/330
f 351/457/331 354/458/331 355/459/331 357/460/331
f 352/461/332 356/462/332 355/463/332 354/464/332
f 353/465/333 357/466/333 355/463/333 356/462/333
f 358/467/334 361/468/334 362/469/334 364/470/334
f 359/471/335 363/472/335 362/473/335 361/474/335
f 360/475/336 364/476/336 362/473/336 363/472/336
f 365/477/337 368/478/337 369/479/337 371/480/337
f 366/481/338 370/482/338 369/479/338 368/478/338
f 367/483/339 371/480/339 369/479/339 370/482/339
f 372/484/340 375/485/340 376/486/340 378/487/340
f 373/488/341 377/489/341 376/486/341 375/485/341
f 374/490/342 378/487/342 376/486/342 377/489/342
f 379/491/343 382/492/343 383/493/343 385/494/343
f 380/495/344 384/496/344 383/493/344 382/492/344
f 381/497/345 385/494/345 383/493/345 384/496/345
f 386/498/346 389/499/346 390/500/346 392/501/346
f 387/502/347 391/503/347 390/500/347 389/499/347
f 388/504/348 392/501/348 390/500/348 391/503/348
f 351/457/349 337/433/349 343/436/349 354/458/349
f 354/464/350 343/442/350 339/441/350 352/461/350
f 338/437/351 344/445/351 350/448/351 342/438/351
f 342/444/352 350/454/352 346/453/352 339/441/352
f 345/449/353 358/467/353 364/470/353 349/450/353
f 349/456/354 364/476/354 360/475/354 346/453/354
f 359/471/355 353/465/355 356/462/355 363/472/355
f 363/472/356 356/462/356 352/461/356 360/475/356
f 379/491/357 351/457/357 357/460/357 382/492/357
f 382/492/358 357/466/358 353/465/358 380/495/358
f 358/467/359 386/498/359 392/501/359 361/468/359
f 361/474/360 392/501/360 388/504/360 359/471/360
f 387/502/361 381/497/361 384/496/361 391/503/361
f 391/503/362 384/496/362 380/495/362 388/504/362
f 365/477/363 379/491/363 385/494/363 368/478/363
f 368/478/364 385/494/364 381/497/364 366/481/364
f 386/498/365 372/484/365 378/487/365 389/499/365
f 389/499/366 378/487/366 374/490/366 387/502/366
f 373/488/367 367/483/367 370/482/367 377/489/367
f 377/489/368 370/482/368 366/481/368 374/490/368
f 337/433/369 365/477/369 371/480/369 340/434/369
f 340/440/370 371/480/370 367/483/370 338/437/370
f 372/484/371 345/449/371 347/452/371 375/485/371
f 375/485/372 347/446/372 344/445/372 373/488/372
f 351/457/373 379/491/373 365/477/373 337/433/373
f 339/441/374 346/453/374 360/475/374 352/461/374
f 367/483/375 373/488/375 344/445/375 338/437/375
f 386/498/376 358/467/376 345/449/376 372/484/376
f 353/465/377 359/471/377 388/504/377 380/495/377
f 381/497/378 387/502/378 374/490/378 366/481/378
o DL_Bow_Crown_BlueChannel_1_1
v 23.228178 5.805000 -2.881432
v 23.226387 5.815000 -2.871594
v 23.218340 5.815000 -2.883223
v 23.226912 5.807929 -2.874475
v 23.221464 5.809227 -2.876786
v 23.219955 5.815000 -2.875741
v 23.221222 5.807929 -2.882698
v 23.226387 5.865000 -2.871594
v 23.228178 5.875000 -2.881432
v 23.218340 5.865000 -2.883223
v 23.226912 5.872071 -2.874475
v 23.221464 5.870774 -2.876786
v 23.221222 5.872071 -2.882698
v 23.219955 5.865000 -2.875741
v 23.249662 5.805000 -2.999493
v 23.239822 5.815000 -3.001284
v 23.251451 5.815000 -3.009332
v 23.242704 5.807929 -3.000759
v 23.245014 5.809227 -3.006207
v 23.243971 5.815000 -3.007716
v 23.250927 5.807929 -3.006450
v 23.249662 5.875000 -2.999493
v 23.251451 5.865000 -3.009332
v 23.239822 5.865000 -3.001284
v 23.250927 5.872071 -3.006450
v 23.245014 5.870774 -3.006207
v 23.243971 5.865000 -3.007716
v 23.242704 5.872071 -3.000759
v 26.750338 5.805000 -2.240506
v 26.760178 5.815000 -2.238716
v 26.748549 5.815000 -2.230668
v 26.757296 5.807929 -2.239240
v 26.754986 5.809227 -2.233792
v 26.756029 5.815000 -2.232284
v 26.749073 5.807929 -2.233550
v 26.750338 5.875000 -2.240506
v 26.748549 5.865000 -2.230668
v 26.760178 5.865000 -2.238716
v 26.749073 5.872071 -2.233550
v 26.754986 5.870774 -2.233792
v 26.756029 5.865000 -2.232284
v 26.757296 5.872071 -2.239240
v 26.771822 5.805000 -2.358567
v 26.773613 5.815000 -2.368406
v 26.781660 5.815000 -2.356777
v 26.773088 5.807929 -2.365524
v 26.778536 5.809227 -2.363214
v 26.780045 5.815000 -2.364259
v 26.778778 5.807929 -2.357302
v 26.771822 5.875000 -2.358567
v 26.781660 5.865000 -2.356777
v 26.773613 5.865000 -2.368406
v 26.778778 5.872071 -2.357302
v 26.778536 5.870774 -2.363214
v 26.780045 5.865000 -2.364259
v 26.773088 5.872071 -2.365524
vn -0.3780 -0.8881 0.2616
vn -0.4788 -0.3250 0.8155
vn -0.9319 -0.3250 0.1608
vn -0.4788 0.3250 0.8155
vn -0.3780 0.8881 0.2616
vn -0.9319 0.3250 0.1608
vn -0.2616 -0.8881 -0.3780
vn -0.8155 -0.3250 -0.4788
vn -0.1608 -0.3250 -0.9319
vn -0.2616 0.8881 -0.3780
vn -0.1608 0.3250 -0.9319
vn -0.8155 0.3250 -0.4788
vn 0.2616 -0.8881 0.3780
vn 0.8155 -0.3250 0.4788
vn 0.1608 -0.3250 0.9319
vn 0.2616 0.8881 0.3780
vn 0.1608 0.3250 0.9319
vn 0.8155 0.3250 0.4788
vn 0.3780 -0.8881 -0.2616
vn 0.4788 -0.3250 -0.8155
vn 0.9319 -0.3250 -0.1608
vn 0.3780 0.8881 -0.2616
vn 0.9319 0.3250 -0.1608
vn 0.4788 0.3250 -0.8155
vn -0.3765 -0.9239 -0.0685
vn -0.9090 -0.3827 -0.1654
vn -0.5419 -0.0000 0.8404
vn -0.9775 -0.0000 0.2111
vn -0.3765 0.9239 -0.0685
vn -0.9090 0.3827 -0.1654
vn -0.2111 -0.0000 -0.9775
vn -0.8404 -0.0000 -0.5419
vn 0.0685 -0.9239 -0.3765
vn 0.1654 -0.3827 -0.9090
vn 0.0685 0.9239 -0.3765
vn 0.1654 0.3827 -0.9090
vn 0.9775 -0.0000 -0.2111
vn 0.5419 -0.0000 -0.8404
vn 0.3765 -0.9239 0.0685
vn 0.9090 -0.3827 0.1654
vn 0.3765 0.9239 0.0685
vn 0.9090 0.3827 0.1654
vn 0.2111 -0.0000 0.9775
vn 0.8404 -0.0000 0.5419
vn -0.0685 -0.9239 0.3765
vn -0.1654 -0.3827 0.9090
vn -0.0685 0.9239 0.3765
vn -0.1654 0.3827 0.9090
vn -0.0000 -1.0000 -0.0000
vn -0.9838 -0.0000 -0.1790
vn -0.1790 -0.0000 0.9838
vn -0.0000 1.0000 -0.0000
vn 0.1790 -0.0000 -0.9838
vn 0.9838 -0.0000 0.1790
vt 0.125694 0.732143
vt 0.125694 0.750000
vt 0.125293 0.750000
vt 0.125000 0.732143
vt 0.410714 0.999306
vt 0.410714 1.000000
vt 0.390095 1.000000
vt 0.375000 0.999306
vt 0.410714 0.017857
vt 0.375000 0.017857
vt 0.375000 0.007547
vt 0.410714 0.000000
vt 0.589286 0.999306
vt 0.625000 0.999306
vt 0.625000 0.999707
vt 0.589286 1.000000
vt 0.874306 0.732143
vt 0.875000 0.732143
vt 0.875000 0.742453
vt 0.874306 0.750000
vt 0.589286 0.017857
vt 0.589286 0.000000
vt 0.609905 0.000000
vt 0.625000 0.017857
vt 0.125694 0.517857
vt 0.125000 0.517857
vt 0.125000 0.507547
vt 0.125694 0.500000
vt 0.410714 0.232143
vt 0.410714 0.250000
vt 0.382547 0.250147
vt 0.375000 0.232143
vt 0.410714 0.250694
vt 0.375000 0.250694
vt 0.874306 0.517857
vt 0.874306 0.500000
vt 0.874707 0.500000
vt 0.875000 0.517857
vt 0.589286 0.250694
vt 0.589286 0.250000
vt 0.617453 0.246226
vt 0.625000 0.250694
vt 0.589286 0.232143
vt 0.625000 0.232143
vt 0.374306 0.732143
vt 0.375000 0.732143
vt 0.380032 0.747582
vt 0.374653 0.750347
vt 0.410714 0.732143
vt 0.410714 0.750000
vt 0.410714 0.750695
vt 0.625694 0.732143
vt 0.625347 0.750347
vt 0.620066 0.747484
vt 0.625000 0.732143
vt 0.589286 0.750695
vt 0.589286 0.750000
vt 0.589286 0.732143
vt 0.374306 0.517857
vt 0.374653 0.499653
vt 0.379934 0.502516
vt 0.375000 0.517857
vt 0.410714 0.499306
vt 0.410714 0.500000
vt 0.410714 0.517857
vt 0.625694 0.517857
vt 0.625000 0.517857
vt 0.619968 0.502418
vt 0.625347 0.499653
vt 0.589286 0.517857
vt 0.589286 0.500000
vt 0.589286 0.499306
s 0
usemtl DL2_IceBlue
f 393/505/379 396/506/379 397/507/379 399/508/379
f 394/509/380 398/510/380 397/511/380 396/512/380
f 395/513/381 399/514/381 397/515/381 398/516/381
f 400/517/382 403/518/382 404/519/382 406/520/382
f 401/521/383 405/522/383 404/523/383 403/524/383
f 402/525/384 406/526/384 404/527/384 405/528/384
f 407/529/385 410/530/385 411/531/385 413/532/385
f 408/533/386 412/534/386 411/535/386 410/536/386
f 409/537/387 413/538/387 411/535/387 412/534/387
f 414/539/388 417/540/388 418/541/388 420/542/388
f 415/543/389 419/544/389 418/545/389 417/546/389
f 416/547/390 420/548/390 418/545/390 419/544/390
f 421/549/391 424/550/391 425/551/391 427/552/391
f 422/553/392 426/554/392 425/551/392 424/550/392
f 423/555/393 427/552/393 425/551/393 426/554/393
f 428/556/394 431/557/394 432/558/394 434/559/394
f 429/560/395 433/561/395 432/558/395 431/557/395
f 430/562/396 434/559/396 432/558/396 433/561/396
f 435/563/397 438/564/397 439/565/397 441/566/397
f 436/567/398 440/568/398 439/565/398 438/564/398
f 437/569/399 441/566/399 439/565/399 440/568/399
f 442/570/400 445/571/400 446/572/400 448/573/400
f 443/574/401 447/575/401 446/572/401 445/571/401
f 444/576/402 448/573/402 446/572/402 447/575/402
f 407/529/403 393/505/403 399/508/403 410/530/403
f 410/536/404 399/514/404 395/513/404 408/533/404
f 394/509/405 400/517/405 406/520/405 398/510/405
f 398/516/406 406/526/406 402/525/406 395/513/406
f 401/521/407 414/539/407 420/542/407 405/522/407
f 405/528/408 420/548/408 416/547/408 402/525/408
f 415/543/409 409/537/409 412/534/409 419/544/409
f 419/544/410 412/534/410 408/533/410 416/547/410
f 435/563/411 407/529/411 413/532/411 438/564/411
f 438/564/412 413/538/412 409/537/412 436/567/412
f 414/539/413 442/570/413 448/573/413 417/540/413
f 417/546/414 448/573/414 444/576/414 415/543/414
f 443/574/415 437/569/415 440/568/415 447/575/415
f 447/575/416 440/568/416 436/567/416 444/576/416
f 421/549/417 435/563/417 441/566/417 424/550/417
f 424/550/418 441/566/418 437/569/418 422/553/418
f 442/570/419 428/556/419 434/559/419 445/571/419
f 445/571/420 434/559/420 430/562/420 443/574/420
f 429/560/421 423/555/421 426/554/421 433/561/421
f 433/561/422 426/554/422 422/553/422 430/562/422
f 393/505/423 421/549/423 427/552/423 396/506/423
f 396/512/424 427/552/424 423/555/424 394/509/424
f 428/556/425 401/521/425 403/524/425 431/557/425
f 431/557/426 403/518/426 400/517/426 429/560/426
f 407/529/427 435/563/427 421/549/427 393/505/427
f 395/513/428 402/525/428 416/547/428 408/533/428
f 423/555/429 429/560/429 400/517/429 394/509/429
f 442/570/430 414/539/430 401/521/430 428/556/430
f 409/537/431 415/543/431 444/576/431 436/567/431
f 437/569/432 443/574/432 430/562/432 422/553/432
