# 命运之主低面数建模骨架（OBJ）。坐标：舰艏为 +X，舰艉为 -X，上方为 +Z。
# 此文件是 Blender 源资产，不直接被群星读取；完成细化、UV 与 LOD 后再导出游戏 .mesh。
mtllib destiny_lord_blockout.mtl

o Destiny_Lord_Main_Hull
usemtl Hull_Silver
v 18 0 0
v 8 8 3
v -14 7 2
v -22 0 0
v -14 -7 2
v 8 -8 3
v 8 8 -3
v -14 7 -2
v -14 -7 -2
v 8 -8 -3
f 1 2 3 4 5 6
f 7 10 9 8 3 2
f 1 6 10 7 2
f 1 7 8 4 3 2
f 1 5 9 10 6
f 4 8 9 5

# 左翼：大轮廓需保留为真实几何，表面细节在法线贴图完成。
o Destiny_Lord_Port_Wing
usemtl Hull_Silver
v 5 7 2
v -4 32 1
v -20 25 0
v -14 7 2
v 5 7 -2
v -4 32 -1
v -20 25 0
v -14 7 -2
f 11 12 13 14
f 15 18 17 16
f 11 15 16 12
f 12 16 17 13
f 13 17 18 14
f 14 18 15 11

# 右翼：与左翼保持镜像，方便在 Blender 中继续进行对称建模。
o Destiny_Lord_Starboard_Wing
usemtl Hull_Silver
v 5 -7 2
v -4 -32 1
v -20 -25 0
v -14 -7 2
v 5 -7 -2
v -4 -32 -1
v -20 -25 0
v -14 -7 -2
f 19 22 21 20
f 23 24 25 26
f 19 20 24 23
f 20 21 25 24
f 21 22 26 25
f 22 19 23 26

# 中央命运环：12 边低模环，后续以实例化晶体和自发光贴图丰富细节。
o Destiny_Lord_Fate_Ring
usemtl Emissive_IceBlue
v 0 0 15
v 0 7.5 13
v 0 13 7.5
v 0 15 0
v 0 13 -7.5
v 0 7.5 -13
v 0 0 -15
v 0 -7.5 -13
v 0 -13 -7.5
v 0 -15 0
v 0 -13 7.5
v 0 -7.5 13
v 0 0 11
v 0 5.5 9.5
v 0 9.5 5.5
v 0 11 0
v 0 9.5 -5.5
v 0 5.5 -9.5
v 0 0 -11
v 0 -5.5 -9.5
v 0 -9.5 -5.5
v 0 -11 0
v 0 -9.5 5.5
v 0 -5.5 9.5
f 27 28 40 39
f 28 29 41 40
f 29 30 42 41
f 30 31 43 42
f 31 32 44 43
f 32 33 45 44
f 33 34 46 45
f 34 35 47 46
f 35 36 48 47
f 36 37 49 48
f 37 38 50 49
f 38 27 39 50

# 双光环投射器占位：分别对应守望者矩阵与黑门压制场。
o Destiny_Lord_Aura_Projector_Port
usemtl Emissive_IceBlue
v -12 10 6
v -12 14 6
v -12 14 10
v -12 10 10
f 51 52 53 54
o Destiny_Lord_Aura_Projector_Starboard
usemtl Emissive_IceBlue
v -12 -10 6
v -12 -14 6
v -12 -14 10
v -12 -10 10
f 55 58 57 56

# 舰艉推进器占位：实际版本建议使用低面数圆柱并通过自发光贴图表现喷口。
o Destiny_Lord_Engine_Block
usemtl Engine_Blue
v -22 -5 -3
v -28 -5 -3
v -28 5 -3
v -22 5 -3
v -22 -5 3
v -28 -5 3
v -28 5 3
v -22 5 3
f 59 60 61 62
f 63 66 65 64
f 59 63 64 60
f 60 64 65 61
f 61 65 66 62
f 62 66 63 59
