# Blender 5.1.2
# www.blender.org
mtllib destiny_lord_stern_stage9_refined_A.mtl
o DL_Engine_-1_0
v -48.000000 0.000000 2.900000
v -42.000000 -0.000000 2.900000
v -48.000000 -0.940456 3.205573
v -42.000000 -0.940457 3.205573
v -48.000000 -1.521690 4.005573
v -42.000000 -1.521691 4.005573
v -48.000000 -1.521690 4.994427
v -42.000000 -1.521691 4.994427
v -48.000000 -0.940456 5.794427
v -42.000000 -0.940457 5.794427
v -48.000000 0.000000 6.100000
v -42.000000 -0.000000 6.100000
v -48.000000 0.940457 5.794427
v -42.000000 0.940456 5.794427
v -48.000000 1.521691 4.994427
v -42.000000 1.521690 4.994427
v -48.000000 1.521691 4.005573
v -42.000000 1.521690 4.005573
v -48.000000 0.940457 3.205573
v -42.000000 0.940456 3.205573
vn -0.0000 -0.3090 -0.9511
vn -0.0000 -0.8090 -0.5878
vn -0.0000 -1.0000 -0.0000
vn -0.0000 -0.8090 0.5878
vn -0.0000 -0.3090 0.9511
vn -0.0000 0.3090 0.9511
vn -0.0000 0.8090 0.5878
vn -0.0000 1.0000 -0.0000
vn 1.0000 -0.0000 -0.0000
vn -0.0000 0.8090 -0.5878
vn -0.0000 0.3090 -0.9511
vn -1.0000 -0.0000 -0.0000
vt 0.223537 0.376139
vt 0.223537 0.004554
vt 0.284777 0.004554
vt 0.284777 0.376139
vt 0.334322 0.004554
vt 0.334322 0.376139
vt 0.575676 0.376139
vt 0.575676 0.004554
vt 0.636916 0.004554
vt 0.636916 0.376139
vt 0.343431 0.376139
vt 0.343431 0.004554
vt 0.392975 0.004554
vt 0.392975 0.376139
vt 0.454216 0.004554
vt 0.454216 0.376139
vt 0.503760 0.004554
vt 0.503760 0.376139
vt 0.004554 0.376139
vt 0.004554 0.004554
vt 0.054099 0.004554
vt 0.054099 0.376139
vt 0.115339 0.004554
vt 0.115339 0.376139
vt 0.040551 0.564501
vt 0.004554 0.514956
vt 0.004554 0.453716
vt 0.040551 0.404171
vt 0.098794 0.385247
vt 0.157037 0.404171
vt 0.193033 0.453716
vt 0.193033 0.514957
vt 0.157037 0.564501
vt 0.098794 0.583425
vt 0.164884 0.004554
vt 0.164884 0.376139
vt 0.173992 0.376139
vt 0.173992 0.004554
vt 0.202142 0.514956
vt 0.202142 0.453716
vt 0.238138 0.404171
vt 0.296381 0.385247
vt 0.354624 0.404171
vt 0.390620 0.453716
vt 0.390620 0.514956
vt 0.354624 0.564501
vt 0.296381 0.583425
vt 0.238138 0.564501
s 0
usemtl DL2_IceBlue
f 1/1/1 2/2/1 4/3/1 3/4/1
f 3/4/2 4/3/2 6/5/2 5/6/2
f 5/7/3 6/8/3 8/9/3 7/10/3
f 7/11/4 8/12/4 10/13/4 9/14/4
f 9/14/5 10/13/5 12/15/5 11/16/5
f 11/16/6 12/15/6 14/17/6 13/18/6
f 13/19/7 14/20/7 16/21/7 15/22/7
f 15/22/8 16/21/8 18/23/8 17/24/8
f 4/25/9 2/26/9 20/27/9 18/28/9 16/29/9 14/30/9 12/31/9 10/32/9 8/33/9 6/34/9
f 17/24/10 18/23/10 20/35/10 19/36/10
f 19/37/11 20/38/11 2/2/11 1/1/11
f 1/39/12 3/40/12 5/41/12 7/42/12 9/43/12 11/44/12 13/45/12 15/46/12 17/47/12 19/48/12
o DL_Engine_-1_1
v -48.000000 0.000000 8.400000
v -42.000000 -0.000000 8.400000
v -48.000000 -0.940456 8.705573
v -42.000000 -0.940457 8.705573
v -48.000000 -1.521690 9.505573
v -42.000000 -1.521691 9.505573
v -48.000000 -1.521690 10.494427
v -42.000000 -1.521691 10.494427
v -48.000000 -0.940456 11.294427
v -42.000000 -0.940457 11.294427
v -48.000000 0.000000 11.600000
v -42.000000 -0.000000 11.600000
v -48.000000 0.940457 11.294427
v -42.000000 0.940456 11.294427
v -48.000000 1.521691 10.494427
v -42.000000 1.521690 10.494427
v -48.000000 1.521691 9.505573
v -42.000000 1.521690 9.505573
v -48.000000 0.940457 8.705573
v -42.000000 0.940456 8.705573
vn -0.0000 -0.3090 -0.9511
vn -0.0000 -0.8090 -0.5878
vn -0.0000 -1.0000 -0.0000
vn -0.0000 -0.8090 0.5878
vn -0.0000 -0.3090 0.9511
vn -0.0000 0.3090 0.9511
vn -0.0000 0.8090 0.5878
vn -0.0000 1.0000 -0.0000
vn 1.0000 -0.0000 -0.0000
vn -0.0000 0.8090 -0.5878
vn -0.0000 0.3090 -0.9511
vn -1.0000 -0.0000 -0.0000
vt 0.223537 0.376139
vt 0.223537 0.004554
vt 0.284777 0.004554
vt 0.284777 0.376139
vt 0.334322 0.004554
vt 0.334322 0.376139
vt 0.575676 0.376139
vt 0.575676 0.004554
vt 0.636916 0.004554
vt 0.636916 0.376139
vt 0.343431 0.376139
vt 0.343431 0.004554
vt 0.392975 0.004554
vt 0.392975 0.376139
vt 0.454216 0.004554
vt 0.454216 0.376139
vt 0.503760 0.004554
vt 0.503760 0.376139
vt 0.004554 0.376139
vt 0.004554 0.004554
vt 0.054099 0.004554
vt 0.054099 0.376139
vt 0.115339 0.004554
vt 0.115339 0.376139
vt 0.040551 0.564501
vt 0.004554 0.514956
vt 0.004554 0.453716
vt 0.040551 0.404171
vt 0.098794 0.385247
vt 0.157037 0.404171
vt 0.193033 0.453716
vt 0.193033 0.514957
vt 0.157037 0.564501
vt 0.098794 0.583425
vt 0.164884 0.004554
vt 0.164884 0.376139
vt 0.173992 0.376139
vt 0.173992 0.004554
vt 0.202142 0.514956
vt 0.202142 0.453716
vt 0.238138 0.404171
vt 0.296381 0.385247
vt 0.354624 0.404171
vt 0.390620 0.453716
vt 0.390620 0.514956
vt 0.354624 0.564501
vt 0.296381 0.583425
vt 0.238138 0.564501
s 0
usemtl DL2_IceBlue
f 21/49/13 22/50/13 24/51/13 23/52/13
f 23/52/14 24/51/14 26/53/14 25/54/14
f 25/55/15 26/56/15 28/57/15 27/58/15
f 27/59/16 28/60/16 30/61/16 29/62/16
f 29/62/17 30/61/17 32/63/17 31/64/17
f 31/64/18 32/63/18 34/65/18 33/66/18
f 33/67/19 34/68/19 36/69/19 35/70/19
f 35/70/20 36/69/20 38/71/20 37/72/20
f 24/73/21 22/74/21 40/75/21 38/76/21 36/77/21 34/78/21 32/79/21 30/80/21 28/81/21 26/82/21
f 37/72/22 38/71/22 40/83/22 39/84/22
f 39/85/23 40/86/23 22/50/23 21/49/23
f 21/87/24 23/88/24 25/89/24 27/90/24 29/91/24 31/92/24 33/93/24 35/94/24 37/95/24 39/96/24
o DL_Engine_1_0
v -48.000000 0.000000 -6.100000
v -42.000000 -0.000000 -6.100000
v -48.000000 -0.940456 -5.794427
v -42.000000 -0.940457 -5.794427
v -48.000000 -1.521690 -4.994427
v -42.000000 -1.521691 -4.994427
v -48.000000 -1.521690 -4.005573
v -42.000000 -1.521691 -4.005573
v -48.000000 -0.940456 -3.205573
v -42.000000 -0.940457 -3.205573
v -48.000000 0.000000 -2.900000
v -42.000000 -0.000000 -2.900000
v -48.000000 0.940457 -3.205573
v -42.000000 0.940456 -3.205573
v -48.000000 1.521691 -4.005573
v -42.000000 1.521690 -4.005573
v -48.000000 1.521691 -4.994427
v -42.000000 1.521690 -4.994427
v -48.000000 0.940457 -5.794427
v -42.000000 0.940456 -5.794427
vn -0.0000 -0.3090 -0.9511
vn -0.0000 -0.8090 -0.5878
vn -0.0000 -1.0000 -0.0000
vn -0.0000 -0.8090 0.5878
vn -0.0000 -0.3090 0.9511
vn -0.0000 0.3090 0.9511
vn -0.0000 0.8090 0.5878
vn -0.0000 1.0000 -0.0000
vn 1.0000 -0.0000 -0.0000
vn -0.0000 0.8090 -0.5878
vn -0.0000 0.3090 -0.9511
vn -1.0000 -0.0000 -0.0000
vt 0.223537 0.376139
vt 0.223537 0.004554
vt 0.284777 0.004554
vt 0.284777 0.376139
vt 0.334322 0.004554
vt 0.334322 0.376139
vt 0.575676 0.376139
vt 0.575676 0.004554
vt 0.636916 0.004554
vt 0.636916 0.376139
vt 0.343431 0.376139
vt 0.343431 0.004554
vt 0.392975 0.004554
vt 0.392975 0.376139
vt 0.454216 0.004554
vt 0.454216 0.376139
vt 0.503760 0.004554
vt 0.503760 0.376139
vt 0.004554 0.376139
vt 0.004554 0.004554
vt 0.054099 0.004554
vt 0.054099 0.376139
vt 0.115339 0.004554
vt 0.115339 0.376139
vt 0.040551 0.564501
vt 0.004554 0.514956
vt 0.004554 0.453716
vt 0.040551 0.404171
vt 0.098794 0.385247
vt 0.157037 0.404171
vt 0.193033 0.453716
vt 0.193033 0.514957
vt 0.157037 0.564501
vt 0.098794 0.583425
vt 0.164884 0.004554
vt 0.164884 0.376139
vt 0.173992 0.376139
vt 0.173992 0.004554
vt 0.202142 0.514956
vt 0.202142 0.453716
vt 0.238138 0.404171
vt 0.296381 0.385247
vt 0.354624 0.404171
vt 0.390620 0.453716
vt 0.390620 0.514956
vt 0.354624 0.564501
vt 0.296381 0.583425
vt 0.238138 0.564501
s 0
usemtl DL2_IceBlue
f 41/97/25 42/98/25 44/99/25 43/100/25
f 43/100/26 44/99/26 46/101/26 45/102/26
f 45/103/27 46/104/27 48/105/27 47/106/27
f 47/107/28 48/108/28 50/109/28 49/110/28
f 49/110/29 50/109/29 52/111/29 51/112/29
f 51/112/30 52/111/30 54/113/30 53/114/30
f 53/115/31 54/116/31 56/117/31 55/118/31
f 55/118/32 56/117/32 58/119/32 57/120/32
f 44/121/33 42/122/33 60/123/33 58/124/33 56/125/33 54/126/33 52/127/33 50/128/33 48/129/33 46/130/33
f 57/120/34 58/119/34 60/131/34 59/132/34
f 59/133/35 60/134/35 42/98/35 41/97/35
f 41/135/36 43/136/36 45/137/36 47/138/36 49/139/36 51/140/36 53/141/36 55/142/36 57/143/36 59/144/36
o DL_Engine_1_1
v -48.000000 0.000000 -11.600000
v -42.000000 -0.000000 -11.600000
v -48.000000 -0.940456 -11.294427
v -42.000000 -0.940457 -11.294427
v -48.000000 -1.521690 -10.494427
v -42.000000 -1.521691 -10.494427
v -48.000000 -1.521690 -9.505573
v -42.000000 -1.521691 -9.505573
v -48.000000 -0.940456 -8.705573
v -42.000000 -0.940457 -8.705573
v -48.000000 0.000000 -8.400000
v -42.000000 -0.000000 -8.400000
v -48.000000 0.940457 -8.705573
v -42.000000 0.940456 -8.705573
v -48.000000 1.521691 -9.505573
v -42.000000 1.521690 -9.505573
v -48.000000 1.521691 -10.494427
v -42.000000 1.521690 -10.494427
v -48.000000 0.940457 -11.294427
v -42.000000 0.940456 -11.294427
vn -0.0000 -0.3090 -0.9511
vn -0.0000 -0.8090 -0.5878
vn -0.0000 -1.0000 -0.0000
vn -0.0000 -0.8090 0.5878
vn -0.0000 -0.3090 0.9511
vn -0.0000 0.3090 0.9511
vn -0.0000 0.8090 0.5878
vn -0.0000 1.0000 -0.0000
vn 1.0000 -0.0000 -0.0000
vn -0.0000 0.8090 -0.5878
vn -0.0000 0.3090 -0.9511
vn -1.0000 -0.0000 -0.0000
vt 0.223537 0.376139
vt 0.223537 0.004554
vt 0.284777 0.004554
vt 0.284777 0.376139
vt 0.334322 0.004554
vt 0.334322 0.376139
vt 0.575676 0.376139
vt 0.575676 0.004554
vt 0.636916 0.004554
vt 0.636916 0.376139
vt 0.343431 0.376139
vt 0.343431 0.004554
vt 0.392975 0.004554
vt 0.392975 0.376139
vt 0.454216 0.004554
vt 0.454216 0.376139
vt 0.503760 0.004554
vt 0.503760 0.376139
vt 0.004554 0.376139
vt 0.004554 0.004554
vt 0.054099 0.004554
vt 0.054099 0.376139
vt 0.115339 0.004554
vt 0.115339 0.376139
vt 0.040551 0.564501
vt 0.004554 0.514956
vt 0.004554 0.453716
vt 0.040551 0.404171
vt 0.098794 0.385247
vt 0.157037 0.404171
vt 0.193033 0.453716
vt 0.193033 0.514957
vt 0.157037 0.564501
vt 0.098794 0.583425
vt 0.164884 0.004554
vt 0.164884 0.376139
vt 0.173992 0.376139
vt 0.173992 0.004554
vt 0.202142 0.514956
vt 0.202142 0.453716
vt 0.238138 0.404171
vt 0.296381 0.385247
vt 0.354624 0.404171
vt 0.390620 0.453716
vt 0.390620 0.514956
vt 0.354624 0.564501
vt 0.296381 0.583425
vt 0.238138 0.564501
s 0
usemtl DL2_IceBlue
f 61/145/37 62/146/37 64/147/37 63/148/37
f 63/148/38 64/147/38 66/149/38 65/150/38
f 65/151/39 66/152/39 68/153/39 67/154/39
f 67/155/40 68/156/40 70/157/40 69/158/40
f 69/158/41 70/157/41 72/159/41 71/160/41
f 71/160/42 72/159/42 74/161/42 73/162/42
f 73/163/43 74/164/43 76/165/43 75/166/43
f 75/166/44 76/165/44 78/167/44 77/168/44
f 64/169/45 62/170/45 80/171/45 78/172/45 76/173/45 74/174/45 72/175/45 70/176/45 68/177/45 66/178/45
f 77/168/46 78/167/46 80/179/46 79/180/46
f 79/181/47 80/182/47 62/146/47 61/145/47
f 61/183/48 63/184/48 65/185/48 67/186/48 69/187/48 71/188/48 73/189/48 75/190/48 77/191/48 79/192/48
