# Blender 5.1.2
# www.blender.org
mtllib destiny_lord_bow_stage9_refined_A.mtl
o DL_Bow_Crown_Plate
v 33.799999 4.930000 3.100000
v 33.799999 5.030000 3.200000
v 33.700001 5.030000 3.100000
v 33.799999 4.959289 3.170711
v 33.742264 4.972265 3.157735
v 33.729290 5.030000 3.170711
v 33.729290 4.959289 3.100000
v 33.799999 5.670000 3.200000
v 33.799999 5.770000 3.100000
v 33.700001 5.670000 3.100000
v 33.799999 5.740711 3.170711
v 33.742264 5.727735 3.157735
v 33.729290 5.740711 3.100000
v 33.729290 5.670000 3.170711
v 33.799999 4.930000 -3.100000
v 33.700001 5.030000 -3.100000
v 33.799999 5.030000 -3.200000
v 33.729290 4.959289 -3.100000
v 33.742264 4.972265 -3.157735
v 33.729290 5.030000 -3.170711
v 33.799999 4.959289 -3.170711
v 33.799999 5.770000 -3.100000
v 33.799999 5.670000 -3.200000
v 33.700001 5.670000 -3.100000
v 33.799999 5.740711 -3.170711
v 33.742264 5.727735 -3.157735
v 33.729290 5.670000 -3.170711
v 33.729290 5.740711 -3.100000
v 45.200001 4.930000 3.100000
v 45.299999 5.030000 3.100000
v 45.200001 5.030000 3.200000
v 45.270710 4.959289 3.100000
v 45.257736 4.972265 3.157735
v 45.270710 5.030000 3.170711
v 45.200001 4.959289 3.170711
v 45.200001 5.770000 3.100000
v 45.200001 5.670000 3.200000
v 45.299999 5.670000 3.100000
v 45.200001 5.740711 3.170711
v 45.257736 5.727735 3.157735
v 45.270710 5.670000 3.170711
v 45.270710 5.740711 3.100000
v 45.200001 4.930000 -3.100000
v 45.200001 5.030000 -3.200000
v 45.299999 5.030000 -3.100000
v 45.200001 4.959289 -3.170711
v 45.257736 4.972265 -3.157735
v 45.270710 5.030000 -3.170711
v 45.270710 4.959289 -3.100000
v 45.200001 5.770000 -3.100000
v 45.299999 5.670000 -3.100000
v 45.200001 5.670000 -3.200000
v 45.270710 5.740711 -3.100000
v 45.257736 5.727735 -3.157735
v 45.270710 5.670000 -3.170711
v 45.200001 5.740711 -3.170711
vn -0.3251 -0.8881 0.3251
vn -0.3251 -0.3251 0.8881
vn -0.8881 -0.3251 0.3251
vn -0.3251 0.3251 0.8881
vn -0.3251 0.8881 0.3251
vn -0.8881 0.3251 0.3251
vn -0.3251 -0.8881 -0.3251
vn -0.8881 -0.3251 -0.3251
vn -0.3251 -0.3251 -0.8881
vn -0.3251 0.8881 -0.3251
vn -0.3251 0.3251 -0.8881
vn -0.8881 0.3251 -0.3251
vn 0.3251 -0.8881 0.3251
vn 0.8881 -0.3251 0.3251
vn 0.3251 -0.3251 0.8881
vn 0.3251 0.8881 0.3251
vn 0.3251 0.3251 0.8881
vn 0.8881 0.3251 0.3251
vn 0.3251 -0.8881 -0.3251
vn 0.3251 -0.3251 -0.8881
vn 0.8881 -0.3251 -0.3251
vn 0.3251 0.8881 -0.3251
vn 0.8881 0.3251 -0.3251
vn 0.3251 0.3251 -0.8881
vn -0.3827 -0.9239 -0.0000
vn -0.9239 -0.3827 -0.0000
vn -0.3827 -0.0000 0.9239
vn -0.9239 -0.0000 0.3827
vn -0.3827 0.9239 -0.0000
vn -0.9239 0.3827 -0.0000
vn -0.3827 -0.0000 -0.9239
vn -0.9239 -0.0000 -0.3827
vn -0.0000 -0.9239 -0.3827
vn -0.0000 -0.3827 -0.9239
vn -0.0000 0.9239 -0.3827
vn -0.0000 0.3827 -0.9239
vn 0.9239 -0.0000 -0.3827
vn 0.3827 -0.0000 -0.9239
vn 0.3827 -0.9239 -0.0000
vn 0.9239 -0.3827 -0.0000
vn 0.3827 0.9239 -0.0000
vn 0.9239 0.3827 -0.0000
vn 0.3827 -0.0000 0.9239
vn 0.9239 -0.0000 0.3827
vn -0.0000 -0.9239 0.3827
vn -0.0000 -0.3827 0.9239
vn -0.0000 0.9239 0.3827
vn -0.0000 0.3827 0.9239
vn -0.0000 -1.0000 -0.0000
vn -1.0000 -0.0000 -0.0000
vn -0.0000 -0.0000 1.0000
vn -0.0000 1.0000 -0.0000
vn -0.0000 -0.0000 -1.0000
vn 1.0000 -0.0000 -0.0000
vt 0.127155 0.746094
vt 0.127155 0.750000
vt 0.125911 0.750000
vt 0.125000 0.746094
vt 0.404762 0.997845
vt 0.404762 1.000000
vt 0.387579 1.000000
vt 0.375000 0.997845
vt 0.404762 0.003906
vt 0.375000 0.003906
vt 0.375000 0.001651
vt 0.404762 0.000000
vt 0.595238 0.997845
vt 0.625000 0.997845
vt 0.625000 0.999089
vt 0.595238 1.000000
vt 0.872845 0.746094
vt 0.875000 0.746094
vt 0.875000 0.748349
vt 0.872845 0.750000
vt 0.595238 0.003906
vt 0.595238 0.000000
vt 0.612421 0.000000
vt 0.625000 0.003906
vt 0.127155 0.503906
vt 0.125000 0.503906
vt 0.125000 0.501651
vt 0.127155 0.500000
vt 0.404762 0.246094
vt 0.404762 0.250000
vt 0.381289 0.250455
vt 0.375000 0.246094
vt 0.404762 0.252155
vt 0.375000 0.252155
vt 0.872845 0.503906
vt 0.872845 0.500000
vt 0.874089 0.500000
vt 0.875000 0.503906
vt 0.595238 0.252155
vt 0.595238 0.250000
vt 0.618711 0.249175
vt 0.625000 0.252155
vt 0.595238 0.246094
vt 0.625000 0.246094
vt 0.372845 0.746094
vt 0.375000 0.746094
vt 0.379193 0.749753
vt 0.373922 0.751078
vt 0.404762 0.746094
vt 0.404762 0.750000
vt 0.404762 0.752155
vt 0.627155 0.746094
vt 0.626078 0.751078
vt 0.621111 0.749450
vt 0.625000 0.746094
vt 0.595238 0.752155
vt 0.595238 0.750000
vt 0.595238 0.746094
vt 0.372845 0.503906
vt 0.373922 0.498922
vt 0.378889 0.500550
vt 0.375000 0.503906
vt 0.404762 0.497845
vt 0.404762 0.500000
vt 0.404762 0.503906
vt 0.627155 0.503906
vt 0.625000 0.503906
vt 0.620807 0.500247
vt 0.626078 0.498922
vt 0.595238 0.503906
vt 0.595238 0.500000
vt 0.595238 0.497845
s 0
usemtl DL2_Hull_Silver
f 1/1/1 4/2/1 5/3/1 7/4/1
f 2/5/2 6/6/2 5/7/2 4/8/2
f 3/9/3 7/10/3 5/11/3 6/12/3
f 8/13/4 11/14/4 12/15/4 14/16/4
f 9/17/5 13/18/5 12/19/5 11/20/5
f 10/21/6 14/22/6 12/23/6 13/24/6
f 15/25/7 18/26/7 19/27/7 21/28/7
f 16/29/8 20/30/8 19/31/8 18/32/8
f 17/33/9 21/34/9 19/31/9 20/30/9
f 22/35/10 25/36/10 26/37/10 28/38/10
f 23/39/11 27/40/11 26/41/11 25/42/11
f 24/43/12 28/44/12 26/41/12 27/40/12
f 29/45/13 32/46/13 33/47/13 35/48/13
f 30/49/14 34/50/14 33/47/14 32/46/14
f 31/51/15 35/48/15 33/47/15 34/50/15
f 36/52/16 39/53/16 40/54/16 42/55/16
f 37/56/17 41/57/17 40/54/17 39/53/17
f 38/58/18 42/55/18 40/54/18 41/57/18
f 43/59/19 46/60/19 47/61/19 49/62/19
f 44/63/20 48/64/20 47/61/20 46/60/20
f 45/65/21 49/62/21 47/61/21 48/64/21
f 50/66/22 53/67/22 54/68/22 56/69/22
f 51/70/23 55/71/23 54/68/23 53/67/23
f 52/72/24 56/69/24 54/68/24 55/71/24
f 15/25/25 1/1/25 7/4/25 18/26/25
f 18/32/26 7/10/26 3/9/26 16/29/26
f 2/5/27 8/13/27 14/16/27 6/6/27
f 6/12/28 14/22/28 10/21/28 3/9/28
f 9/17/29 22/35/29 28/38/29 13/18/29
f 13/24/30 28/44/30 24/43/30 10/21/30
f 23/39/31 17/33/31 20/30/31 27/40/31
f 27/40/32 20/30/32 16/29/32 24/43/32
f 43/59/33 15/25/33 21/28/33 46/60/33
f 46/60/34 21/34/34 17/33/34 44/63/34
f 22/35/35 50/66/35 56/69/35 25/36/35
f 25/42/36 56/69/36 52/72/36 23/39/36
f 51/70/37 45/65/37 48/64/37 55/71/37
f 55/71/38 48/64/38 44/63/38 52/72/38
f 29/45/39 43/59/39 49/62/39 32/46/39
f 32/46/40 49/62/40 45/65/40 30/49/40
f 50/66/41 36/52/41 42/55/41 53/67/41
f 53/67/42 42/55/42 38/58/42 51/70/42
f 37/56/43 31/51/43 34/50/43 41/57/43
f 41/57/44 34/50/44 30/49/44 38/58/44
f 1/1/45 29/45/45 35/48/45 4/2/45
f 4/8/46 35/48/46 31/51/46 2/5/46
f 36/52/47 9/17/47 11/20/47 39/53/47
f 39/53/48 11/14/48 8/13/48 37/56/48
f 15/25/49 43/59/49 29/45/49 1/1/49
f 3/9/50 10/21/50 24/43/50 16/29/50
f 31/51/51 37/56/51 8/13/51 2/5/51
f 50/66/52 22/35/52 9/17/52 36/52/52
f 17/33/53 23/39/53 52/72/53 44/63/53
f 45/65/54 51/70/54 38/58/54 30/49/54
o DL_Center_Ridge_Fwd
v 7.660000 4.920000 1.640000
v 7.660000 4.980000 1.700000
v 7.600000 4.980000 1.640000
v 7.660000 4.937573 1.682427
v 7.625359 4.945359 1.674641
v 7.617573 4.980000 1.682427
v 7.617573 4.937573 1.640000
v 7.660000 5.420000 1.700000
v 7.660000 5.480000 1.640000
v 7.600000 5.420000 1.640000
v 7.660000 5.462426 1.682427
v 7.625359 5.454641 1.674641
v 7.617573 5.462426 1.640000
v 7.617573 5.420000 1.682427
v 7.660000 4.920000 -1.640000
v 7.600000 4.980000 -1.640000
v 7.660000 4.980000 -1.700000
v 7.617573 4.937573 -1.640000
v 7.625359 4.945359 -1.674641
v 7.617573 4.980000 -1.682427
v 7.660000 4.937573 -1.682427
v 7.660000 5.480000 -1.640000
v 7.660000 5.420000 -1.700000
v 7.600000 5.420000 -1.640000
v 7.660000 5.462426 -1.682427
v 7.625359 5.454641 -1.674641
v 7.617573 5.420000 -1.682427
v 7.617573 5.462426 -1.640000
v 18.340000 4.920000 1.640000
v 18.400000 4.980000 1.640000
v 18.340000 4.980000 1.700000
v 18.382427 4.937573 1.640000
v 18.374641 4.945359 1.674641
v 18.382427 4.980000 1.682427
v 18.340000 4.937573 1.682427
v 18.340000 5.480000 1.640000
v 18.340000 5.420000 1.700000
v 18.400000 5.420000 1.640000
v 18.340000 5.462426 1.682427
v 18.374641 5.454641 1.674641
v 18.382427 5.420000 1.682427
v 18.382427 5.462426 1.640000
v 18.340000 4.920000 -1.640000
v 18.340000 4.980000 -1.700000
v 18.400000 4.980000 -1.640000
v 18.340000 4.937573 -1.682427
v 18.374641 4.945359 -1.674641
v 18.382427 4.980000 -1.682427
v 18.382427 4.937573 -1.640000
v 18.340000 5.480000 -1.640000
v 18.400000 5.420000 -1.640000
v 18.340000 5.420000 -1.700000
v 18.382427 5.462426 -1.640000
v 18.374641 5.454641 -1.674641
v 18.382427 5.420000 -1.682427
v 18.340000 5.462426 -1.682427
vn -0.3251 -0.8881 0.3251
vn -0.3251 -0.3251 0.8881
vn -0.8881 -0.3251 0.3251
vn -0.3251 0.3251 0.8881
vn -0.3251 0.8881 0.3251
vn -0.8881 0.3251 0.3251
vn -0.3251 -0.8881 -0.3251
vn -0.8881 -0.3251 -0.3251
vn -0.3251 -0.3251 -0.8881
vn -0.3251 0.8881 -0.3251
vn -0.3251 0.3251 -0.8881
vn -0.8881 0.3251 -0.3251
vn 0.3251 -0.8881 0.3251
vn 0.8881 -0.3251 0.3251
vn 0.3251 -0.3251 0.8881
vn 0.3251 0.8881 0.3251
vn 0.3251 0.3251 0.8881
vn 0.8881 0.3251 0.3251
vn 0.3251 -0.8881 -0.3251
vn 0.3251 -0.3251 -0.8881
vn 0.8881 -0.3251 -0.3251
vn 0.3251 0.8881 -0.3251
vn 0.8881 0.3251 -0.3251
vn 0.3251 0.3251 -0.8881
vn -0.3827 -0.9239 -0.0000
vn -0.9239 -0.3827 -0.0000
vn -0.3827 -0.0000 0.9239
vn -0.9239 -0.0000 0.3827
vn -0.3827 0.9239 -0.0000
vn -0.9239 0.3827 -0.0000
vn -0.3827 -0.0000 -0.9239
vn -0.9239 -0.0000 -0.3827
vn -0.0000 -0.9239 -0.3827
vn -0.0000 -0.3827 -0.9239
vn -0.0000 0.9239 -0.3827
vn -0.0000 0.3827 -0.9239
vn 0.9239 -0.0000 -0.3827
vn 0.3827 -0.0000 -0.9239
vn 0.3827 -0.9239 -0.0000
vn 0.9239 -0.3827 -0.0000
vn 0.3827 0.9239 -0.0000
vn 0.9239 0.3827 -0.0000
vn 0.3827 -0.0000 0.9239
vn 0.9239 -0.0000 0.3827
vn -0.0000 -0.9239 0.3827
vn -0.0000 -0.3827 0.9239
vn -0.0000 0.9239 0.3827
vn -0.0000 0.3827 0.9239
vn -0.0000 -1.0000 -0.0000
vn -1.0000 -0.0000 -0.0000
vn -0.0000 -0.0000 1.0000
vn -0.0000 1.0000 -0.0000
vn -0.0000 -0.0000 -1.0000
vn 1.0000 -0.0000 -0.0000
vt 0.126389 0.745588
vt 0.126389 0.750000
vt 0.125587 0.750000
vt 0.125000 0.745588
vt 0.401786 0.998611
vt 0.401786 1.000000
vt 0.386321 1.000000
vt 0.375000 0.998611
vt 0.401786 0.004412
vt 0.375000 0.004412
vt 0.375000 0.001865
vt 0.401786 0.000000
vt 0.598214 0.998611
vt 0.625000 0.998611
vt 0.625000 0.999413
vt 0.598214 1.000000
vt 0.873611 0.745588
vt 0.875000 0.745588
vt 0.875000 0.748135
vt 0.873611 0.750000
vt 0.598214 0.004412
vt 0.598214 0.000000
vt 0.613679 0.000000
vt 0.625000 0.004412
vt 0.126389 0.504412
vt 0.125000 0.504412
vt 0.125000 0.501865
vt 0.126389 0.500000
vt 0.401786 0.245588
vt 0.401786 0.250000
vt 0.380660 0.250293
vt 0.375000 0.245588
vt 0.401786 0.251389
vt 0.375000 0.251389
vt 0.873611 0.504412
vt 0.873611 0.500000
vt 0.874413 0.500000
vt 0.875000 0.504412
vt 0.598214 0.251389
vt 0.598214 0.250000
vt 0.619339 0.249068
vt 0.625000 0.251389
vt 0.598214 0.245588
vt 0.625000 0.245588
vt 0.373611 0.745588
vt 0.375000 0.745588
vt 0.378774 0.749574
vt 0.374306 0.750695
vt 0.401786 0.745588
vt 0.401786 0.750000
vt 0.401786 0.751389
vt 0.626389 0.745588
vt 0.625694 0.750695
vt 0.621422 0.749379
vt 0.625000 0.745588
vt 0.598214 0.751389
vt 0.598214 0.750000
vt 0.598214 0.745588
vt 0.373611 0.504412
vt 0.374306 0.499306
vt 0.378578 0.500622
vt 0.375000 0.504412
vt 0.401786 0.498611
vt 0.401786 0.500000
vt 0.401786 0.504412
vt 0.626389 0.504412
vt 0.625000 0.504412
vt 0.621226 0.500426
vt 0.625694 0.499306
vt 0.598214 0.504412
vt 0.598214 0.500000
vt 0.598214 0.498611
s 0
usemtl DL2_Armor_Indigo
f 57/73/55 60/74/55 61/75/55 63/76/55
f 58/77/56 62/78/56 61/79/56 60/80/56
f 59/81/57 63/82/57 61/83/57 62/84/57
f 64/85/58 67/86/58 68/87/58 70/88/58
f 65/89/59 69/90/59 68/91/59 67/92/59
f 66/93/60 70/94/60 68/95/60 69/96/60
f 71/97/61 74/98/61 75/99/61 77/100/61
f 72/101/62 76/102/62 75/103/62 74/104/62
f 73/105/63 77/106/63 75/103/63 76/102/63
f 78/107/64 81/108/64 82/109/64 84/110/64
f 79/111/65 83/112/65 82/113/65 81/114/65
f 80/115/66 84/116/66 82/113/66 83/112/66
f 85/117/67 88/118/67 89/119/67 91/120/67
f 86/121/68 90/122/68 89/119/68 88/118/68
f 87/123/69 91/120/69 89/119/69 90/122/69
f 92/124/70 95/125/70 96/126/70 98/127/70
f 93/128/71 97/129/71 96/126/71 95/125/71
f 94/130/72 98/127/72 96/126/72 97/129/72
f 99/131/73 102/132/73 103/133/73 105/134/73
f 100/135/74 104/136/74 103/133/74 102/132/74
f 101/137/75 105/134/75 103/133/75 104/136/75
f 106/138/76 109/139/76 110/140/76 112/141/76
f 107/142/77 111/143/77 110/140/77 109/139/77
f 108/144/78 112/141/78 110/140/78 111/143/78
f 71/97/79 57/73/79 63/76/79 74/98/79
f 74/104/80 63/82/80 59/81/80 72/101/80
f 58/77/81 64/85/81 70/88/81 62/78/81
f 62/84/82 70/94/82 66/93/82 59/81/82
f 65/89/83 78/107/83 84/110/83 69/90/83
f 69/96/84 84/116/84 80/115/84 66/93/84
f 79/111/85 73/105/85 76/102/85 83/112/85
f 83/112/86 76/102/86 72/101/86 80/115/86
f 99/131/87 71/97/87 77/100/87 102/132/87
f 102/132/88 77/106/88 73/105/88 100/135/88
f 78/107/89 106/138/89 112/141/89 81/108/89
f 81/114/90 112/141/90 108/144/90 79/111/90
f 107/142/91 101/137/91 104/136/91 111/143/91
f 111/143/92 104/136/92 100/135/92 108/144/92
f 85/117/93 99/131/93 105/134/93 88/118/93
f 88/118/94 105/134/94 101/137/94 86/121/94
f 106/138/95 92/124/95 98/127/95 109/139/95
f 109/139/96 98/127/96 94/130/96 107/142/96
f 93/128/97 87/123/97 90/122/97 97/129/97
f 97/129/98 90/122/98 86/121/98 94/130/98
f 57/73/99 85/117/99 91/120/99 60/74/99
f 60/80/100 91/120/100 87/123/100 58/77/100
f 92/124/101 65/89/101 67/92/101 95/125/101
f 95/125/102 67/86/102 64/85/102 93/128/102
f 71/97/103 99/131/103 85/117/103 57/73/103
f 59/81/104 66/93/104 80/115/104 72/101/104
f 87/123/105 93/128/105 64/85/105 58/77/105
f 106/138/106 78/107/106 65/89/106 92/124/106
f 73/105/107 79/111/107 108/144/107 100/135/107
f 101/137/108 107/142/108 94/130/108 86/121/108
o DL_Fate_Ring_Node_0
v 12.493196 6.600000 -4.241010
v 12.506911 6.640000 -4.203435
v 12.455621 6.640000 -4.227294
v 12.502893 6.611716 -4.214441
v 12.479421 6.616906 -4.211398
v 12.476324 6.640000 -4.204742
v 12.466626 6.611716 -4.231312
v 12.506911 7.120000 -4.203435
v 12.493196 7.160000 -4.241010
v 12.455621 7.120000 -4.227294
v 12.502893 7.148284 -4.214441
v 12.479421 7.143094 -4.211398
v 12.466626 7.148284 -4.231312
v 12.476324 7.120000 -4.204742
v 12.287457 6.600000 -4.804634
v 12.249882 6.640000 -4.790918
v 12.273741 6.640000 -4.842209
v 12.260887 6.611716 -4.794935
v 12.257844 6.616906 -4.818409
v 12.251188 6.640000 -4.821505
v 12.277758 6.611716 -4.831203
v 12.287457 7.160000 -4.804634
v 12.273741 7.120000 -4.842209
v 12.249882 7.120000 -4.790918
v 12.277758 7.148284 -4.831203
v 12.257844 7.143094 -4.818409
v 12.251188 7.120000 -4.821505
v 12.260887 7.148284 -4.794935
v 14.766478 6.600000 -5.070823
v 14.804052 6.640000 -5.084539
v 14.780193 6.640000 -5.033248
v 14.793047 6.611716 -5.080522
v 14.796090 6.616906 -5.057048
v 14.802746 6.640000 -5.053952
v 14.776176 6.611716 -5.044253
v 14.766478 7.160000 -5.070823
v 14.780193 7.120000 -5.033248
v 14.804052 7.120000 -5.084539
v 14.776176 7.148284 -5.044253
v 14.796090 7.143094 -5.057048
v 14.802746 7.120000 -5.053952
v 14.793047 7.148284 -5.080522
v 14.560739 6.600000 -5.634447
v 14.547023 6.640000 -5.672021
v 14.598313 6.640000 -5.648162
v 14.551041 6.611716 -5.661016
v 14.574513 6.616906 -5.664059
v 14.577610 6.640000 -5.670714
v 14.587308 6.611716 -5.644145
v 14.560739 7.160000 -5.634447
v 14.598313 7.120000 -5.648162
v 14.547023 7.120000 -5.672021
v 14.587308 7.148284 -5.644145
v 14.574513 7.143094 -5.664059
v 14.577610 7.120000 -5.670714
v 14.551041 7.148284 -5.661016
vn -0.1939 -0.8881 0.4168
vn -0.0008 -0.3251 0.9457
vn -0.7228 -0.3251 0.6099
vn -0.0008 0.3251 0.9457
vn -0.1939 0.8881 0.4168
vn -0.7228 0.3251 0.6099
vn -0.4168 -0.8881 -0.1939
vn -0.9457 -0.3251 -0.0008
vn -0.6099 -0.3251 -0.7228
vn -0.4168 0.8881 -0.1939
vn -0.6099 0.3251 -0.7228
vn -0.9457 0.3251 -0.0008
vn 0.4168 -0.8881 0.1939
vn 0.9457 -0.3251 0.0008
vn 0.6099 -0.3251 0.7228
vn 0.4168 0.8881 0.1939
vn 0.6099 0.3251 0.7228
vn 0.9457 0.3251 0.0008
vn 0.1939 -0.8881 -0.4168
vn 0.0008 -0.3251 -0.9457
vn 0.7228 -0.3251 -0.6099
vn 0.1939 0.8881 -0.4168
vn 0.7228 0.3251 -0.6099
vn 0.0008 0.3251 -0.9457
vn -0.3595 -0.9239 0.1312
vn -0.8679 -0.3827 0.3168
vn -0.0427 -0.0000 0.9991
vn -0.7366 -0.0000 0.6763
vn -0.3595 0.9239 0.1312
vn -0.8679 0.3827 0.3168
vn -0.6763 -0.0000 -0.7366
vn -0.9991 -0.0000 -0.0427
vn -0.1312 -0.9239 -0.3595
vn -0.3168 -0.3827 -0.8679
vn -0.1312 0.9239 -0.3595
vn -0.3168 0.3827 -0.8679
vn 0.7366 -0.0000 -0.6763
vn 0.0427 -0.0000 -0.9991
vn 0.3595 -0.9239 -0.1312
vn 0.8679 -0.3827 -0.3168
vn 0.3595 0.9239 -0.1312
vn 0.8679 0.3827 -0.3168
vn 0.6763 -0.0000 0.7366
vn 0.9991 -0.0000 0.0427
vn 0.1312 -0.9239 0.3595
vn 0.3168 -0.3827 0.8679
vn 0.1312 0.9239 0.3595
vn 0.3168 0.3827 0.8679
vn -0.0000 -1.0000 -0.0000
vn -0.9394 -0.0000 0.3429
vn 0.3429 -0.0000 0.9394
vn -0.0000 1.0000 -0.0000
vn -0.3429 -0.0000 -0.9394
vn 0.9394 -0.0000 -0.3429
vt 0.129000 0.735294
vt 0.129000 0.750000
vt 0.126691 0.750000
vt 0.125000 0.735294
vt 0.392857 0.996000
vt 0.392857 1.000000
vt 0.382547 1.000000
vt 0.375000 0.996000
vt 0.392857 0.014706
vt 0.375000 0.014706
vt 0.375000 0.006215
vt 0.392857 0.000000
vt 0.607143 0.996000
vt 0.625000 0.996000
vt 0.625000 0.998309
vt 0.607143 1.000000
vt 0.871000 0.735294
vt 0.875000 0.735294
vt 0.875000 0.743785
vt 0.871000 0.750000
vt 0.607143 0.014706
vt 0.607143 0.000000
vt 0.617453 0.000000
vt 0.625000 0.014706
vt 0.129000 0.514706
vt 0.125000 0.514706
vt 0.125000 0.506215
vt 0.129000 0.500000
vt 0.392857 0.235294
vt 0.392857 0.250000
vt 0.378774 0.250845
vt 0.375000 0.235294
vt 0.392857 0.254000
vt 0.375000 0.254000
vt 0.871000 0.514706
vt 0.871000 0.500000
vt 0.873309 0.500000
vt 0.875000 0.514706
vt 0.607143 0.254000
vt 0.607143 0.250000
vt 0.621226 0.246892
vt 0.625000 0.254000
vt 0.607143 0.235294
vt 0.625000 0.235294
vt 0.371000 0.735294
vt 0.375000 0.735294
vt 0.377516 0.748492
vt 0.373000 0.752000
vt 0.392857 0.735294
vt 0.392857 0.750000
vt 0.392857 0.754000
vt 0.629000 0.735294
vt 0.627000 0.752000
vt 0.623048 0.747928
vt 0.625000 0.735294
vt 0.607143 0.754000
vt 0.607143 0.750000
vt 0.607143 0.735294
vt 0.371000 0.514706
vt 0.373000 0.498000
vt 0.376952 0.502072
vt 0.375000 0.514706
vt 0.392857 0.496000
vt 0.392857 0.500000
vt 0.392857 0.514706
vt 0.629000 0.514706
vt 0.625000 0.514706
vt 0.622484 0.501508
vt 0.627000 0.498000
vt 0.607143 0.514706
vt 0.607143 0.500000
vt 0.607143 0.496000
s 0
usemtl DL2_Hull_Silver
f 113/145/109 116/146/109 117/147/109 119/148/109
f 114/149/110 118/150/110 117/151/110 116/152/110
f 115/153/111 119/154/111 117/155/111 118/156/111
f 120/157/112 123/158/112 124/159/112 126/160/112
f 121/161/113 125/162/113 124/163/113 123/164/113
f 122/165/114 126/166/114 124/167/114 125/168/114
f 127/169/115 130/170/115 131/171/115 133/172/115
f 128/173/116 132/174/116 131/175/116 130/176/116
f 129/177/117 133/178/117 131/175/117 132/174/117
f 134/179/118 137/180/118 138/181/118 140/182/118
f 135/183/119 139/184/119 138/185/119 137/186/119
f 136/187/120 140/188/120 138/185/120 139/184/120
f 141/189/121 144/190/121 145/191/121 147/192/121
f 142/193/122 146/194/122 145/191/122 144/190/122
f 143/195/123 147/192/123 145/191/123 146/194/123
f 148/196/124 151/197/124 152/198/124 154/199/124
f 149/200/125 153/201/125 152/198/125 151/197/125
f 150/202/126 154/199/126 152/198/126 153/201/126
f 155/203/127 158/204/127 159/205/127 161/206/127
f 156/207/128 160/208/128 159/205/128 158/204/128
f 157/209/129 161/206/129 159/205/129 160/208/129
f 162/210/130 165/211/130 166/212/130 168/213/130
f 163/214/131 167/215/131 166/212/131 165/211/131
f 164/216/132 168/213/132 166/212/132 167/215/132
f 127/169/133 113/145/133 119/148/133 130/170/133
f 130/176/134 119/154/134 115/153/134 128/173/134
f 114/149/135 120/157/135 126/160/135 118/150/135
f 118/156/136 126/166/136 122/165/136 115/153/136
f 121/161/137 134/179/137 140/182/137 125/162/137
f 125/168/138 140/188/138 136/187/138 122/165/138
f 135/183/139 129/177/139 132/174/139 139/184/139
f 139/184/140 132/174/140 128/173/140 136/187/140
f 155/203/141 127/169/141 133/172/141 158/204/141
f 158/204/142 133/178/142 129/177/142 156/207/142
f 134/179/143 162/210/143 168/213/143 137/180/143
f 137/186/144 168/213/144 164/216/144 135/183/144
f 163/214/145 157/209/145 160/208/145 167/215/145
f 167/215/146 160/208/146 156/207/146 164/216/146
f 141/189/147 155/203/147 161/206/147 144/190/147
f 144/190/148 161/206/148 157/209/148 142/193/148
f 162/210/149 148/196/149 154/199/149 165/211/149
f 165/211/150 154/199/150 150/202/150 163/214/150
f 149/200/151 143/195/151 146/194/151 153/201/151
f 153/201/152 146/194/152 142/193/152 150/202/152
f 113/145/153 141/189/153 147/192/153 116/146/153
f 116/152/154 147/192/154 143/195/154 114/149/154
f 148/196/155 121/161/155 123/164/155 151/197/155
f 151/197/156 123/158/156 120/157/156 149/200/156
f 127/169/157 155/203/157 141/189/157 113/145/157
f 115/153/158 122/165/158 136/187/158 128/173/158
f 143/195/159 149/200/159 120/157/159 114/149/159
f 162/210/160 134/179/160 121/161/160 148/196/160
f 129/177/161 135/183/161 164/216/161 156/207/161
f 157/209/162 163/214/162 150/202/162 142/193/162
o DL_Fate_Ring_Node_7
v 12.121277 6.600000 5.209677
v 12.106322 6.640000 5.246776
v 12.084178 6.640000 5.194722
v 12.110703 6.611716 5.235910
v 12.091224 6.616906 5.222462
v 12.084469 6.640000 5.225335
v 12.095044 6.611716 5.199102
v 12.106322 7.120000 5.246776
v 12.121277 7.160000 5.209677
v 12.084178 7.120000 5.194722
v 12.110703 7.148284 5.235910
v 12.091224 7.143094 5.222462
v 12.095044 7.148284 5.199102
v 12.084469 7.120000 5.225335
v 12.345603 6.600000 4.653190
v 12.308504 6.640000 4.638235
v 12.360559 6.640000 4.616091
v 12.319370 6.611716 4.642615
v 12.332818 6.616906 4.623136
v 12.329945 6.640000 4.616382
v 12.356178 6.611716 4.626956
v 12.345603 7.160000 4.653190
v 12.360559 7.120000 4.616091
v 12.308504 7.120000 4.638235
v 12.356178 7.148284 4.626956
v 12.332818 7.143094 4.623136
v 12.329945 7.120000 4.616382
v 12.319370 7.148284 4.642615
v 14.365775 6.600000 6.114458
v 14.402874 6.640000 6.129413
v 14.350820 6.640000 6.151557
v 14.392008 6.611716 6.125033
v 14.378560 6.616906 6.144512
v 14.381433 6.640000 6.151266
v 14.355200 6.611716 6.140691
v 14.365775 7.160000 6.114458
v 14.350820 7.120000 6.151557
v 14.402874 7.120000 6.129413
v 14.355200 7.148284 6.140691
v 14.378560 7.143094 6.144512
v 14.381433 7.120000 6.151266
v 14.392008 7.148284 6.125033
v 14.590101 6.600000 5.557971
v 14.605056 6.640000 5.520872
v 14.627200 6.640000 5.572926
v 14.600676 6.611716 5.531738
v 14.620154 6.616906 5.545186
v 14.626909 6.640000 5.542313
v 14.616334 6.611716 5.568546
v 14.590101 7.160000 5.557971
v 14.627200 7.120000 5.572926
v 14.605056 7.120000 5.520872
v 14.616334 7.148284 5.568546
v 14.620154 7.143094 5.545186
v 14.626909 7.120000 5.542313
v 14.600676 7.148284 5.531738
vn -0.4230 -0.8881 0.1800
vn -0.6335 -0.3251 0.7021
vn -0.9452 -0.3251 -0.0305
vn -0.6335 0.3251 0.7021
vn -0.4230 0.8881 0.1800
vn -0.9452 0.3251 -0.0305
vn -0.1800 -0.8881 -0.4230
vn -0.7021 -0.3251 -0.6335
vn 0.0305 -0.3251 -0.9452
vn -0.1800 0.8881 -0.4230
vn 0.0305 0.3251 -0.9452
vn -0.7021 0.3251 -0.6335
vn 0.1800 -0.8881 0.4230
vn 0.7021 -0.3251 0.6335
vn -0.0305 -0.3251 0.9452
vn 0.1800 0.8881 0.4230
vn -0.0305 0.3251 0.9452
vn 0.7021 0.3251 0.6335
vn 0.4230 -0.8881 -0.1800
vn 0.6335 -0.3251 -0.7021
vn 0.9452 -0.3251 0.0305
vn 0.4230 0.8881 -0.1800
vn 0.9452 0.3251 0.0305
vn 0.6335 0.3251 -0.7021
vn -0.3549 -0.9239 -0.1431
vn -0.8569 -0.3827 -0.3454
vn -0.7003 -0.0000 0.7138
vn -1.0000 -0.0000 0.0095
vn -0.3549 0.9239 -0.1431
vn -0.8569 0.3827 -0.3454
vn -0.0095 -0.0000 -1.0000
vn -0.7138 -0.0000 -0.7003
vn 0.1431 -0.9239 -0.3549
vn 0.3454 -0.3827 -0.8569
vn 0.1431 0.9239 -0.3549
vn 0.3454 0.3827 -0.8569
vn 1.0000 -0.0000 -0.0095
vn 0.7003 -0.0000 -0.7138
vn 0.3549 -0.9239 0.1431
vn 0.8569 -0.3827 0.3454
vn 0.3549 0.9239 0.1431
vn 0.8569 0.3827 0.3454
vn 0.0095 -0.0000 1.0000
vn 0.7138 -0.0000 0.7003
vn -0.1431 -0.9239 0.3549
vn -0.3454 -0.3827 0.8569
vn -0.1431 0.9239 0.3549
vn -0.3454 0.3827 0.8569
vn -0.0000 -1.0000 -0.0000
vn -0.9275 -0.0000 -0.3739
vn -0.3739 -0.0000 0.9275
vn -0.0000 1.0000 -0.0000
vn 0.3739 -0.0000 -0.9275
vn 0.9275 -0.0000 0.3739
vt 0.129000 0.735294
vt 0.129000 0.750000
vt 0.126691 0.750000
vt 0.125000 0.735294
vt 0.392857 0.996000
vt 0.392857 1.000000
vt 0.382547 1.000000
vt 0.375000 0.996000
vt 0.392857 0.014706
vt 0.375000 0.014706
vt 0.375000 0.006215
vt 0.392857 0.000000
vt 0.607143 0.996000
vt 0.625000 0.996000
vt 0.625000 0.998309
vt 0.607143 1.000000
vt 0.871000 0.735294
vt 0.875000 0.735294
vt 0.875000 0.743785
vt 0.871000 0.750000
vt 0.607143 0.014706
vt 0.607143 0.000000
vt 0.617453 0.000000
vt 0.625000 0.014706
vt 0.129000 0.514706
vt 0.125000 0.514706
vt 0.125000 0.506215
vt 0.129000 0.500000
vt 0.392857 0.235294
vt 0.392857 0.250000
vt 0.378774 0.250845
vt 0.375000 0.235294
vt 0.392857 0.254000
vt 0.375000 0.254000
vt 0.871000 0.514706
vt 0.871000 0.500000
vt 0.873309 0.500000
vt 0.875000 0.514706
vt 0.607143 0.254000
vt 0.607143 0.250000
vt 0.621226 0.246892
vt 0.625000 0.254000
vt 0.607143 0.235294
vt 0.625000 0.235294
vt 0.371000 0.735294
vt 0.375000 0.735294
vt 0.377516 0.748492
vt 0.373000 0.752000
vt 0.392857 0.735294
vt 0.392857 0.750000
vt 0.392857 0.754000
vt 0.629000 0.735294
vt 0.627000 0.752000
vt 0.623048 0.747928
vt 0.625000 0.735294
vt 0.607143 0.754000
vt 0.607143 0.750000
vt 0.607143 0.735294
vt 0.371000 0.514706
vt 0.373000 0.498000
vt 0.376952 0.502072
vt 0.375000 0.514706
vt 0.392857 0.496000
vt 0.392857 0.500000
vt 0.392857 0.514706
vt 0.629000 0.514706
vt 0.625000 0.514706
vt 0.622484 0.501508
vt 0.627000 0.498000
vt 0.607143 0.514706
vt 0.607143 0.500000
vt 0.607143 0.496000
s 0
usemtl DL2_Armor_Indigo
f 169/217/163 172/218/163 173/219/163 175/220/163
f 170/221/164 174/222/164 173/223/164 172/224/164
f 171/225/165 175/226/165 173/227/165 174/228/165
f 176/229/166 179/230/166 180/231/166 182/232/166
f 177/233/167 181/234/167 180/235/167 179/236/167
f 178/237/168 182/238/168 180/239/168 181/240/168
f 183/241/169 186/242/169 187/243/169 189/244/169
f 184/245/170 188/246/170 187/247/170 186/248/170
f 185/249/171 189/250/171 187/247/171 188/246/171
f 190/251/172 193/252/172 194/253/172 196/254/172
f 191/255/173 195/256/173 194/257/173 193/258/173
f 192/259/174 196/260/174 194/257/174 195/256/174
f 197/261/175 200/262/175 201/263/175 203/264/175
f 198/265/176 202/266/176 201/263/176 200/262/176
f 199/267/177 203/264/177 201/263/177 202/266/177
f 204/268/178 207/269/178 208/270/178 210/271/178
f 205/272/179 209/273/179 208/270/179 207/269/179
f 206/274/180 210/271/180 208/270/180 209/273/180
f 211/275/181 214/276/181 215/277/181 217/278/181
f 212/279/182 216/280/182 215/277/182 214/276/182
f 213/281/183 217/278/183 215/277/183 216/280/183
f 218/282/184 221/283/184 222/284/184 224/285/184
f 219/286/185 223/287/185 222/284/185 221/283/185
f 220/288/186 224/285/186 222/284/186 223/287/186
f 183/241/187 169/217/187 175/220/187 186/242/187
f 186/248/188 175/226/188 171/225/188 184/245/188
f 170/221/189 176/229/189 182/232/189 174/222/189
f 174/228/190 182/238/190 178/237/190 171/225/190
f 177/233/191 190/251/191 196/254/191 181/234/191
f 181/240/192 196/260/192 192/259/192 178/237/192
f 191/255/193 185/249/193 188/246/193 195/256/193
f 195/256/194 188/246/194 184/245/194 192/259/194
f 211/275/195 183/241/195 189/244/195 214/276/195
f 214/276/196 189/250/196 185/249/196 212/279/196
f 190/251/197 218/282/197 224/285/197 193/252/197
f 193/258/198 224/285/198 220/288/198 191/255/198
f 219/286/199 213/281/199 216/280/199 223/287/199
f 223/287/200 216/280/200 212/279/200 220/288/200
f 197/261/201 211/275/201 217/278/201 200/262/201
f 200/262/202 217/278/202 213/281/202 198/265/202
f 218/282/203 204/268/203 210/271/203 221/283/203
f 221/283/204 210/271/204 206/274/204 219/286/204
f 205/272/205 199/267/205 202/266/205 209/273/205
f 209/273/206 202/266/206 198/265/206 206/274/206
f 169/217/207 197/261/207 203/264/207 172/218/207
f 172/224/208 203/264/208 199/267/208 170/221/208
f 204/268/209 177/233/209 179/236/209 207/269/209
f 207/269/210 179/230/210 176/229/210 205/272/210
f 183/241/211 211/275/211 197/261/211 169/217/211
f 171/225/212 178/237/212 192/259/212 184/245/212
f 199/267/213 205/272/213 176/229/213 170/221/213
f 218/282/214 190/251/214 177/233/214 204/268/214
f 185/249/215 191/255/215 220/288/215 212/279/215
f 213/281/216 219/286/216 206/274/216 198/265/216
o DL_Bow_Crown_SideBrace_-1
v 35.330002 5.420000 3.700000
v 35.330002 5.450000 3.730000
v 35.299999 5.450000 3.700000
v 35.330002 5.428787 3.721213
v 35.312679 5.432679 3.717320
v 35.308788 5.450000 3.721213
v 35.308788 5.428787 3.700000
v 35.330002 5.710000 3.730000
v 35.330002 5.740000 3.700000
v 35.299999 5.710000 3.700000
v 35.330002 5.731213 3.721213
v 35.312679 5.727321 3.717320
v 35.308788 5.731213 3.700000
v 35.308788 5.710000 3.721213
v 35.330002 5.420000 3.400000
v 35.299999 5.450000 3.400000
v 35.330002 5.450000 3.370000
v 35.308788 5.428787 3.400000
v 35.312679 5.432679 3.382679
v 35.308788 5.450000 3.378787
v 35.330002 5.428787 3.378787
v 35.330002 5.740000 3.400000
v 35.330002 5.710000 3.370000
v 35.299999 5.710000 3.400000
v 35.330002 5.731213 3.378787
v 35.312679 5.727321 3.382679
v 35.308788 5.710000 3.378787
v 35.308788 5.731213 3.400000
v 43.669998 5.420000 3.700000
v 43.700001 5.450000 3.700000
v 43.669998 5.450000 3.730000
v 43.691212 5.428787 3.700000
v 43.687321 5.432679 3.717320
v 43.691212 5.450000 3.721213
v 43.669998 5.428787 3.721213
v 43.669998 5.740000 3.700000
v 43.669998 5.710000 3.730000
v 43.700001 5.710000 3.700000
v 43.669998 5.731213 3.721213
v 43.687321 5.727321 3.717320
v 43.691212 5.710000 3.721213
v 43.691212 5.731213 3.700000
v 43.669998 5.420000 3.400000
v 43.669998 5.450000 3.370000
v 43.700001 5.450000 3.400000
v 43.669998 5.428787 3.378787
v 43.687321 5.432679 3.382679
v 43.691212 5.450000 3.378787
v 43.691212 5.428787 3.400000
v 43.669998 5.740000 3.400000
v 43.700001 5.710000 3.400000
v 43.669998 5.710000 3.370000
v 43.691212 5.731213 3.400000
v 43.687321 5.727321 3.382679
v 43.691212 5.710000 3.378787
v 43.669998 5.731213 3.378787
vn -0.3251 -0.8881 0.3251
vn -0.3251 -0.3251 0.8881
vn -0.8881 -0.3251 0.3250
vn -0.3251 0.3251 0.8881
vn -0.3251 0.8881 0.3251
vn -0.8881 0.3251 0.3251
vn -0.3251 -0.8881 -0.3251
vn -0.8881 -0.3251 -0.3251
vn -0.3251 -0.3251 -0.8881
vn -0.3251 0.8881 -0.3251
vn -0.3251 0.3251 -0.8881
vn -0.8881 0.3251 -0.3251
vn 0.3251 -0.8881 0.3251
vn 0.8881 -0.3251 0.3251
vn 0.3251 -0.3251 0.8881
vn 0.3251 0.8881 0.3251
vn 0.3251 0.3251 0.8881
vn 0.8881 0.3251 0.3250
vn 0.3251 -0.8881 -0.3251
vn 0.3251 -0.3251 -0.8881
vn 0.8881 -0.3251 -0.3251
vn 0.3251 0.8881 -0.3251
vn 0.8881 0.3251 -0.3251
vn 0.3251 0.3251 -0.8881
vn -0.3827 -0.9239 -0.0000
vn -0.9239 -0.3827 -0.0000
vn -0.3827 -0.0000 0.9239
vn -0.9239 -0.0000 0.3827
vn -0.3827 0.9239 -0.0000
vn -0.9239 0.3827 -0.0000
vn -0.3827 -0.0000 -0.9239
vn -0.9239 -0.0000 -0.3827
vn -0.0000 -0.9239 -0.3827
vn -0.0000 -0.3827 -0.9239
vn -0.0000 0.9239 -0.3827
vn -0.0000 0.3827 -0.9239
vn 0.9239 -0.0000 -0.3827
vn 0.3827 -0.0000 -0.9239
vn 0.3827 -0.9239 -0.0000
vn 0.9239 -0.3827 -0.0000
vn 0.3827 0.9239 -0.0000
vn 0.9239 0.3827 -0.0000
vn 0.3827 -0.0000 0.9239
vn 0.9239 -0.0000 0.3827
vn -0.0000 -0.9239 0.3827
vn -0.0000 -0.3827 0.9239
vn -0.0000 0.9239 0.3827
vn -0.0000 0.3827 0.9239
vn -0.0000 -1.0000 -0.0000
vn -1.0000 -0.0000 -0.0000
vn -0.0000 -0.0000 1.0000
vn -0.0000 1.0000 -0.0000
vn -0.0000 -0.0000 -1.0000
vn 1.0000 -0.0000 -0.0000
vt 0.125893 0.729167
vt 0.125893 0.750000
vt 0.125377 0.750000
vt 0.125000 0.729167
vt 0.398438 0.999107
vt 0.398438 1.000000
vt 0.384906 1.000000
vt 0.375000 0.999107
vt 0.398438 0.020833
vt 0.375000 0.020833
vt 0.375000 0.008805
vt 0.398438 0.000000
vt 0.601562 0.999107
vt 0.625000 0.999107
vt 0.625000 0.999623
vt 0.601562 1.000000
vt 0.874107 0.729167
vt 0.875000 0.729167
vt 0.875000 0.741195
vt 0.874107 0.750000
vt 0.601562 0.020833
vt 0.601562 0.000000
vt 0.615094 0.000000
vt 0.625000 0.020833
vt 0.125893 0.520833
vt 0.125000 0.520833
vt 0.125000 0.508805
vt 0.125893 0.500000
vt 0.398438 0.229167
vt 0.398438 0.250000
vt 0.379953 0.250189
vt 0.375000 0.229167
vt 0.398438 0.250893
vt 0.375000 0.250893
vt 0.874107 0.520833
vt 0.874107 0.500000
vt 0.874623 0.500000
vt 0.875000 0.520833
vt 0.601562 0.250893
vt 0.601562 0.250000
vt 0.620047 0.245597
vt 0.625000 0.250893
vt 0.601562 0.229167
vt 0.625000 0.229167
vt 0.374107 0.729167
vt 0.375000 0.729167
vt 0.378302 0.747191
vt 0.374554 0.750446
vt 0.398438 0.729167
vt 0.398438 0.750000
vt 0.398438 0.750893
vt 0.625893 0.729167
vt 0.625446 0.750446
vt 0.621824 0.747065
vt 0.625000 0.729167
vt 0.601562 0.750893
vt 0.601562 0.750000
vt 0.601562 0.729167
vt 0.374107 0.520833
vt 0.374554 0.499554
vt 0.378176 0.502935
vt 0.375000 0.520833
vt 0.398438 0.499107
vt 0.398438 0.500000
vt 0.398438 0.520833
vt 0.625893 0.520833
vt 0.625000 0.520833
vt 0.621698 0.502809
vt 0.625446 0.499554
vt 0.601562 0.520833
vt 0.601562 0.500000
vt 0.601562 0.499107
s 0
usemtl DL2_Armor_Indigo
f 225/289/217 228/290/217 229/291/217 231/292/217
f 226/293/218 230/294/218 229/295/218 228/296/218
f 227/297/219 231/298/219 229/299/219 230/300/219
f 232/301/220 235/302/220 236/303/220 238/304/220
f 233/305/221 237/306/221 236/307/221 235/308/221
f 234/309/222 238/310/222 236/311/222 237/312/222
f 239/313/223 242/314/223 243/315/223 245/316/223
f 240/317/224 244/318/224 243/319/224 242/320/224
f 241/321/225 245/322/225 243/319/225 244/318/225
f 246/323/226 249/324/226 250/325/226 252/326/226
f 247/327/227 251/328/227 250/329/227 249/330/227
f 248/331/228 252/332/228 250/329/228 251/328/228
f 253/333/229 256/334/229 257/335/229 259/336/229
f 254/337/230 258/338/230 257/335/230 256/334/230
f 255/339/231 259/336/231 257/335/231 258/338/231
f 260/340/232 263/341/232 264/342/232 266/343/232
f 261/344/233 265/345/233 264/342/233 263/341/233
f 262/346/234 266/343/234 264/342/234 265/345/234
f 267/347/235 270/348/235 271/349/235 273/350/235
f 268/351/236 272/352/236 271/349/236 270/348/236
f 269/353/237 273/350/237 271/349/237 272/352/237
f 274/354/238 277/355/238 278/356/238 280/357/238
f 275/358/239 279/359/239 278/356/239 277/355/239
f 276/360/240 280/357/240 278/356/240 279/359/240
f 239/313/241 225/289/241 231/292/241 242/314/241
f 242/320/242 231/298/242 227/297/242 240/317/242
f 226/293/243 232/301/243 238/304/243 230/294/243
f 230/300/244 238/310/244 234/309/244 227/297/244
f 233/305/245 246/323/245 252/326/245 237/306/245
f 237/312/246 252/332/246 248/331/246 234/309/246
f 247/327/247 241/321/247 244/318/247 251/328/247
f 251/328/248 244/318/248 240/317/248 248/331/248
f 267/347/249 239/313/249 245/316/249 270/348/249
f 270/348/250 245/322/250 241/321/250 268/351/250
f 246/323/251 274/354/251 280/357/251 249/324/251
f 249/330/252 280/357/252 276/360/252 247/327/252
f 275/358/253 269/353/253 272/352/253 279/359/253
f 279/359/254 272/352/254 268/351/254 276/360/254
f 253/333/255 267/347/255 273/350/255 256/334/255
f 256/334/256 273/350/256 269/353/256 254/337/256
f 274/354/257 260/340/257 266/343/257 277/355/257
f 277/355/258 266/343/258 262/346/258 275/358/258
f 261/344/259 255/339/259 258/338/259 265/345/259
f 265/345/260 258/338/260 254/337/260 262/346/260
f 225/289/261 253/333/261 259/336/261 228/290/261
f 228/296/262 259/336/262 255/339/262 226/293/262
f 260/340/263 233/305/263 235/308/263 263/341/263
f 263/341/264 235/302/264 232/301/264 261/344/264
f 239/313/265 267/347/265 253/333/265 225/289/265
f 227/297/266 234/309/266 248/331/266 240/317/266
f 255/339/267 261/344/267 232/301/267 226/293/267
f 274/354/268 246/323/268 233/305/268 260/340/268
f 241/321/269 247/327/269 276/360/269 268/351/269
f 269/353/270 275/358/270 262/346/270 254/337/270
o DL_Bow_Crown_SideBrace_1
v 35.330002 5.420000 -3.400000
v 35.330002 5.450000 -3.370000
v 35.299999 5.450000 -3.400000
v 35.330002 5.428787 -3.378787
v 35.312679 5.432679 -3.382679
v 35.308788 5.450000 -3.378787
v 35.308788 5.428787 -3.400000
v 35.330002 5.710000 -3.370000
v 35.330002 5.740000 -3.400000
v 35.299999 5.710000 -3.400000
v 35.330002 5.731213 -3.378787
v 35.312679 5.727321 -3.382679
v 35.308788 5.731213 -3.400000
v 35.308788 5.710000 -3.378787
v 35.330002 5.420000 -3.700000
v 35.299999 5.450000 -3.700000
v 35.330002 5.450000 -3.730000
v 35.308788 5.428787 -3.700000
v 35.312679 5.432679 -3.717320
v 35.308788 5.450000 -3.721213
v 35.330002 5.428787 -3.721213
v 35.330002 5.740000 -3.700000
v 35.330002 5.710000 -3.730000
v 35.299999 5.710000 -3.700000
v 35.330002 5.731213 -3.721213
v 35.312679 5.727321 -3.717320
v 35.308788 5.710000 -3.721213
v 35.308788 5.731213 -3.700000
v 43.669998 5.420000 -3.400000
v 43.700001 5.450000 -3.400000
v 43.669998 5.450000 -3.370000
v 43.691212 5.428787 -3.400000
v 43.687321 5.432679 -3.382679
v 43.691212 5.450000 -3.378787
v 43.669998 5.428787 -3.378787
v 43.669998 5.740000 -3.400000
v 43.669998 5.710000 -3.370000
v 43.700001 5.710000 -3.400000
v 43.669998 5.731213 -3.378787
v 43.687321 5.727321 -3.382679
v 43.691212 5.710000 -3.378787
v 43.691212 5.731213 -3.400000
v 43.669998 5.420000 -3.700000
v 43.669998 5.450000 -3.730000
v 43.700001 5.450000 -3.700000
v 43.669998 5.428787 -3.721213
v 43.687321 5.432679 -3.717320
v 43.691212 5.450000 -3.721213
v 43.691212 5.428787 -3.700000
v 43.669998 5.740000 -3.700000
v 43.700001 5.710000 -3.700000
v 43.669998 5.710000 -3.730000
v 43.691212 5.731213 -3.700000
v 43.687321 5.727321 -3.717320
v 43.691212 5.710000 -3.721213
v 43.669998 5.731213 -3.721213
vn -0.3251 -0.8881 0.3251
vn -0.3251 -0.3251 0.8881
vn -0.8881 -0.3251 0.3250
vn -0.3251 0.3251 0.8881
vn -0.3251 0.8881 0.3251
vn -0.8881 0.3251 0.3251
vn -0.3251 -0.8881 -0.3251
vn -0.8881 -0.3251 -0.3251
vn -0.3251 -0.3251 -0.8881
vn -0.3251 0.8881 -0.3251
vn -0.3251 0.3251 -0.8881
vn -0.8881 0.3251 -0.3251
vn 0.3251 -0.8881 0.3251
vn 0.8881 -0.3251 0.3251
vn 0.3251 -0.3251 0.8881
vn 0.3251 0.8881 0.3251
vn 0.3251 0.3251 0.8881
vn 0.8881 0.3251 0.3250
vn 0.3251 -0.8881 -0.3251
vn 0.3251 -0.3251 -0.8881
vn 0.8881 -0.3251 -0.3251
vn 0.3251 0.8881 -0.3251
vn 0.8881 0.3251 -0.3251
vn 0.3251 0.3251 -0.8881
vn -0.3827 -0.9239 -0.0000
vn -0.9239 -0.3827 -0.0000
vn -0.3827 -0.0000 0.9239
vn -0.9239 -0.0000 0.3827
vn -0.3827 0.9239 -0.0000
vn -0.9239 0.3827 -0.0000
vn -0.3827 -0.0000 -0.9239
vn -0.9239 -0.0000 -0.3827
vn -0.0000 -0.9239 -0.3827
vn -0.0000 -0.3827 -0.9239
vn -0.0000 0.9239 -0.3827
vn -0.0000 0.3827 -0.9239
vn 0.9239 -0.0000 -0.3827
vn 0.3827 -0.0000 -0.9239
vn 0.3827 -0.9239 -0.0000
vn 0.9239 -0.3827 -0.0000
vn 0.3827 0.9239 -0.0000
vn 0.9239 0.3827 -0.0000
vn 0.3827 -0.0000 0.9239
vn 0.9239 -0.0000 0.3827
vn -0.0000 -0.9239 0.3827
vn -0.0000 -0.3827 0.9239
vn -0.0000 0.9239 0.3827
vn -0.0000 0.3827 0.9239
vn -0.0000 -1.0000 -0.0000
vn -1.0000 -0.0000 -0.0000
vn -0.0000 -0.0000 1.0000
vn -0.0000 1.0000 -0.0000
vn -0.0000 -0.0000 -1.0000
vn 1.0000 -0.0000 -0.0000
vt 0.125893 0.729167
vt 0.125893 0.750000
vt 0.125377 0.750000
vt 0.125000 0.729167
vt 0.398438 0.999107
vt 0.398438 1.000000
vt 0.384906 1.000000
vt 0.375000 0.999107
vt 0.398438 0.020833
vt 0.375000 0.020833
vt 0.375000 0.008805
vt 0.398438 0.000000
vt 0.601562 0.999107
vt 0.625000 0.999107
vt 0.625000 0.999623
vt 0.601562 1.000000
vt 0.874107 0.729167
vt 0.875000 0.729167
vt 0.875000 0.741195
vt 0.874107 0.750000
vt 0.601562 0.020833
vt 0.601562 0.000000
vt 0.615094 0.000000
vt 0.625000 0.020833
vt 0.125893 0.520833
vt 0.125000 0.520833
vt 0.125000 0.508805
vt 0.125893 0.500000
vt 0.398438 0.229167
vt 0.398438 0.250000
vt 0.379953 0.250189
vt 0.375000 0.229167
vt 0.398438 0.250893
vt 0.375000 0.250893
vt 0.874107 0.520833
vt 0.874107 0.500000
vt 0.874623 0.500000
vt 0.875000 0.520833
vt 0.601562 0.250893
vt 0.601562 0.250000
vt 0.620047 0.245597
vt 0.625000 0.250893
vt 0.601562 0.229167
vt 0.625000 0.229167
vt 0.374107 0.729167
vt 0.375000 0.729167
vt 0.378302 0.747191
vt 0.374554 0.750446
vt 0.398438 0.729167
vt 0.398438 0.750000
vt 0.398438 0.750893
vt 0.625893 0.729167
vt 0.625446 0.750446
vt 0.621824 0.747065
vt 0.625000 0.729167
vt 0.601562 0.750893
vt 0.601562 0.750000
vt 0.601562 0.729167
vt 0.374107 0.520833
vt 0.374554 0.499554
vt 0.378176 0.502935
vt 0.375000 0.520833
vt 0.398438 0.499107
vt 0.398438 0.500000
vt 0.398438 0.520833
vt 0.625893 0.520833
vt 0.625000 0.520833
vt 0.621698 0.502809
vt 0.625446 0.499554
vt 0.601562 0.520833
vt 0.601562 0.500000
vt 0.601562 0.499107
s 0
usemtl DL2_Armor_Indigo
f 281/361/271 284/362/271 285/363/271 287/364/271
f 282/365/272 286/366/272 285/367/272 284/368/272
f 283/369/273 287/370/273 285/371/273 286/372/273
f 288/373/274 291/374/274 292/375/274 294/376/274
f 289/377/275 293/378/275 292/379/275 291/380/275
f 290/381/276 294/382/276 292/383/276 293/384/276
f 295/385/277 298/386/277 299/387/277 301/388/277
f 296/389/278 300/390/278 299/391/278 298/392/278
f 297/393/279 301/394/279 299/391/279 300/390/279
f 302/395/280 305/396/280 306/397/280 308/398/280
f 303/399/281 307/400/281 306/401/281 305/402/281
f 304/403/282 308/404/282 306/401/282 307/400/282
f 309/405/283 312/406/283 313/407/283 315/408/283
f 310/409/284 314/410/284 313/407/284 312/406/284
f 311/411/285 315/408/285 313/407/285 314/410/285
f 316/412/286 319/413/286 320/414/286 322/415/286
f 317/416/287 321/417/287 320/414/287 319/413/287
f 318/418/288 322/415/288 320/414/288 321/417/288
f 323/419/289 326/420/289 327/421/289 329/422/289
f 324/423/290 328/424/290 327/421/290 326/420/290
f 325/425/291 329/422/291 327/421/291 328/424/291
f 330/426/292 333/427/292 334/428/292 336/429/292
f 331/430/293 335/431/293 334/428/293 333/427/293
f 332/432/294 336/429/294 334/428/294 335/431/294
f 295/385/295 281/361/295 287/364/295 298/386/295
f 298/392/296 287/370/296 283/369/296 296/389/296
f 282/365/297 288/373/297 294/376/297 286/366/297
f 286/372/298 294/382/298 290/381/298 283/369/298
f 289/377/299 302/395/299 308/398/299 293/378/299
f 293/384/300 308/404/300 304/403/300 290/381/300
f 303/399/301 297/393/301 300/390/301 307/400/301
f 307/400/302 300/390/302 296/389/302 304/403/302
f 323/419/303 295/385/303 301/388/303 326/420/303
f 326/420/304 301/394/304 297/393/304 324/423/304
f 302/395/305 330/426/305 336/429/305 305/396/305
f 305/402/306 336/429/306 332/432/306 303/399/306
f 331/430/307 325/425/307 328/424/307 335/431/307
f 335/431/308 328/424/308 324/423/308 332/432/308
f 309/405/309 323/419/309 329/422/309 312/406/309
f 312/406/310 329/422/310 325/425/310 310/409/310
f 330/426/311 316/412/311 322/415/311 333/427/311
f 333/427/312 322/415/312 318/418/312 331/430/312
f 317/416/313 311/411/313 314/410/313 321/417/313
f 321/417/314 314/410/314 310/409/314 318/418/314
f 281/361/315 309/405/315 315/408/315 284/362/315
f 284/368/316 315/408/316 311/411/316 282/365/316
f 316/412/317 289/377/317 291/380/317 319/413/317
f 319/413/318 291/374/318 288/373/318 317/416/318
f 295/385/319 323/419/319 309/405/319 281/361/319
f 283/369/320 290/381/320 304/403/320 296/389/320
f 311/411/321 317/416/321 288/373/321 282/365/321
f 330/426/322 302/395/322 289/377/322 316/412/322
f 297/393/323 303/399/323 332/432/323 324/423/323
f 325/425/324 331/430/324 318/418/324 310/409/324
o DL_Bow_Crown_BlueChannel_-1_0
v 15.869543 5.810000 2.868992
v 15.873123 5.830000 2.888669
v 15.849866 5.830000 2.872573
v 15.872075 5.815858 2.882906
v 15.860250 5.818453 2.882420
v 15.858161 5.830000 2.885438
v 15.855629 5.815858 2.871524
v 15.873123 5.890000 2.888669
v 15.869543 5.910000 2.868992
v 15.849866 5.890000 2.872573
v 15.872075 5.904142 2.882906
v 15.860250 5.901547 2.882420
v 15.855629 5.904142 2.871524
v 15.858161 5.890000 2.885438
v 15.840899 5.810000 2.711577
v 15.821221 5.830000 2.715158
v 15.837318 5.830000 2.691900
v 15.826984 5.815858 2.714109
v 15.827471 5.818453 2.702284
v 15.824452 5.830000 2.700195
v 15.838367 5.815858 2.697664
v 15.840899 5.910000 2.711577
v 15.837318 5.890000 2.691900
v 15.821221 5.890000 2.715158
v 15.838367 5.904142 2.697664
v 15.827471 5.901547 2.702284
v 15.824452 5.890000 2.700195
v 15.826984 5.904142 2.714109
v 20.159101 5.810000 2.088423
v 20.178778 5.830000 2.084842
v 20.162682 5.830000 2.108100
v 20.173016 5.815858 2.085891
v 20.172529 5.818453 2.097716
v 20.175547 5.830000 2.099805
v 20.161634 5.815858 2.102337
v 20.159101 5.910000 2.088423
v 20.162682 5.890000 2.108100
v 20.178778 5.890000 2.084842
v 20.161634 5.904142 2.102337
v 20.172529 5.901547 2.097716
v 20.175547 5.890000 2.099805
v 20.173016 5.904142 2.085891
v 20.130457 5.810000 1.931008
v 20.126877 5.830000 1.911331
v 20.150133 5.830000 1.927428
v 20.127926 5.815858 1.917094
v 20.139751 5.818453 1.917580
v 20.141838 5.830000 1.914563
v 20.144371 5.815858 1.928476
v 20.130457 5.910000 1.931008
v 20.150133 5.890000 1.927428
v 20.126877 5.890000 1.911331
v 20.144371 5.904142 1.928476
v 20.139751 5.901547 1.917580
v 20.141838 5.890000 1.914563
v 20.127926 5.904142 1.917094
vn -0.2616 -0.8881 0.3780
vn -0.1608 -0.3251 0.9319
vn -0.8155 -0.3250 0.4788
vn -0.1608 0.3251 0.9319
vn -0.2616 0.8881 0.3780
vn -0.8155 0.3250 0.4788
vn -0.3780 -0.8881 -0.2616
vn -0.9319 -0.3250 -0.1608
vn -0.4788 -0.3251 -0.8155
vn -0.3780 0.8881 -0.2616
vn -0.4788 0.3251 -0.8155
vn -0.9319 0.3250 -0.1608
vn 0.3780 -0.8881 0.2616
vn 0.9319 -0.3250 0.1608
vn 0.4788 -0.3251 0.8155
vn 0.3780 0.8881 0.2616
vn 0.4788 0.3251 0.8155
vn 0.9319 0.3250 0.1608
vn 0.2616 -0.8881 -0.3780
vn 0.1608 -0.3251 -0.9319
vn 0.8155 -0.3250 -0.4788
vn 0.2616 0.8881 -0.3780
vn 0.8155 0.3250 -0.4788
vn 0.1608 0.3251 -0.9319
vn -0.3765 -0.9239 0.0685
vn -0.9090 -0.3827 0.1654
vn -0.2111 -0.0000 0.9775
vn -0.8404 -0.0000 0.5419
vn -0.3765 0.9239 0.0685
vn -0.9090 0.3827 0.1654
vn -0.5419 -0.0000 -0.8404
vn -0.9775 -0.0000 -0.2111
vn -0.0685 -0.9239 -0.3765
vn -0.1654 -0.3827 -0.9090
vn -0.0685 0.9239 -0.3765
vn -0.1654 0.3827 -0.9090
vn 0.8404 -0.0000 -0.5419
vn 0.2111 -0.0000 -0.9775
vn 0.3765 -0.9239 -0.0685
vn 0.9090 -0.3827 -0.1654
vn 0.3765 0.9239 -0.0685
vn 0.9090 0.3827 -0.1654
vn 0.5419 -0.0000 0.8404
vn 0.9775 -0.0000 0.2111
vn 0.0685 -0.9239 0.3765
vn 0.1654 -0.3827 0.9090
vn 0.0685 0.9239 0.3765
vn 0.1654 0.3827 0.9090
vn -0.0000 -1.0000 -0.0000
vn -0.9838 -0.0000 0.1790
vn 0.1790 -0.0000 0.9838
vn -0.0000 1.0000 -0.0000
vn -0.1790 -0.0000 -0.9838
vn 0.9838 -0.0000 -0.1790
vt 0.126136 0.725000
vt 0.126136 0.750000
vt 0.125480 0.750000
vt 0.125000 0.725000
vt 0.425000 0.998864
vt 0.425000 1.000000
vt 0.396132 1.000000
vt 0.375000 0.998864
vt 0.425000 0.025000
vt 0.375000 0.025000
vt 0.375000 0.010566
vt 0.425000 0.000000
vt 0.575000 0.998864
vt 0.625000 0.998864
vt 0.625000 0.999520
vt 0.575000 1.000000
vt 0.873864 0.725000
vt 0.875000 0.725000
vt 0.875000 0.739434
vt 0.873864 0.750000
vt 0.575000 0.025000
vt 0.575000 0.000000
vt 0.603868 0.000000
vt 0.625000 0.025000
vt 0.126136 0.525000
vt 0.125000 0.525000
vt 0.125000 0.510566
vt 0.126136 0.500000
vt 0.425000 0.225000
vt 0.425000 0.250000
vt 0.385566 0.250240
vt 0.375000 0.225000
vt 0.425000 0.251136
vt 0.375000 0.251136
vt 0.873864 0.525000
vt 0.873864 0.500000
vt 0.874520 0.500000
vt 0.875000 0.525000
vt 0.575000 0.251136
vt 0.575000 0.250000
vt 0.614434 0.244717
vt 0.625000 0.251136
vt 0.575000 0.225000
vt 0.625000 0.225000
vt 0.373864 0.725000
vt 0.375000 0.725000
vt 0.382044 0.746638
vt 0.374432 0.750568
vt 0.425000 0.725000
vt 0.425000 0.750000
vt 0.425000 0.751136
vt 0.626136 0.725000
vt 0.625568 0.750568
vt 0.618116 0.746478
vt 0.625000 0.725000
vt 0.575000 0.751136
vt 0.575000 0.750000
vt 0.575000 0.725000
vt 0.373864 0.525000
vt 0.374432 0.499432
vt 0.381884 0.503522
vt 0.375000 0.525000
vt 0.425000 0.498864
vt 0.425000 0.500000
vt 0.425000 0.525000
vt 0.626136 0.525000
vt 0.625000 0.525000
vt 0.617956 0.503362
vt 0.625568 0.499432
vt 0.575000 0.525000
vt 0.575000 0.500000
vt 0.575000 0.498864
s 0
usemtl DL2_IceBlue
f 337/433/325 340/434/325 341/435/325 343/436/325
f 338/437/326 342/438/326 341/439/326 340/440/326
f 339/441/327 343/442/327 341/443/327 342/444/327
f 344/445/328 347/446/328 348/447/328 350/448/328
f 345/449/329 349/450/329 348/451/329 347/452/329
f 346/453/330 350/454/330 348/455/330 349/456/330
f 351/457/331 354/458/331 355/459/331 357/460/331
f 352/461/332 356/462/332 355/463/332 354/464/332
f 353/465/333 357/466/333 355/463/333 356/462/333
f 358/467/334 361/468/334 362/469/334 364/470/334
f 359/471/335 363/472/335 362/473/335 361/474/335
f 360/475/336 364/476/336 362/473/336 363/472/336
f 365/477/337 368/478/337 369/479/337 371/480/337
f 366/481/338 370/482/338 369/479/338 368/478/338
f 367/483/339 371/480/339 369/479/339 370/482/339
f 372/484/340 375/485/340 376/486/340 378/487/340
f 373/488/341 377/489/341 376/486/341 375/485/341
f 374/490/342 378/487/342 376/486/342 377/489/342
f 379/491/343 382/492/343 383/493/343 385/494/343
f 380/495/344 384/496/344 383/493/344 382/492/344
f 381/497/345 385/494/345 383/493/345 384/496/345
f 386/498/346 389/499/346 390/500/346 392/501/346
f 387/502/347 391/503/347 390/500/347 389/499/347
f 388/504/348 392/501/348 390/500/348 391/503/348
f 351/457/349 337/433/349 343/436/349 354/458/349
f 354/464/350 343/442/350 339/441/350 352/461/350
f 338/437/351 344/445/351 350/448/351 342/438/351
f 342/444/352 350/454/352 346/453/352 339/441/352
f 345/449/353 358/467/353 364/470/353 349/450/353
f 349/456/354 364/476/354 360/475/354 346/453/354
f 359/471/355 353/465/355 356/462/355 363/472/355
f 363/472/356 356/462/356 352/461/356 360/475/356
f 379/491/357 351/457/357 357/460/357 382/492/357
f 382/492/358 357/466/358 353/465/358 380/495/358
f 358/467/359 386/498/359 392/501/359 361/468/359
f 361/474/360 392/501/360 388/504/360 359/471/360
f 387/502/361 381/497/361 384/496/361 391/503/361
f 391/503/362 384/496/362 380/495/362 388/504/362
f 365/477/363 379/491/363 385/494/363 368/478/363
f 368/478/364 385/494/364 381/497/364 366/481/364
f 386/498/365 372/484/365 378/487/365 389/499/365
f 389/499/366 378/487/366 374/490/366 387/502/366
f 373/488/367 367/483/367 370/482/367 377/489/367
f 377/489/368 370/482/368 366/481/368 374/490/368
f 337/433/369 365/477/369 371/480/369 340/434/369
f 340/440/370 371/480/370 367/483/370 338/437/370
f 372/484/371 345/449/371 347/452/371 375/485/371
f 375/485/372 347/446/372 344/445/372 373/488/372
f 351/457/373 379/491/373 365/477/373 337/433/373
f 339/441/374 346/453/374 360/475/374 352/461/374
f 367/483/375 373/488/375 344/445/375 338/437/375
f 386/498/376 358/467/376 345/449/376 372/484/376
f 353/465/377 359/471/377 388/504/377 380/495/377
f 381/497/378 387/502/378 374/490/378 366/481/378
o DL_Bow_Crown_BlueChannel_-1_1
v 21.869543 5.810000 3.148992
v 21.873123 5.830000 3.168669
v 21.849867 5.830000 3.152573
v 21.872074 5.815858 3.162906
v 21.860249 5.818453 3.162420
v 21.858162 5.830000 3.165438
v 21.855629 5.815858 3.151524
v 21.873123 5.890000 3.168669
v 21.869543 5.910000 3.148992
v 21.849867 5.890000 3.152573
v 21.872074 5.904142 3.162906
v 21.860249 5.901547 3.162420
v 21.855629 5.904142 3.151524
v 21.858162 5.890000 3.165438
v 21.840899 5.810000 2.991577
v 21.821222 5.830000 2.995158
v 21.837318 5.830000 2.971900
v 21.826984 5.815858 2.994109
v 21.827471 5.818453 2.982284
v 21.824453 5.830000 2.980195
v 21.838366 5.815858 2.977664
v 21.840899 5.910000 2.991577
v 21.837318 5.890000 2.971900
v 21.821222 5.890000 2.995158
v 21.838366 5.904142 2.977664
v 21.827471 5.901547 2.982284
v 21.824453 5.890000 2.980195
v 21.826984 5.904142 2.994109
v 26.159101 5.810000 2.368423
v 26.178778 5.830000 2.364842
v 26.162682 5.830000 2.388100
v 26.173016 5.815858 2.365891
v 26.172529 5.818453 2.377716
v 26.175547 5.830000 2.379805
v 26.161634 5.815858 2.382337
v 26.159101 5.910000 2.368423
v 26.162682 5.890000 2.388100
v 26.178778 5.890000 2.364842
v 26.161634 5.904142 2.382337
v 26.172529 5.901547 2.377716
v 26.175547 5.890000 2.379805
v 26.173016 5.904142 2.365891
v 26.130457 5.810000 2.211008
v 26.126877 5.830000 2.191331
v 26.150133 5.830000 2.207428
v 26.127926 5.815858 2.197094
v 26.139751 5.818453 2.197580
v 26.141838 5.830000 2.194562
v 26.144371 5.815858 2.208476
v 26.130457 5.910000 2.211008
v 26.150133 5.890000 2.207428
v 26.126877 5.890000 2.191331
v 26.144371 5.904142 2.208476
v 26.139751 5.901547 2.197580
v 26.141838 5.890000 2.194562
v 26.127926 5.904142 2.197094
vn -0.2616 -0.8881 0.3780
vn -0.1608 -0.3251 0.9319
vn -0.8155 -0.3250 0.4788
vn -0.1608 0.3251 0.9319
vn -0.2616 0.8881 0.3780
vn -0.8155 0.3250 0.4788
vn -0.3780 -0.8881 -0.2616
vn -0.9319 -0.3250 -0.1608
vn -0.4788 -0.3251 -0.8155
vn -0.3780 0.8881 -0.2616
vn -0.4788 0.3251 -0.8155
vn -0.9319 0.3250 -0.1608
vn 0.3780 -0.8881 0.2616
vn 0.9319 -0.3250 0.1608
vn 0.4788 -0.3251 0.8155
vn 0.3780 0.8881 0.2616
vn 0.4788 0.3251 0.8155
vn 0.9319 0.3250 0.1608
vn 0.2616 -0.8881 -0.3780
vn 0.1608 -0.3251 -0.9319
vn 0.8155 -0.3250 -0.4788
vn 0.2616 0.8881 -0.3780
vn 0.8155 0.3250 -0.4788
vn 0.1608 0.3251 -0.9319
vn -0.3765 -0.9239 0.0685
vn -0.9090 -0.3827 0.1654
vn -0.2111 -0.0000 0.9775
vn -0.8404 -0.0000 0.5419
vn -0.3765 0.9239 0.0685
vn -0.9090 0.3827 0.1654
vn -0.5419 -0.0000 -0.8404
vn -0.9775 -0.0000 -0.2111
vn -0.0685 -0.9239 -0.3765
vn -0.1654 -0.3827 -0.9090
vn -0.0685 0.9239 -0.3765
vn -0.1654 0.3827 -0.9090
vn 0.8404 -0.0000 -0.5419
vn 0.2111 -0.0000 -0.9775
vn 0.3765 -0.9239 -0.0685
vn 0.9090 -0.3827 -0.1654
vn 0.3765 0.9239 -0.0685
vn 0.9090 0.3827 -0.1654
vn 0.5419 -0.0000 0.8404
vn 0.9775 -0.0000 0.2111
vn 0.0685 -0.9239 0.3765
vn 0.1654 -0.3827 0.9090
vn 0.0685 0.9239 0.3765
vn 0.1654 0.3827 0.9090
vn -0.0000 -1.0000 -0.0000
vn -0.9838 -0.0000 0.1790
vn 0.1790 -0.0000 0.9838
vn -0.0000 1.0000 -0.0000
vn -0.1790 -0.0000 -0.9838
vn 0.9838 -0.0000 -0.1790
vt 0.126136 0.725000
vt 0.126136 0.750000
vt 0.125480 0.750000
vt 0.125000 0.725000
vt 0.425000 0.998864
vt 0.425000 1.000000
vt 0.396132 1.000000
vt 0.375000 0.998864
vt 0.425000 0.025000
vt 0.375000 0.025000
vt 0.375000 0.010566
vt 0.425000 0.000000
vt 0.575000 0.998864
vt 0.625000 0.998864
vt 0.625000 0.999520
vt 0.575000 1.000000
vt 0.873864 0.725000
vt 0.875000 0.725000
vt 0.875000 0.739434
vt 0.873864 0.750000
vt 0.575000 0.025000
vt 0.575000 0.000000
vt 0.603868 0.000000
vt 0.625000 0.025000
vt 0.126136 0.525000
vt 0.125000 0.525000
vt 0.125000 0.510566
vt 0.126136 0.500000
vt 0.425000 0.225000
vt 0.425000 0.250000
vt 0.385566 0.250240
vt 0.375000 0.225000
vt 0.425000 0.251136
vt 0.375000 0.251136
vt 0.873864 0.525000
vt 0.873864 0.500000
vt 0.874520 0.500000
vt 0.875000 0.525000
vt 0.575000 0.251136
vt 0.575000 0.250000
vt 0.614434 0.244717
vt 0.625000 0.251136
vt 0.575000 0.225000
vt 0.625000 0.225000
vt 0.373864 0.725000
vt 0.375000 0.725000
vt 0.382044 0.746638
vt 0.374432 0.750568
vt 0.425000 0.725000
vt 0.425000 0.750000
vt 0.425000 0.751136
vt 0.626136 0.725000
vt 0.625568 0.750568
vt 0.618116 0.746478
vt 0.625000 0.725000
vt 0.575000 0.751136
vt 0.575000 0.750000
vt 0.575000 0.725000
vt 0.373864 0.525000
vt 0.374432 0.499432
vt 0.381884 0.503522
vt 0.375000 0.525000
vt 0.425000 0.498864
vt 0.425000 0.500000
vt 0.425000 0.525000
vt 0.626136 0.525000
vt 0.625000 0.525000
vt 0.617956 0.503362
vt 0.625568 0.499432
vt 0.575000 0.525000
vt 0.575000 0.500000
vt 0.575000 0.498864
s 0
usemtl DL2_IceBlue
f 393/505/379 396/506/379 397/507/379 399/508/379
f 394/509/380 398/510/380 397/511/380 396/512/380
f 395/513/381 399/514/381 397/515/381 398/516/381
f 400/517/382 403/518/382 404/519/382 406/520/382
f 401/521/383 405/522/383 404/523/383 403/524/383
f 402/525/384 406/526/384 404/527/384 405/528/384
f 407/529/385 410/530/385 411/531/385 413/532/385
f 408/533/386 412/534/386 411/535/386 410/536/386
f 409/537/387 413/538/387 411/535/387 412/534/387
f 414/539/388 417/540/388 418/541/388 420/542/388
f 415/543/389 419/544/389 418/545/389 417/546/389
f 416/547/390 420/548/390 418/545/390 419/544/390
f 421/549/391 424/550/391 425/551/391 427/552/391
f 422/553/392 426/554/392 425/551/392 424/550/392
f 423/555/393 427/552/393 425/551/393 426/554/393
f 428/556/394 431/557/394 432/558/394 434/559/394
f 429/560/395 433/561/395 432/558/395 431/557/395
f 430/562/396 434/559/396 432/558/396 433/561/396
f 435/563/397 438/564/397 439/565/397 441/566/397
f 436/567/398 440/568/398 439/565/398 438/564/398
f 437/569/399 441/566/399 439/565/399 440/568/399
f 442/570/400 445/571/400 446/572/400 448/573/400
f 443/574/401 447/575/401 446/572/401 445/571/401
f 444/576/402 448/573/402 446/572/402 447/575/402
f 407/529/403 393/505/403 399/508/403 410/530/403
f 410/536/404 399/514/404 395/513/404 408/533/404
f 394/509/405 400/517/405 406/520/405 398/510/405
f 398/516/406 406/526/406 402/525/406 395/513/406
f 401/521/407 414/539/407 420/542/407 405/522/407
f 405/528/408 420/548/408 416/547/408 402/525/408
f 415/543/409 409/537/409 412/534/409 419/544/409
f 419/544/410 412/534/410 408/533/410 416/547/410
f 435/563/411 407/529/411 413/532/411 438/564/411
f 438/564/412 413/538/412 409/537/412 436/567/412
f 414/539/413 442/570/413 448/573/413 417/540/413
f 417/546/414 448/573/414 444/576/414 415/543/414
f 443/574/415 437/569/415 440/568/415 447/575/415
f 447/575/416 440/568/416 436/567/416 444/576/416
f 421/549/417 435/563/417 441/566/417 424/550/417
f 424/550/418 441/566/418 437/569/418 422/553/418
f 442/570/419 428/556/419 434/559/419 445/571/419
f 445/571/420 434/559/420 430/562/420 443/574/420
f 429/560/421 423/555/421 426/554/421 433/561/421
f 433/561/422 426/554/422 422/553/422 430/562/422
f 393/505/423 421/549/423 427/552/423 396/506/423
f 396/512/424 427/552/424 423/555/424 394/509/424
f 428/556/425 401/521/425 403/524/425 431/557/425
f 431/557/426 403/518/426 400/517/426 429/560/426
f 407/529/427 435/563/427 421/549/427 393/505/427
f 395/513/428 402/525/428 416/547/428 408/533/428
f 423/555/429 429/560/429 400/517/429 394/509/429
f 442/570/430 414/539/430 401/521/430 428/556/430
f 409/537/431 415/543/431 444/576/431 436/567/431
f 437/569/432 443/574/432 430/562/432 422/553/432
o DL_Bow_Crown_BlueChannel_-1_2
v 27.869543 5.810000 3.428992
v 27.873123 5.830000 3.448669
v 27.849867 5.830000 3.432573
v 27.872074 5.815858 3.442906
v 27.860249 5.818453 3.442420
v 27.858162 5.830000 3.445438
v 27.855629 5.815858 3.431524
v 27.873123 5.890000 3.448669
v 27.869543 5.910000 3.428992
v 27.849867 5.890000 3.432573
v 27.872074 5.904142 3.442906
v 27.860249 5.901547 3.442420
v 27.855629 5.904142 3.431524
v 27.858162 5.890000 3.445438
v 27.840899 5.810000 3.271577
v 27.821222 5.830000 3.275158
v 27.837318 5.830000 3.251900
v 27.826984 5.815858 3.274109
v 27.827471 5.818453 3.262284
v 27.824453 5.830000 3.260195
v 27.838366 5.815858 3.257663
v 27.840899 5.910000 3.271577
v 27.837318 5.890000 3.251900
v 27.821222 5.890000 3.275158
v 27.838366 5.904142 3.257663
v 27.827471 5.901547 3.262284
v 27.824453 5.890000 3.260195
v 27.826984 5.904142 3.274109
v 32.159103 5.810000 2.648423
v 32.178780 5.830000 2.644842
v 32.162682 5.830000 2.668100
v 32.173016 5.815858 2.645891
v 32.172531 5.818453 2.657716
v 32.175549 5.830000 2.659805
v 32.161633 5.815858 2.662337
v 32.159103 5.910000 2.648423
v 32.162682 5.890000 2.668100
v 32.178780 5.890000 2.644842
v 32.161633 5.904142 2.662337
v 32.172531 5.901547 2.657716
v 32.175549 5.890000 2.659805
v 32.173016 5.904142 2.645891
v 32.130455 5.810000 2.491008
v 32.126877 5.830000 2.471331
v 32.150135 5.830000 2.487427
v 32.127926 5.815858 2.477094
v 32.139751 5.818453 2.477580
v 32.141838 5.830000 2.474562
v 32.144371 5.815858 2.488476
v 32.130455 5.910000 2.491008
v 32.150135 5.890000 2.487427
v 32.126877 5.890000 2.471331
v 32.144371 5.904142 2.488476
v 32.139751 5.901547 2.477580
v 32.141838 5.890000 2.474562
v 32.127926 5.904142 2.477094
vn -0.2616 -0.8881 0.3780
vn -0.1608 -0.3251 0.9319
vn -0.8155 -0.3250 0.4788
vn -0.1608 0.3251 0.9319
vn -0.2616 0.8881 0.3780
vn -0.8155 0.3250 0.4788
vn -0.3780 -0.8881 -0.2616
vn -0.9319 -0.3250 -0.1608
vn -0.4788 -0.3251 -0.8155
vn -0.3780 0.8881 -0.2616
vn -0.4788 0.3251 -0.8155
vn -0.9319 0.3250 -0.1608
vn 0.3780 -0.8881 0.2616
vn 0.9319 -0.3250 0.1608
vn 0.4788 -0.3251 0.8155
vn 0.3780 0.8881 0.2616
vn 0.4788 0.3251 0.8155
vn 0.9319 0.3250 0.1608
vn 0.2616 -0.8881 -0.3780
vn 0.1608 -0.3251 -0.9319
vn 0.8155 -0.3250 -0.4788
vn 0.2616 0.8881 -0.3780
vn 0.8155 0.3250 -0.4788
vn 0.1608 0.3251 -0.9319
vn -0.3765 -0.9239 0.0685
vn -0.9090 -0.3827 0.1654
vn -0.2111 -0.0000 0.9775
vn -0.8404 -0.0000 0.5419
vn -0.3765 0.9239 0.0685
vn -0.9090 0.3827 0.1654
vn -0.5419 -0.0000 -0.8404
vn -0.9775 -0.0000 -0.2111
vn -0.0685 -0.9239 -0.3765
vn -0.1654 -0.3827 -0.9090
vn -0.0685 0.9239 -0.3765
vn -0.1654 0.3827 -0.9090
vn 0.8404 -0.0000 -0.5419
vn 0.2111 -0.0000 -0.9775
vn 0.3765 -0.9239 -0.0685
vn 0.9090 -0.3827 -0.1654
vn 0.3765 0.9239 -0.0685
vn 0.9090 0.3827 -0.1654
vn 0.5419 -0.0000 0.8404
vn 0.9775 -0.0000 0.2111
vn 0.0685 -0.9239 0.3765
vn 0.1654 -0.3827 0.9090
vn 0.0685 0.9239 0.3765
vn 0.1654 0.3827 0.9090
vn -0.0000 -1.0000 -0.0000
vn -0.9838 -0.0000 0.1790
vn 0.1790 -0.0000 0.9838
vn -0.0000 1.0000 -0.0000
vn -0.1790 -0.0000 -0.9838
vn 0.9838 -0.0000 -0.1790
vt 0.126136 0.725000
vt 0.126136 0.750000
vt 0.125480 0.750000
vt 0.125000 0.725000
vt 0.425000 0.998864
vt 0.425000 1.000000
vt 0.396132 1.000000
vt 0.375000 0.998864
vt 0.425000 0.025000
vt 0.375000 0.025000
vt 0.375000 0.010566
vt 0.425000 0.000000
vt 0.575000 0.998864
vt 0.625000 0.998864
vt 0.625000 0.999520
vt 0.575000 1.000000
vt 0.873864 0.725000
vt 0.875000 0.725000
vt 0.875000 0.739434
vt 0.873864 0.750000
vt 0.575000 0.025000
vt 0.575000 0.000000
vt 0.603868 0.000000
vt 0.625000 0.025000
vt 0.126136 0.525000
vt 0.125000 0.525000
vt 0.125000 0.510566
vt 0.126136 0.500000
vt 0.425000 0.225000
vt 0.425000 0.250000
vt 0.385566 0.250240
vt 0.375000 0.225000
vt 0.425000 0.251136
vt 0.375000 0.251136
vt 0.873864 0.525000
vt 0.873864 0.500000
vt 0.874520 0.500000
vt 0.875000 0.525000
vt 0.575000 0.251136
vt 0.575000 0.250000
vt 0.614434 0.244717
vt 0.625000 0.251136
vt 0.575000 0.225000
vt 0.625000 0.225000
vt 0.373864 0.725000
vt 0.375000 0.725000
vt 0.382044 0.746638
vt 0.374432 0.750568
vt 0.425000 0.725000
vt 0.425000 0.750000
vt 0.425000 0.751136
vt 0.626136 0.725000
vt 0.625568 0.750568
vt 0.618116 0.746478
vt 0.625000 0.725000
vt 0.575000 0.751136
vt 0.575000 0.750000
vt 0.575000 0.725000
vt 0.373864 0.525000
vt 0.374432 0.499432
vt 0.381884 0.503522
vt 0.375000 0.525000
vt 0.425000 0.498864
vt 0.425000 0.500000
vt 0.425000 0.525000
vt 0.626136 0.525000
vt 0.625000 0.525000
vt 0.617956 0.503362
vt 0.625568 0.499432
vt 0.575000 0.525000
vt 0.575000 0.500000
vt 0.575000 0.498864
s 0
usemtl DL2_IceBlue
f 449/577/433 452/578/433 453/579/433 455/580/433
f 450/581/434 454/582/434 453/583/434 452/584/434
f 451/585/435 455/586/435 453/587/435 454/588/435
f 456/589/436 459/590/436 460/591/436 462/592/436
f 457/593/437 461/594/437 460/595/437 459/596/437
f 458/597/438 462/598/438 460/599/438 461/600/438
f 463/601/439 466/602/439 467/603/439 469/604/439
f 464/605/440 468/606/440 467/607/440 466/608/440
f 465/609/441 469/610/441 467/607/441 468/606/441
f 470/611/442 473/612/442 474/613/442 476/614/442
f 471/615/443 475/616/443 474/617/443 473/618/443
f 472/619/444 476/620/444 474/617/444 475/616/444
f 477/621/445 480/622/445 481/623/445 483/624/445
f 478/625/446 482/626/446 481/623/446 480/622/446
f 479/627/447 483/624/447 481/623/447 482/626/447
f 484/628/448 487/629/448 488/630/448 490/631/448
f 485/632/449 489/633/449 488/630/449 487/629/449
f 486/634/450 490/631/450 488/630/450 489/633/450
f 491/635/451 494/636/451 495/637/451 497/638/451
f 492/639/452 496/640/452 495/637/452 494/636/452
f 493/641/453 497/638/453 495/637/453 496/640/453
f 498/642/454 501/643/454 502/644/454 504/645/454
f 499/646/455 503/647/455 502/644/455 501/643/455
f 500/648/456 504/645/456 502/644/456 503/647/456
f 463/601/457 449/577/457 455/580/457 466/602/457
f 466/608/458 455/586/458 451/585/458 464/605/458
f 450/581/459 456/589/459 462/592/459 454/582/459
f 454/588/460 462/598/460 458/597/460 451/585/460
f 457/593/461 470/611/461 476/614/461 461/594/461
f 461/600/462 476/620/462 472/619/462 458/597/462
f 471/615/463 465/609/463 468/606/463 475/616/463
f 475/616/464 468/606/464 464/605/464 472/619/464
f 491/635/465 463/601/465 469/604/465 494/636/465
f 494/636/466 469/610/466 465/609/466 492/639/466
f 470/611/467 498/642/467 504/645/467 473/612/467
f 473/618/468 504/645/468 500/648/468 471/615/468
f 499/646/469 493/641/469 496/640/469 503/647/469
f 503/647/470 496/640/470 492/639/470 500/648/470
f 477/621/471 491/635/471 497/638/471 480/622/471
f 480/622/472 497/638/472 493/641/472 478/625/472
f 498/642/473 484/628/473 490/631/473 501/643/473
f 501/643/474 490/631/474 486/634/474 499/646/474
f 485/632/475 479/627/475 482/626/475 489/633/475
f 489/633/476 482/626/476 478/625/476 486/634/476
f 449/577/477 477/621/477 483/624/477 452/578/477
f 452/584/478 483/624/478 479/627/478 450/581/478
f 484/628/479 457/593/479 459/596/479 487/629/479
f 487/629/480 459/590/480 456/589/480 485/632/480
f 463/601/481 491/635/481 477/621/481 449/577/481
f 451/585/482 458/597/482 472/619/482 464/605/482
f 479/627/483 485/632/483 456/589/483 450/581/483
f 498/642/484 470/611/484 457/593/484 484/628/484
f 465/609/485 471/615/485 500/648/485 492/639/485
f 493/641/486 499/646/486 486/634/486 478/625/486
o DL_Bow_Crown_BlueChannel_1_0
v 15.840899 5.810000 -2.711577
v 15.837318 5.830000 -2.691900
v 15.821221 5.830000 -2.715158
v 15.838367 5.815858 -2.697664
v 15.827471 5.818453 -2.702284
v 15.824452 5.830000 -2.700195
v 15.826984 5.815858 -2.714109
v 15.837318 5.890000 -2.691900
v 15.840899 5.910000 -2.711577
v 15.821221 5.890000 -2.715158
v 15.838367 5.904142 -2.697664
v 15.827471 5.901547 -2.702284
v 15.826984 5.904142 -2.714109
v 15.824452 5.890000 -2.700195
v 15.869543 5.810000 -2.868992
v 15.849866 5.830000 -2.872573
v 15.873123 5.830000 -2.888669
v 15.855629 5.815858 -2.871524
v 15.860250 5.818453 -2.882420
v 15.858161 5.830000 -2.885438
v 15.872075 5.815858 -2.882906
v 15.869543 5.910000 -2.868992
v 15.873123 5.890000 -2.888669
v 15.849866 5.890000 -2.872573
v 15.872075 5.904142 -2.882906
v 15.860250 5.901547 -2.882420
v 15.858161 5.890000 -2.885438
v 15.855629 5.904142 -2.871524
v 20.130457 5.810000 -1.931008
v 20.150133 5.830000 -1.927428
v 20.126877 5.830000 -1.911331
v 20.144371 5.815858 -1.928476
v 20.139751 5.818453 -1.917580
v 20.141838 5.830000 -1.914563
v 20.127926 5.815858 -1.917094
v 20.130457 5.910000 -1.931008
v 20.126877 5.890000 -1.911331
v 20.150133 5.890000 -1.927428
v 20.127926 5.904142 -1.917094
v 20.139751 5.901547 -1.917580
v 20.141838 5.890000 -1.914563
v 20.144371 5.904142 -1.928476
v 20.159101 5.810000 -2.088423
v 20.162682 5.830000 -2.108100
v 20.178778 5.830000 -2.084842
v 20.161634 5.815858 -2.102337
v 20.172529 5.818453 -2.097716
v 20.175547 5.830000 -2.099805
v 20.173016 5.815858 -2.085891
v 20.159101 5.910000 -2.088423
v 20.178778 5.890000 -2.084842
v 20.162682 5.890000 -2.108100
v 20.173016 5.904142 -2.085891
v 20.172529 5.901547 -2.097716
v 20.175547 5.890000 -2.099805
v 20.161634 5.904142 -2.102337
vn -0.3780 -0.8881 0.2616
vn -0.4788 -0.3251 0.8155
vn -0.9319 -0.3250 0.1608
vn -0.4788 0.3251 0.8155
vn -0.3780 0.8881 0.2616
vn -0.9319 0.3250 0.1608
vn -0.2616 -0.8881 -0.3780
vn -0.8155 -0.3250 -0.4788
vn -0.1608 -0.3251 -0.9319
vn -0.2616 0.8881 -0.3780
vn -0.1608 0.3251 -0.9319
vn -0.8155 0.3250 -0.4788
vn 0.2616 -0.8881 0.3780
vn 0.8155 -0.3250 0.4788
vn 0.1608 -0.3251 0.9319
vn 0.2616 0.8881 0.3780
vn 0.1608 0.3251 0.9319
vn 0.8155 0.3250 0.4788
vn 0.3780 -0.8881 -0.2616
vn 0.4788 -0.3251 -0.8155
vn 0.9319 -0.3250 -0.1608
vn 0.3780 0.8881 -0.2616
vn 0.9319 0.3250 -0.1608
vn 0.4788 0.3251 -0.8155
vn -0.3765 -0.9239 -0.0685
vn -0.9090 -0.3827 -0.1654
vn -0.5419 -0.0000 0.8404
vn -0.9775 -0.0000 0.2111
vn -0.3765 0.9239 -0.0685
vn -0.9090 0.3827 -0.1654
vn -0.2111 -0.0000 -0.9775
vn -0.8404 -0.0000 -0.5419
vn 0.0685 -0.9239 -0.3765
vn 0.1654 -0.3827 -0.9090
vn 0.0685 0.9239 -0.3765
vn 0.1654 0.3827 -0.9090
vn 0.9775 -0.0000 -0.2111
vn 0.5419 -0.0000 -0.8404
vn 0.3765 -0.9239 0.0685
vn 0.9090 -0.3827 0.1654
vn 0.3765 0.9239 0.0685
vn 0.9090 0.3827 0.1654
vn 0.2111 -0.0000 0.9775
vn 0.8404 -0.0000 0.5419
vn -0.0685 -0.9239 0.3765
vn -0.1654 -0.3827 0.9090
vn -0.0685 0.9239 0.3765
vn -0.1654 0.3827 0.9090
vn -0.0000 -1.0000 -0.0000
vn -0.9838 -0.0000 -0.1790
vn -0.1790 -0.0000 0.9838
vn -0.0000 1.0000 -0.0000
vn 0.1790 -0.0000 -0.9838
vn 0.9838 -0.0000 0.1790
vt 0.126136 0.725000
vt 0.126136 0.750000
vt 0.125480 0.750000
vt 0.125000 0.725000
vt 0.425000 0.998864
vt 0.425000 1.000000
vt 0.396132 1.000000
vt 0.375000 0.998864
vt 0.425000 0.025000
vt 0.375000 0.025000
vt 0.375000 0.010566
vt 0.425000 0.000000
vt 0.575000 0.998864
vt 0.625000 0.998864
vt 0.625000 0.999520
vt 0.575000 1.000000
vt 0.873864 0.725000
vt 0.875000 0.725000
vt 0.875000 0.739434
vt 0.873864 0.750000
vt 0.575000 0.025000
vt 0.575000 0.000000
vt 0.603868 0.000000
vt 0.625000 0.025000
vt 0.126136 0.525000
vt 0.125000 0.525000
vt 0.125000 0.510566
vt 0.126136 0.500000
vt 0.425000 0.225000
vt 0.425000 0.250000
vt 0.385566 0.250240
vt 0.375000 0.225000
vt 0.425000 0.251136
vt 0.375000 0.251136
vt 0.873864 0.525000
vt 0.873864 0.500000
vt 0.874520 0.500000
vt 0.875000 0.525000
vt 0.575000 0.251136
vt 0.575000 0.250000
vt 0.614434 0.244717
vt 0.625000 0.251136
vt 0.575000 0.225000
vt 0.625000 0.225000
vt 0.373864 0.725000
vt 0.375000 0.725000
vt 0.382044 0.746638
vt 0.374432 0.750568
vt 0.425000 0.725000
vt 0.425000 0.750000
vt 0.425000 0.751136
vt 0.626136 0.725000
vt 0.625568 0.750568
vt 0.618116 0.746478
vt 0.625000 0.725000
vt 0.575000 0.751136
vt 0.575000 0.750000
vt 0.575000 0.725000
vt 0.373864 0.525000
vt 0.374432 0.499432
vt 0.381884 0.503522
vt 0.375000 0.525000
vt 0.425000 0.498864
vt 0.425000 0.500000
vt 0.425000 0.525000
vt 0.626136 0.525000
vt 0.625000 0.525000
vt 0.617956 0.503362
vt 0.625568 0.499432
vt 0.575000 0.525000
vt 0.575000 0.500000
vt 0.575000 0.498864
s 0
usemtl DL2_IceBlue
f 505/649/487 508/650/487 509/651/487 511/652/487
f 506/653/488 510/654/488 509/655/488 508/656/488
f 507/657/489 511/658/489 509/659/489 510/660/489
f 512/661/490 515/662/490 516/663/490 518/664/490
f 513/665/491 517/666/491 516/667/491 515/668/491
f 514/669/492 518/670/492 516/671/492 517/672/492
f 519/673/493 522/674/493 523/675/493 525/676/493
f 520/677/494 524/678/494 523/679/494 522/680/494
f 521/681/495 525/682/495 523/679/495 524/678/495
f 526/683/496 529/684/496 530/685/496 532/686/496
f 527/687/497 531/688/497 530/689/497 529/690/497
f 528/691/498 532/692/498 530/689/498 531/688/498
f 533/693/499 536/694/499 537/695/499 539/696/499
f 534/697/500 538/698/500 537/695/500 536/694/500
f 535/699/501 539/696/501 537/695/501 538/698/501
f 540/700/502 543/701/502 544/702/502 546/703/502
f 541/704/503 545/705/503 544/702/503 543/701/503
f 542/706/504 546/703/504 544/702/504 545/705/504
f 547/707/505 550/708/505 551/709/505 553/710/505
f 548/711/506 552/712/506 551/709/506 550/708/506
f 549/713/507 553/710/507 551/709/507 552/712/507
f 554/714/508 557/715/508 558/716/508 560/717/508
f 555/718/509 559/719/509 558/716/509 557/715/509
f 556/720/510 560/717/510 558/716/510 559/719/510
f 519/673/511 505/649/511 511/652/511 522/674/511
f 522/680/512 511/658/512 507/657/512 520/677/512
f 506/653/513 512/661/513 518/664/513 510/654/513
f 510/660/514 518/670/514 514/669/514 507/657/514
f 513/665/515 526/683/515 532/686/515 517/666/515
f 517/672/516 532/692/516 528/691/516 514/669/516
f 527/687/517 521/681/517 524/678/517 531/688/517
f 531/688/518 524/678/518 520/677/518 528/691/518
f 547/707/519 519/673/519 525/676/519 550/708/519
f 550/708/520 525/682/520 521/681/520 548/711/520
f 526/683/521 554/714/521 560/717/521 529/684/521
f 529/690/522 560/717/522 556/720/522 527/687/522
f 555/718/523 549/713/523 552/712/523 559/719/523
f 559/719/524 552/712/524 548/711/524 556/720/524
f 533/693/525 547/707/525 553/710/525 536/694/525
f 536/694/526 553/710/526 549/713/526 534/697/526
f 554/714/527 540/700/527 546/703/527 557/715/527
f 557/715/528 546/703/528 542/706/528 555/718/528
f 541/704/529 535/699/529 538/698/529 545/705/529
f 545/705/530 538/698/530 534/697/530 542/706/530
f 505/649/531 533/693/531 539/696/531 508/650/531
f 508/656/532 539/696/532 535/699/532 506/653/532
f 540/700/533 513/665/533 515/668/533 543/701/533
f 543/701/534 515/662/534 512/661/534 541/704/534
f 519/673/535 547/707/535 533/693/535 505/649/535
f 507/657/536 514/669/536 528/691/536 520/677/536
f 535/699/537 541/704/537 512/661/537 506/653/537
f 554/714/538 526/683/538 513/665/538 540/700/538
f 521/681/539 527/687/539 556/720/539 548/711/539
f 549/713/540 555/718/540 542/706/540 534/697/540
o DL_Bow_Crown_BlueChannel_1_1
v 21.840899 5.810000 -2.991577
v 21.837318 5.830000 -2.971900
v 21.821222 5.830000 -2.995158
v 21.838366 5.815858 -2.977664
v 21.827471 5.818453 -2.982284
v 21.824453 5.830000 -2.980195
v 21.826984 5.815858 -2.994109
v 21.837318 5.890000 -2.971900
v 21.840899 5.910000 -2.991577
v 21.821222 5.890000 -2.995158
v 21.838366 5.904142 -2.977664
v 21.827471 5.901547 -2.982284
v 21.826984 5.904142 -2.994109
v 21.824453 5.890000 -2.980195
v 21.869543 5.810000 -3.148992
v 21.849867 5.830000 -3.152573
v 21.873123 5.830000 -3.168669
v 21.855629 5.815858 -3.151524
v 21.860249 5.818453 -3.162420
v 21.858162 5.830000 -3.165438
v 21.872074 5.815858 -3.162906
v 21.869543 5.910000 -3.148992
v 21.873123 5.890000 -3.168669
v 21.849867 5.890000 -3.152573
v 21.872074 5.904142 -3.162906
v 21.860249 5.901547 -3.162420
v 21.858162 5.890000 -3.165438
v 21.855629 5.904142 -3.151524
v 26.130457 5.810000 -2.211008
v 26.150133 5.830000 -2.207428
v 26.126877 5.830000 -2.191331
v 26.144371 5.815858 -2.208476
v 26.139751 5.818453 -2.197580
v 26.141838 5.830000 -2.194562
v 26.127926 5.815858 -2.197094
v 26.130457 5.910000 -2.211008
v 26.126877 5.890000 -2.191331
v 26.150133 5.890000 -2.207428
v 26.127926 5.904142 -2.197094
v 26.139751 5.901547 -2.197580
v 26.141838 5.890000 -2.194562
v 26.144371 5.904142 -2.208476
v 26.159101 5.810000 -2.368423
v 26.162682 5.830000 -2.388100
v 26.178778 5.830000 -2.364842
v 26.161634 5.815858 -2.382337
v 26.172529 5.818453 -2.377716
v 26.175547 5.830000 -2.379805
v 26.173016 5.815858 -2.365891
v 26.159101 5.910000 -2.368423
v 26.178778 5.890000 -2.364842
v 26.162682 5.890000 -2.388100
v 26.173016 5.904142 -2.365891
v 26.172529 5.901547 -2.377716
v 26.175547 5.890000 -2.379805
v 26.161634 5.904142 -2.382337
vn -0.3780 -0.8881 0.2616
vn -0.4788 -0.3251 0.8155
vn -0.9319 -0.3250 0.1608
vn -0.4788 0.3251 0.8155
vn -0.3780 0.8881 0.2616
vn -0.9319 0.3250 0.1608
vn -0.2616 -0.8881 -0.3780
vn -0.8155 -0.3250 -0.4788
vn -0.1608 -0.3251 -0.9319
vn -0.2616 0.8881 -0.3780
vn -0.1608 0.3251 -0.9319
vn -0.8155 0.3250 -0.4788
vn 0.2616 -0.8881 0.3780
vn 0.8155 -0.3250 0.4788
vn 0.1608 -0.3251 0.9319
vn 0.2616 0.8881 0.3780
vn 0.1608 0.3251 0.9319
vn 0.8155 0.3250 0.4788
vn 0.3780 -0.8881 -0.2616
vn 0.4788 -0.3251 -0.8155
vn 0.9319 -0.3250 -0.1608
vn 0.3780 0.8881 -0.2616
vn 0.9319 0.3250 -0.1608
vn 0.4788 0.3251 -0.8155
vn -0.3765 -0.9239 -0.0685
vn -0.9090 -0.3827 -0.1654
vn -0.5419 -0.0000 0.8404
vn -0.9775 -0.0000 0.2111
vn -0.3765 0.9239 -0.0685
vn -0.9090 0.3827 -0.1654
vn -0.2111 -0.0000 -0.9775
vn -0.8404 -0.0000 -0.5419
vn 0.0685 -0.9239 -0.3765
vn 0.1654 -0.3827 -0.9090
vn 0.0685 0.9239 -0.3765
vn 0.1654 0.3827 -0.9090
vn 0.9775 -0.0000 -0.2111
vn 0.5419 -0.0000 -0.8404
vn 0.3765 -0.9239 0.0685
vn 0.9090 -0.3827 0.1654
vn 0.3765 0.9239 0.0685
vn 0.9090 0.3827 0.1654
vn 0.2111 -0.0000 0.9775
vn 0.8404 -0.0000 0.5419
vn -0.0685 -0.9239 0.3765
vn -0.1654 -0.3827 0.9090
vn -0.0685 0.9239 0.3765
vn -0.1654 0.3827 0.9090
vn -0.0000 -1.0000 -0.0000
vn -0.9838 -0.0000 -0.1790
vn -0.1790 -0.0000 0.9838
vn -0.0000 1.0000 -0.0000
vn 0.1790 -0.0000 -0.9838
vn 0.9838 -0.0000 0.1790
vt 0.126136 0.725000
vt 0.126136 0.750000
vt 0.125480 0.750000
vt 0.125000 0.725000
vt 0.425000 0.998864
vt 0.425000 1.000000
vt 0.396132 1.000000
vt 0.375000 0.998864
vt 0.425000 0.025000
vt 0.375000 0.025000
vt 0.375000 0.010566
vt 0.425000 0.000000
vt 0.575000 0.998864
vt 0.625000 0.998864
vt 0.625000 0.999520
vt 0.575000 1.000000
vt 0.873864 0.725000
vt 0.875000 0.725000
vt 0.875000 0.739434
vt 0.873864 0.750000
vt 0.575000 0.025000
vt 0.575000 0.000000
vt 0.603868 0.000000
vt 0.625000 0.025000
vt 0.126136 0.525000
vt 0.125000 0.525000
vt 0.125000 0.510566
vt 0.126136 0.500000
vt 0.425000 0.225000
vt 0.425000 0.250000
vt 0.385566 0.250240
vt 0.375000 0.225000
vt 0.425000 0.251136
vt 0.375000 0.251136
vt 0.873864 0.525000
vt 0.873864 0.500000
vt 0.874520 0.500000
vt 0.875000 0.525000
vt 0.575000 0.251136
vt 0.575000 0.250000
vt 0.614434 0.244717
vt 0.625000 0.251136
vt 0.575000 0.225000
vt 0.625000 0.225000
vt 0.373864 0.725000
vt 0.375000 0.725000
vt 0.382044 0.746638
vt 0.374432 0.750568
vt 0.425000 0.725000
vt 0.425000 0.750000
vt 0.425000 0.751136
vt 0.626136 0.725000
vt 0.625568 0.750568
vt 0.618116 0.746478
vt 0.625000 0.725000
vt 0.575000 0.751136
vt 0.575000 0.750000
vt 0.575000 0.725000
vt 0.373864 0.525000
vt 0.374432 0.499432
vt 0.381884 0.503522
vt 0.375000 0.525000
vt 0.425000 0.498864
vt 0.425000 0.500000
vt 0.425000 0.525000
vt 0.626136 0.525000
vt 0.625000 0.525000
vt 0.617956 0.503362
vt 0.625568 0.499432
vt 0.575000 0.525000
vt 0.575000 0.500000
vt 0.575000 0.498864
s 0
usemtl DL2_IceBlue
f 561/721/541 564/722/541 565/723/541 567/724/541
f 562/725/542 566/726/542 565/727/542 564/728/542
f 563/729/543 567/730/543 565/731/543 566/732/543
f 568/733/544 571/734/544 572/735/544 574/736/544
f 569/737/545 573/738/545 572/739/545 571/740/545
f 570/741/546 574/742/546 572/743/546 573/744/546
f 575/745/547 578/746/547 579/747/547 581/748/547
f 576/749/548 580/750/548 579/751/548 578/752/548
f 577/753/549 581/754/549 579/751/549 580/750/549
f 582/755/550 585/756/550 586/757/550 588/758/550
f 583/759/551 587/760/551 586/761/551 585/762/551
f 584/763/552 588/764/552 586/761/552 587/760/552
f 589/765/553 592/766/553 593/767/553 595/768/553
f 590/769/554 594/770/554 593/767/554 592/766/554
f 591/771/555 595/768/555 593/767/555 594/770/555
f 596/772/556 599/773/556 600/774/556 602/775/556
f 597/776/557 601/777/557 600/774/557 599/773/557
f 598/778/558 602/775/558 600/774/558 601/777/558
f 603/779/559 606/780/559 607/781/559 609/782/559
f 604/783/560 608/784/560 607/781/560 606/780/560
f 605/785/561 609/782/561 607/781/561 608/784/561
f 610/786/562 613/787/562 614/788/562 616/789/562
f 611/790/563 615/791/563 614/788/563 613/787/563
f 612/792/564 616/789/564 614/788/564 615/791/564
f 575/745/565 561/721/565 567/724/565 578/746/565
f 578/752/566 567/730/566 563/729/566 576/749/566
f 562/725/567 568/733/567 574/736/567 566/726/567
f 566/732/568 574/742/568 570/741/568 563/729/568
f 569/737/569 582/755/569 588/758/569 573/738/569
f 573/744/570 588/764/570 584/763/570 570/741/570
f 583/759/571 577/753/571 580/750/571 587/760/571
f 587/760/572 580/750/572 576/749/572 584/763/572
f 603/779/573 575/745/573 581/748/573 606/780/573
f 606/780/574 581/754/574 577/753/574 604/783/574
f 582/755/575 610/786/575 616/789/575 585/756/575
f 585/762/576 616/789/576 612/792/576 583/759/576
f 611/790/577 605/785/577 608/784/577 615/791/577
f 615/791/578 608/784/578 604/783/578 612/792/578
f 589/765/579 603/779/579 609/782/579 592/766/579
f 592/766/580 609/782/580 605/785/580 590/769/580
f 610/786/581 596/772/581 602/775/581 613/787/581
f 613/787/582 602/775/582 598/778/582 611/790/582
f 597/776/583 591/771/583 594/770/583 601/777/583
f 601/777/584 594/770/584 590/769/584 598/778/584
f 561/721/585 589/765/585 595/768/585 564/722/585
f 564/728/586 595/768/586 591/771/586 562/725/586
f 596/772/587 569/737/587 571/740/587 599/773/587
f 599/773/588 571/734/588 568/733/588 597/776/588
f 575/745/589 603/779/589 589/765/589 561/721/589
f 563/729/590 570/741/590 584/763/590 576/749/590
f 591/771/591 597/776/591 568/733/591 562/725/591
f 610/786/592 582/755/592 569/737/592 596/772/592
f 577/753/593 583/759/593 612/792/593 604/783/593
f 605/785/594 611/790/594 598/778/594 590/769/594
o DL_Bow_Crown_BlueChannel_1_2
v 27.840899 5.810000 -3.271577
v 27.837318 5.830000 -3.251900
v 27.821222 5.830000 -3.275158
v 27.838366 5.815858 -3.257663
v 27.827471 5.818453 -3.262284
v 27.824453 5.830000 -3.260195
v 27.826984 5.815858 -3.274109
v 27.837318 5.890000 -3.251900
v 27.840899 5.910000 -3.271577
v 27.821222 5.890000 -3.275158
v 27.838366 5.904142 -3.257663
v 27.827471 5.901547 -3.262284
v 27.826984 5.904142 -3.274109
v 27.824453 5.890000 -3.260195
v 27.869543 5.810000 -3.428992
v 27.849867 5.830000 -3.432573
v 27.873123 5.830000 -3.448669
v 27.855629 5.815858 -3.431524
v 27.860249 5.818453 -3.442420
v 27.858162 5.830000 -3.445438
v 27.872074 5.815858 -3.442906
v 27.869543 5.910000 -3.428992
v 27.873123 5.890000 -3.448669
v 27.849867 5.890000 -3.432573
v 27.872074 5.904142 -3.442906
v 27.860249 5.901547 -3.442420
v 27.858162 5.890000 -3.445438
v 27.855629 5.904142 -3.431524
v 32.130455 5.810000 -2.491008
v 32.150135 5.830000 -2.487427
v 32.126877 5.830000 -2.471331
v 32.144371 5.815858 -2.488476
v 32.139751 5.818453 -2.477580
v 32.141838 5.830000 -2.474562
v 32.127926 5.815858 -2.477094
v 32.130455 5.910000 -2.491008
v 32.126877 5.890000 -2.471331
v 32.150135 5.890000 -2.487427
v 32.127926 5.904142 -2.477094
v 32.139751 5.901547 -2.477580
v 32.141838 5.890000 -2.474562
v 32.144371 5.904142 -2.488476
v 32.159103 5.810000 -2.648423
v 32.162682 5.830000 -2.668100
v 32.178780 5.830000 -2.644842
v 32.161633 5.815858 -2.662337
v 32.172531 5.818453 -2.657716
v 32.175549 5.830000 -2.659805
v 32.173016 5.815858 -2.645891
v 32.159103 5.910000 -2.648423
v 32.178780 5.890000 -2.644842
v 32.162682 5.890000 -2.668100
v 32.173016 5.904142 -2.645891
v 32.172531 5.901547 -2.657716
v 32.175549 5.890000 -2.659805
v 32.161633 5.904142 -2.662337
vn -0.3780 -0.8881 0.2616
vn -0.4788 -0.3251 0.8155
vn -0.9319 -0.3250 0.1608
vn -0.4788 0.3251 0.8155
vn -0.3780 0.8881 0.2616
vn -0.9319 0.3250 0.1608
vn -0.2616 -0.8881 -0.3780
vn -0.8155 -0.3250 -0.4788
vn -0.1608 -0.3251 -0.9319
vn -0.2616 0.8881 -0.3780
vn -0.1608 0.3251 -0.9319
vn -0.8155 0.3250 -0.4788
vn 0.2616 -0.8881 0.3780
vn 0.8155 -0.3250 0.4788
vn 0.1608 -0.3251 0.9319
vn 0.2616 0.8881 0.3780
vn 0.1608 0.3251 0.9319
vn 0.8155 0.3250 0.4788
vn 0.3780 -0.8881 -0.2616
vn 0.4788 -0.3251 -0.8155
vn 0.9319 -0.3250 -0.1608
vn 0.3780 0.8881 -0.2616
vn 0.9319 0.3250 -0.1608
vn 0.4788 0.3251 -0.8155
vn -0.3765 -0.9239 -0.0685
vn -0.9090 -0.3827 -0.1654
vn -0.5419 -0.0000 0.8404
vn -0.9775 -0.0000 0.2111
vn -0.3765 0.9239 -0.0685
vn -0.9090 0.3827 -0.1654
vn -0.2111 -0.0000 -0.9775
vn -0.8404 -0.0000 -0.5419
vn 0.0685 -0.9239 -0.3765
vn 0.1654 -0.3827 -0.9090
vn 0.0685 0.9239 -0.3765
vn 0.1654 0.3827 -0.9090
vn 0.9775 -0.0000 -0.2111
vn 0.5419 -0.0000 -0.8404
vn 0.3765 -0.9239 0.0685
vn 0.9090 -0.3827 0.1654
vn 0.3765 0.9239 0.0685
vn 0.9090 0.3827 0.1654
vn 0.2111 -0.0000 0.9775
vn 0.8404 -0.0000 0.5419
vn -0.0685 -0.9239 0.3765
vn -0.1654 -0.3827 0.9090
vn -0.0685 0.9239 0.3765
vn -0.1654 0.3827 0.9090
vn -0.0000 -1.0000 -0.0000
vn -0.9838 -0.0000 -0.1790
vn -0.1790 -0.0000 0.9838
vn -0.0000 1.0000 -0.0000
vn 0.1790 -0.0000 -0.9838
vn 0.9838 -0.0000 0.1790
vt 0.126136 0.725000
vt 0.126136 0.750000
vt 0.125480 0.750000
vt 0.125000 0.725000
vt 0.425000 0.998864
vt 0.425000 1.000000
vt 0.396132 1.000000
vt 0.375000 0.998864
vt 0.425000 0.025000
vt 0.375000 0.025000
vt 0.375000 0.010566
vt 0.425000 0.000000
vt 0.575000 0.998864
vt 0.625000 0.998864
vt 0.625000 0.999520
vt 0.575000 1.000000
vt 0.873864 0.725000
vt 0.875000 0.725000
vt 0.875000 0.739434
vt 0.873864 0.750000
vt 0.575000 0.025000
vt 0.575000 0.000000
vt 0.603868 0.000000
vt 0.625000 0.025000
vt 0.126136 0.525000
vt 0.125000 0.525000
vt 0.125000 0.510566
vt 0.126136 0.500000
vt 0.425000 0.225000
vt 0.425000 0.250000
vt 0.385566 0.250240
vt 0.375000 0.225000
vt 0.425000 0.251136
vt 0.375000 0.251136
vt 0.873864 0.525000
vt 0.873864 0.500000
vt 0.874520 0.500000
vt 0.875000 0.525000
vt 0.575000 0.251136
vt 0.575000 0.250000
vt 0.614434 0.244717
vt 0.625000 0.251136
vt 0.575000 0.225000
vt 0.625000 0.225000
vt 0.373864 0.725000
vt 0.375000 0.725000
vt 0.382044 0.746638
vt 0.374432 0.750568
vt 0.425000 0.725000
vt 0.425000 0.750000
vt 0.425000 0.751136
vt 0.626136 0.725000
vt 0.625568 0.750568
vt 0.618116 0.746478
vt 0.625000 0.725000
vt 0.575000 0.751136
vt 0.575000 0.750000
vt 0.575000 0.725000
vt 0.373864 0.525000
vt 0.374432 0.499432
vt 0.381884 0.503522
vt 0.375000 0.525000
vt 0.425000 0.498864
vt 0.425000 0.500000
vt 0.425000 0.525000
vt 0.626136 0.525000
vt 0.625000 0.525000
vt 0.617956 0.503362
vt 0.625568 0.499432
vt 0.575000 0.525000
vt 0.575000 0.500000
vt 0.575000 0.498864
s 0
usemtl DL2_IceBlue
f 617/793/595 620/794/595 621/795/595 623/796/595
f 618/797/596 622/798/596 621/799/596 620/800/596
f 619/801/597 623/802/597 621/803/597 622/804/597
f 624/805/598 627/806/598 628/807/598 630/808/598
f 625/809/599 629/810/599 628/811/599 627/812/599
f 626/813/600 630/814/600 628/815/600 629/816/600
f 631/817/601 634/818/601 635/819/601 637/820/601
f 632/821/602 636/822/602 635/823/602 634/824/602
f 633/825/603 637/826/603 635/823/603 636/822/603
f 638/827/604 641/828/604 642/829/604 644/830/604
f 639/831/605 643/832/605 642/833/605 641/834/605
f 640/835/606 644/836/606 642/833/606 643/832/606
f 645/837/607 648/838/607 649/839/607 651/840/607
f 646/841/608 650/842/608 649/839/608 648/838/608
f 647/843/609 651/840/609 649/839/609 650/842/609
f 652/844/610 655/845/610 656/846/610 658/847/610
f 653/848/611 657/849/611 656/846/611 655/845/611
f 654/850/612 658/847/612 656/846/612 657/849/612
f 659/851/613 662/852/613 663/853/613 665/854/613
f 660/855/614 664/856/614 663/853/614 662/852/614
f 661/857/615 665/854/615 663/853/615 664/856/615
f 666/858/616 669/859/616 670/860/616 672/861/616
f 667/862/617 671/863/617 670/860/617 669/859/617
f 668/864/618 672/861/618 670/860/618 671/863/618
f 631/817/619 617/793/619 623/796/619 634/818/619
f 634/824/620 623/802/620 619/801/620 632/821/620
f 618/797/621 624/805/621 630/808/621 622/798/621
f 622/804/622 630/814/622 626/813/622 619/801/622
f 625/809/623 638/827/623 644/830/623 629/810/623
f 629/816/624 644/836/624 640/835/624 626/813/624
f 639/831/625 633/825/625 636/822/625 643/832/625
f 643/832/626 636/822/626 632/821/626 640/835/626
f 659/851/627 631/817/627 637/820/627 662/852/627
f 662/852/628 637/826/628 633/825/628 660/855/628
f 638/827/629 666/858/629 672/861/629 641/828/629
f 641/834/630 672/861/630 668/864/630 639/831/630
f 667/862/631 661/857/631 664/856/631 671/863/631
f 671/863/632 664/856/632 660/855/632 668/864/632
f 645/837/633 659/851/633 665/854/633 648/838/633
f 648/838/634 665/854/634 661/857/634 646/841/634
f 666/858/635 652/844/635 658/847/635 669/859/635
f 669/859/636 658/847/636 654/850/636 667/862/636
f 653/848/637 647/843/637 650/842/637 657/849/637
f 657/849/638 650/842/638 646/841/638 654/850/638
f 617/793/639 645/837/639 651/840/639 620/794/639
f 620/800/640 651/840/640 647/843/640 618/797/640
f 652/844/641 625/809/641 627/812/641 655/845/641
f 655/845/642 627/806/642 624/805/642 653/848/642
f 631/817/643 659/851/643 645/837/643 617/793/643
f 619/801/644 626/813/644 640/835/644 632/821/644
f 647/843/645 653/848/645 624/805/645 618/797/645
f 666/858/646 638/827/646 625/809/646 652/844/646
f 633/825/647 639/831/647 668/864/647 660/855/647
f 661/857/648 667/862/648 654/850/648 646/841/648
